<?xml version="1.0" encoding="UTF-8"?>
<svg version="1.1" xmlns="http://www.w3.org/2000/svg" width="128" height="128">
<path d="M0 0 C1.36125 0.7425 1.36125 0.7425 2.75 1.5 C4.420625 1.4690625 4.420625 1.4690625 6.125 1.4375 C11.37800581 1.52806907 15.53430332 3.30668409 19.296875 7.03125 C20.50201349 8.47741619 21.63106685 9.98614927 22.75 11.5 C23.74 12.49 23.74 12.49 24.75 13.5 C25.33265625 13.12746094 25.9153125 12.75492188 26.515625 12.37109375 C33.35371528 8.42521461 39.03023747 7.50780322 46.75 9.5 C49.1015625 11.0625 49.1015625 11.0625 50.75 12.5 C51.08 11.18 51.41 9.86 51.75 8.5 C53.625 8.8125 53.625 8.8125 55.75 9.5 C57.75 12.5 57.75 12.5 57.375 14.5 C57.16875 15.16 56.9625 15.82 56.75 16.5 C56.75 17.49 56.75 18.48 56.75 19.5 C58.40385233 20.84919532 60.071702 22.18133728 61.75 23.5 C64.52753551 27.98020282 64.33675951 32.3878578 63.75 37.5 C62.05080243 43.9974998 59.08880959 50.23418646 53.75 54.5 C50.375 55.4375 50.375 55.4375 47.75 55.5 C47.75 54.84 47.75 54.18 47.75 53.5 C45.77 53.005 45.77 53.005 43.75 52.5 C42.69469047 55.98252144 42.75264581 57.50837841 43.875 61.0625 C44.75 64.5 44.75 64.5 43.5625 66.9375 C41.75 68.5 41.75 68.5 38.75 68.5 C38.75 69.49 38.75 70.48 38.75 71.5 C39.61625 72.015625 40.4825 72.53125 41.375 73.0625 C48.15172185 77.27592281 51.31902776 85.76498924 53.28515625 93.17578125 C54.26537904 98.07689522 54.50271931 102.19887608 51.75 106.5 C50.76 106.5 49.77 106.5 48.75 106.5 C48.255 107.985 48.255 107.985 47.75 109.5 C46.76 109.5 45.77 109.5 44.75 109.5 C44.42 108.18 44.09 106.86 43.75 105.5 C43.0075 106.180625 42.265 106.86125 41.5 107.5625 C38.75 109.5 38.75 109.5 36.4375 109.25 C35.880625 109.0025 35.32375 108.755 34.75 108.5 C34.316875 109.325 33.88375 110.15 33.4375 111 C32.880625 111.825 32.32375 112.65 31.75 113.5 C30.76 113.5 29.77 113.5 28.75 113.5 C28.09 111.52 27.43 109.54 26.75 107.5 C26.234375 108.139375 25.71875 108.77875 25.1875 109.4375 C22.09064377 112.05791681 19.72932377 112.19389817 15.75 112.5 C14.76 110.85 13.77 109.2 12.75 107.5 C12.29625 108.325 11.8425 109.15 11.375 110 C10.83875 110.825 10.3025 111.65 9.75 112.5 C9.09 112.5 8.43 112.5 7.75 112.5 C7.29625 112.005 6.8425 111.51 6.375 111 C4.62871033 109.04781326 4.62871033 109.04781326 0.75 109.5 C-2.60890827 106.28027302 -4.79269514 101.87191458 -6.25 97.5 C-7.24 98.16 -8.23 98.82 -9.25 99.5 C-11.89017635 100.31779841 -14.55270591 100.8809489 -17.25 101.5 C-17.25 103.15 -17.25 104.8 -17.25 106.5 C-24.5472973 106.98648649 -24.5472973 106.98648649 -27.6875 104.8125 C-29.25 102.5 -29.25 102.5 -29.5625 100.03125 C-30.0184146 97.36023861 -30.0184146 97.36023861 -32.25390625 95.91796875 C-37.92380058 93.19122567 -41.9544473 91.91707845 -48.25 92.5 C-48.58 93.49 -48.91 94.48 -49.25 95.5 C-52.69107266 97.79404844 -54.21839809 97.76293056 -58.25 97.5 C-59.25 96.5 -59.25 96.5 -59.3125 93.375 C-58.55161387 88.12488568 -54.25928473 85.50468036 -50.25 82.5 C-50.58 81.55125 -50.91 80.6025 -51.25 79.625 C-52.813946 74.12884693 -52.8830255 68.45411898 -51.6875 62.875 C-49.78360678 59.72943729 -47.41272232 57.14655672 -44.90625 54.46484375 C-42.230311 51.29032178 -41.10738535 48.34748946 -40.3125 44.3125 C-39.961875 43.054375 -39.61125 41.79625 -39.25 40.5 C-37.765 40.005 -37.765 40.005 -36.25 39.5 C-35.74395076 37.10530271 -35.24500483 34.70948283 -34.75 32.3125 C-34.60691406 31.63896484 -34.46382812 30.96542969 -34.31640625 30.27148438 C-33.727287 27.39602137 -33.23984286 24.75844268 -33.35546875 21.81640625 C-33.21073363 18.63759411 -31.95458951 17.15047554 -30.0625 14.625 C-29.41925781 13.75875 -28.77601562 12.8925 -28.11328125 12 C-27.19095703 10.7625 -27.19095703 10.7625 -26.25 9.5 C-25.41605402 8.2087288 -24.58263549 6.91711662 -23.75 5.625 C-18.0461548 -2.15798877 -8.67903017 -4.00570623 0 0 Z " fill="#D4A835" transform="translate(60.25,11.5)"/>
<path d="M0 0 C1.20628008 2.33214148 2.1654738 4.49642139 3 7 C3.99 7 4.98 7 6 7 C6.433125 7.45375 6.86625 7.9075 7.3125 8.375 C10.29759273 11.24953374 13.8199048 11.94869151 17.875 12.125 C18.926875 12.063125 18.926875 12.063125 20 12 C19.21625 11.7525 18.4325 11.505 17.625 11.25 C15 10 15 10 13.6875 8.0625 C13 6 13 6 13 3 C14.99954746 2.95745644 17.00041636 2.95919217 19 3 C19.495 3.495 19.495 3.495 20 4 C20.33 3.34 20.66 2.68 21 2 C22.32064453 2.16048828 22.32064453 2.16048828 23.66796875 2.32421875 C24.82941406 2.44410156 25.99085937 2.56398437 27.1875 2.6875 C28.33605469 2.81511719 29.48460938 2.94273438 30.66796875 3.07421875 C34.38478183 2.99142924 36.04010104 2.16836289 39 0 C37.63016497 3.16115776 37.0109362 3.9927092 34 6 C33.27617533 8.05925139 33.27617533 8.05925139 33 10 C34.32 10.33 35.64 10.66 37 11 C36.48938633 14.77854114 35.84066479 16.48710423 33 19 C32.484375 19.721875 31.96875 20.44375 31.4375 21.1875 C30.963125 21.785625 30.48875 22.38375 30 23 C29.34 23 28.68 23 28 23 C26.80161791 25.32854463 26.80161791 25.32854463 26 28 C26.99 29.485 26.99 29.485 28 31 C28.99 31 29.98 31 31 31 C31.33 30.34 31.66 29.68 32 29 C32.66 29 33.32 29 34 29 C34 29.66 34 30.32 34 31 C34.66 31 35.32 31 36 31 C35.98839844 30.36191406 35.97679688 29.72382812 35.96484375 29.06640625 C35.95582031 28.24011719 35.94679688 27.41382812 35.9375 26.5625 C35.92589844 25.73878906 35.91429688 24.91507813 35.90234375 24.06640625 C36 22 36 22 37 21 C42.78316385 20.69562296 47.44151555 21.41186159 53 23 C53 25.97 53 28.94 53 32 C48.38 32 43.76 32 39 32 C39.33 44.54 39.66 57.08 40 70 C40.99 69.67 41.98 69.34 43 69 C44.03547047 65.97717357 44.03547047 65.97717357 44.6875 62.4375 C44.93886719 61.23996094 45.19023438 60.04242188 45.44921875 58.80859375 C45.63097656 57.88175781 45.81273438 56.95492187 46 56 C46.33 56 46.66 56 47 56 C47.85931737 67.80129193 47.85931737 67.80129193 44.9375 71.6875 C41.52119245 74.3769336 39.29857555 74.83142841 35 75 C34.01 73.35 33.02 71.7 32 70 C31.54625 70.825 31.0925 71.65 30.625 72.5 C30.08875 73.325 29.5525 74.15 29 75 C28.34 75 27.68 75 27 75 C26.54625 74.505 26.0925 74.01 25.625 73.5 C23.87871033 71.54781326 23.87871033 71.54781326 20 72 C16.64109173 68.78027302 14.45730486 64.37191458 13 60 C12.01 60.66 11.02 61.32 10 62 C7.35982365 62.81779841 4.69729409 63.3809489 2 64 C2 65.65 2 67.3 2 69 C-5.2972973 69.48648649 -5.2972973 69.48648649 -8.4375 67.3125 C-10 65 -10 65 -10.3125 62.53125 C-10.7684146 59.86023861 -10.7684146 59.86023861 -13.00390625 58.41796875 C-18.67380058 55.69122567 -22.7044473 54.41707845 -29 55 C-29.33 55.99 -29.66 56.98 -30 58 C-33.44107266 60.29404844 -34.96839809 60.26293056 -39 60 C-40 59 -40 59 -40.0625 55.875 C-39.30161387 50.62488568 -35.00928473 48.00468036 -31 45 C-31.33 44.05125 -31.66 43.1025 -32 42.125 C-33.77136065 35.89993256 -34.16638327 28.805036 -31 23 C-30.34 22.01 -29.68 21.02 -29 20 C-28.01 20 -27.02 20 -26 20 C-26.0825 20.886875 -26.165 21.77375 -26.25 22.6875 C-25.93733688 26.83028639 -24.91202747 28.08797253 -22 31 C-18.36235636 33.97630004 -18.36235636 33.97630004 -14 35 C-12.71593601 33.04775792 -11.52058322 31.03659238 -10.375 29 C-9.74335938 27.88625 -9.11171875 26.7725 -8.4609375 25.625 C-7.97882812 24.75875 -7.49671875 23.8925 -7 23 C-6.52433594 23.3609375 -6.04867187 23.721875 -5.55859375 24.09375 C1.59125686 28.83398245 8.67262671 28.92095514 17 28 C19.35556259 27.08984645 19.35556259 27.08984645 21 26 C20.505 23.03 20.505 23.03 20 20 C20.66 19.67 21.32 19.34 22 19 C22 18.34 22 17.68 22 17 C21.05125 17.103125 20.1025 17.20625 19.125 17.3125 C12.75005642 17.3125 6.99899785 13.85272972 2.4375 9.625 C0.67894533 6.41372626 0.28449502 3.62731146 0 0 Z " fill="#1A2A38" transform="translate(41,49)"/>
<path d="M0 0 C1.51689319 0.87234301 3.01405899 1.77999193 4.48828125 2.72265625 C6.6785288 4.15891915 6.6785288 4.15891915 10.1015625 4.81640625 C17.04982645 7.09038354 22.03574917 12.66463654 25.5390625 18.94140625 C25.5390625 19.60140625 25.5390625 20.26140625 25.5390625 20.94140625 C27.1890625 21.27140625 28.8390625 21.60140625 30.5390625 21.94140625 C29.17346077 26.31133179 26.77857643 29.43901991 23.9765625 32.9765625 C22.48343025 34.89708708 22.48343025 34.89708708 21.4921875 37.078125 C20.07019491 39.85800397 18.34582123 40.66560683 15.5390625 41.94140625 C10.79613743 42.45694158 7.00803677 41.37147801 2.5390625 39.94140625 C2.2090625 40.93140625 1.8790625 41.92140625 1.5390625 42.94140625 C-0.7709375 42.28140625 -3.0809375 41.62140625 -5.4609375 40.94140625 C-5.1309375 41.53953125 -4.8009375 42.13765625 -4.4609375 42.75390625 C-3.4609375 44.94140625 -3.4609375 44.94140625 -3.4609375 47.94140625 C-1.1509375 48.60140625 1.1590625 49.26140625 3.5390625 49.94140625 C3.5390625 50.27140625 3.5390625 50.60140625 3.5390625 50.94140625 C-2.7195915 51.47405765 -6.91202535 49.75990131 -12.4609375 46.94140625 C-12.4609375 46.28140625 -12.4609375 45.62140625 -12.4609375 44.94140625 C-13.4509375 44.94140625 -14.4409375 44.94140625 -15.4609375 44.94140625 C-16.1209375 44.28140625 -16.7809375 43.62140625 -17.4609375 42.94140625 C-14.29077021 49.13764232 -9.87982783 51.5036041 -3.4609375 53.94140625 C-1.06310689 54.51858318 1.0682622 54.7802671 3.5390625 54.94140625 C3.8690625 55.93140625 4.1990625 56.92140625 4.5390625 57.94140625 C3.5490625 57.94140625 2.5590625 57.94140625 1.5390625 57.94140625 C2.1990625 58.93140625 2.8590625 59.92140625 3.5390625 60.94140625 C3.4140625 63.00390625 3.4140625 63.00390625 2.5390625 64.94140625 C-2.81162561 68.58664389 -10.30077278 67.59418091 -16.4609375 66.94140625 C-19.95915651 65.62728471 -22.37449904 64.10732797 -25.4609375 61.94140625 C-27.7709375 65.90140625 -30.0809375 69.86140625 -32.4609375 73.94140625 C-38.30780969 71.60265737 -41.91131732 69.26583652 -45.4609375 63.94140625 C-46.24359639 58.23917719 -44.82132549 55.49974516 -41.6953125 51.00390625 C-40.38468887 48.81400348 -39.85129717 46.99184949 -39.3359375 44.50390625 C-39.0471875 43.32828125 -38.7584375 42.15265625 -38.4609375 40.94140625 C-36.9759375 40.44640625 -36.9759375 40.44640625 -35.4609375 39.94140625 C-34.95488826 37.54670896 -34.45594233 35.15088908 -33.9609375 32.75390625 C-33.81785156 32.08037109 -33.67476562 31.40683594 -33.52734375 30.71289062 C-32.9382245 27.83742762 -32.45078036 25.19984893 -32.56640625 22.2578125 C-32.42167113 19.07900036 -31.16552701 17.59188179 -29.2734375 15.06640625 C-28.63019531 14.20015625 -27.98695312 13.33390625 -27.32421875 12.44140625 C-26.40189453 11.20390625 -26.40189453 11.20390625 -25.4609375 9.94140625 C-24.62699152 8.65013505 -23.79357299 7.35852287 -22.9609375 6.06640625 C-17.51383782 -1.36624912 -8.51917825 -3.6645989 0 0 Z " fill="#EFD473" transform="translate(59.4609375,11.05859375)"/>
<path d="M0 0 C0.99 0 1.98 0 3 0 C2.9175 0.886875 2.835 1.77375 2.75 2.6875 C3.06266312 6.83028639 4.08797253 8.08797253 7 11 C10.63764364 13.97630004 10.63764364 13.97630004 15 15 C16.28406399 13.04775792 17.47941678 11.03659238 18.625 9 C19.57246094 7.329375 19.57246094 7.329375 20.5390625 5.625 C21.02117188 4.75875 21.50328125 3.8925 22 3 C22.68964844 3.40992187 23.37929688 3.81984375 24.08984375 4.2421875 C30.0959142 7.68599744 35.18889049 9.81075866 42 11 C42.66 11.33 43.32 11.66 44 12 C44 12.66 44 13.32 44 14 C38.25 16 38.25 16 36 16 C36.66 17.32 37.32 18.64 38 20 C36.88625 20.268125 35.7725 20.53625 34.625 20.8125 C30.78159049 21.65809019 30.78159049 21.65809019 29 25 C29.3121764 27.64632287 29.3121764 27.64632287 30 30 C30.99 30.33 31.98 30.66 33 31 C33 32.65 33 34.3 33 36 C32.01 36 31.02 36 30 36 C30 36.99 30 37.98 30 39 C26.7 39 23.4 39 20 39 C20 40.98 20 42.96 20 45 C19.67 45 19.34 45 19 45 C18.92910156 44.23300781 18.85820312 43.46601562 18.78515625 42.67578125 C18.24497741 39.87968339 18.24497741 39.87968339 15.99609375 38.41796875 C10.32619942 35.69122567 6.2955527 34.41707845 0 35 C-0.33 35.99 -0.66 36.98 -1 38 C-4.44107266 40.29404844 -5.96839809 40.26293056 -10 40 C-11 39 -11 39 -11.0625 35.875 C-10.30161387 30.62488568 -6.00928473 28.00468036 -2 25 C-2.33 24.05125 -2.66 23.1025 -3 22.125 C-4.77136065 15.89993256 -5.16638327 8.805036 -2 3 C-1.34 2.01 -0.68 1.02 0 0 Z " fill="#43617F" transform="translate(12,69)"/>
<path d="M0 0 C1.51689319 0.87234301 3.01405899 1.77999193 4.48828125 2.72265625 C6.6785288 4.15891915 6.6785288 4.15891915 10.1015625 4.81640625 C15.8237578 6.68912471 20.29554285 10.50618027 23.0390625 15.87890625 C23.2865625 16.89984375 23.2865625 16.89984375 23.5390625 17.94140625 C20.20572917 17.27473958 16.87239583 16.60807292 13.5390625 15.94140625 C14.1784375 16.49828125 14.8178125 17.05515625 15.4765625 17.62890625 C17.73587237 20.16207186 18.17055297 21.62482049 18.5390625 24.94140625 C17.5490625 24.61140625 16.5590625 24.28140625 15.5390625 23.94140625 C15.45269531 24.55628906 15.36632812 25.17117187 15.27734375 25.8046875 C14.13099926 32.39879755 14.13099926 32.39879755 11.2890625 35.00390625 C7.02079449 36.45899762 3.7953417 36.36016598 -0.4609375 34.94140625 C2.0140625 36.92140625 2.0140625 36.92140625 4.5390625 38.94140625 C1.3515625 39.31640625 1.3515625 39.31640625 -2.4609375 38.94140625 C-4.55582002 36.8941347 -5.90495031 35.32383352 -7.4609375 32.94140625 C-8.0590625 32.17828125 -8.6571875 31.41515625 -9.2734375 30.62890625 C-10.97543465 26.77701795 -10.88550161 23.09723571 -10.4609375 18.94140625 C-10.1309375 18.28140625 -9.8009375 17.62140625 -9.4609375 16.94140625 C-10.03618164 17.09988037 -10.61142578 17.25835449 -11.20410156 17.42163086 C-13.37033527 17.92053951 -15.35416433 18.14028949 -17.5703125 18.2578125 C-18.32441406 18.29970703 -19.07851563 18.34160156 -19.85546875 18.38476562 C-21.02142578 18.44374023 -21.02142578 18.44374023 -22.2109375 18.50390625 C-23.00371094 18.54708984 -23.79648437 18.59027344 -24.61328125 18.63476562 C-26.56231565 18.74043616 -28.51160498 18.84138591 -30.4609375 18.94140625 C-28.81841688 14.46042834 -26.56501537 11.57544864 -23.4609375 7.94140625 C-23.0071875 7.07515625 -22.5534375 6.20890625 -22.0859375 5.31640625 C-17.15810404 -1.88581189 -7.77819524 -3.34585859 0 0 Z " fill="#F3D773" transform="translate(59.4609375,11.05859375)"/>
<path d="M0 0 C1.4540625 0.0309375 1.4540625 0.0309375 2.9375 0.0625 C2.9375 1.0525 2.9375 2.0425 2.9375 3.0625 C6.4025 2.5675 6.4025 2.5675 9.9375 2.0625 C9.6075 13.2825 9.2775 24.5025 8.9375 36.0625 C7.6175 36.0625 6.2975 36.0625 4.9375 36.0625 C3.2928326 38.52576712 3.2928326 38.52576712 1.9375 41.0625 C1.2775 41.0625 0.6175 41.0625 -0.0625 41.0625 C-0.51625 40.5675 -0.97 40.0725 -1.4375 39.5625 C-3.18378967 37.61031326 -3.18378967 37.61031326 -7.0625 38.0625 C-8.51171875 36.63671875 -8.51171875 36.63671875 -9.75 34.75 C-10.16636719 34.13511719 -10.58273438 33.52023438 -11.01171875 32.88671875 C-14.38245407 27.03492175 -13.59129276 20.30386888 -11.9375 14 C-10.14661972 8.48959914 -6.37585739 0.13011954 0 0 Z " fill="#EEC649" transform="translate(68.0625,82.9375)"/>
<path d="M0 0 C2.47265625 0.2578125 2.47265625 0.2578125 4.09765625 2.0859375 C4.77828125 3.28476562 4.77828125 3.28476562 5.47265625 4.5078125 C8.15714417 8.90815868 10.79331536 11.91814206 15.47265625 14.2578125 C18.35635958 14.32976119 21.21505289 14.35072958 24.09765625 14.3203125 C24.89945313 14.31580078 25.70125 14.31128906 26.52734375 14.30664062 C28.50914631 14.29484418 30.49091058 14.27690855 32.47265625 14.2578125 C32.96765625 16.2378125 32.96765625 16.2378125 33.47265625 18.2578125 C27.34873883 22.65207385 20.71942616 22.10063517 13.47265625 21.2578125 C9.97896286 19.93909206 7.55693174 18.42221636 4.47265625 16.2578125 C2.16265625 20.2178125 -0.14734375 24.1778125 -2.52734375 28.2578125 C-8.37421594 25.91906362 -11.97772357 23.58224277 -15.52734375 18.2578125 C-16.51112848 12.23213102 -14.49117951 8.25871251 -11.30859375 3.3046875 C-9.52734375 1.2578125 -9.52734375 1.2578125 -5.96484375 0.1328125 C-2.67454911 0.33137857 -2.67454911 0.33137857 0 0 Z " fill="#F2D46A" transform="translate(29.52734375,56.7421875)"/>
<path d="M0 0 C5.27749285 0.53851968 9.25645564 1.77343836 14 4 C14 4.66 14 5.32 14 6 C16.475 6.495 16.475 6.495 19 7 C17.63439827 11.36992554 15.23951393 14.49761366 12.4375 18.03515625 C10.94436775 19.95568083 10.94436775 19.95568083 9.953125 22.13671875 C8.53113241 24.91659772 6.80675873 25.72420058 4 27 C-0.74292507 27.51553533 -4.53102573 26.43007176 -9 25 C-9.495 26.485 -9.495 26.485 -10 28 C-10.33 27.67 -10.66 27.34 -11 27 C-12.03125 27.144375 -13.0625 27.28875 -14.125 27.4375 C-18.48956621 26.9447264 -19.01380492 26.44563034 -21.8125 23.3125 C-25.32924798 18.84165671 -27 15.76907364 -27 10 C-31.95 10 -36.9 10 -42 10 C-42 4 -42 4 -41 3 C-38.41242474 2.78732258 -35.84206806 2.6232145 -33.25 2.5 C-28.76138639 2.28202776 -24.38978041 2.036956 -20 1 C-20.33 1.99 -20.66 2.98 -21 4 C-21.8857563 9.58362832 -21.2228225 13.26707683 -18.0625 18 C-16.15673768 20.60759956 -16.15673768 20.60759956 -14 23 C-12.33382885 23.04063832 -10.66611905 23.042721 -9 23 C-10.32 22.01 -11.64 21.02 -13 20 C-12.67 19.34 -12.34 18.68 -12 18 C-11.01 18.66 -10.02 19.32 -9 20 C-6.70285813 20.02639829 -6.70285813 20.02639829 -4.3125 19.625 C-3.50425781 19.51414062 -2.69601563 19.40328125 -1.86328125 19.2890625 C-1.24839844 19.19367187 -0.63351563 19.09828125 0 19 C1.61064629 15.34920174 2.44894091 11.9492568 3 8 C3.99 8 4.98 8 6 8 C4.26440562 4.942048 2.61527381 2.36620011 0 0 Z " fill="#B3A58E" transform="translate(71,26)"/>
<path d="M0 0 C0.66 0 1.32 0 2 0 C2.061875 0.7425 2.12375 1.485 2.1875 2.25 C3.24866383 5.84163143 5.06166338 6.77833085 8 9 C10.77888352 13.47868169 10.58659053 17.88933004 10 23 C8.2995525 29.50227934 5.28825227 35.67685377 0 40 C-2.1875 40.68359375 -2.1875 40.68359375 -4 41 C-4.33 39.68 -4.66 38.36 -5 37 C-5.66 37 -6.32 37 -7 37 C-9.08529482 30.69172119 -6.28301555 26.24232371 -3.5625 20.625 C-3.12873047 19.69816406 -2.69496094 18.77132812 -2.24804688 17.81640625 C-1.17901662 15.53737471 -0.09616805 13.2660708 1 11 C-1.14499914 13.14499914 -2.2234348 16.34989862 -3.5625 19.0625 C-4.0565332 20.05733398 -4.0565332 20.05733398 -4.56054688 21.07226562 C-5.3754871 22.71395681 -6.18797359 24.35686561 -7 26 C-7.66 26 -8.32 26 -9 26 C-10.50660662 27.56247728 -10.50660662 27.56247728 -12 29.5 C-13.5625 31.46875 -13.5625 31.46875 -15 33 C-15.66 33 -16.32 33 -17 33 C-16.66743498 26.10165137 -13.66033704 21.23003104 -10.1875 15.375 C-9.65318359 14.446875 -9.11886719 13.51875 -8.56835938 12.5625 C-3.29822244 3.51316278 -3.29822244 3.51316278 0 0 Z " fill="#F3D250" transform="translate(114,26)"/>
<path d="M0 0 C1.20628008 2.33214148 2.1654738 4.49642139 3 7 C3.99 7 4.98 7 6 7 C6.433125 7.45375 6.86625 7.9075 7.3125 8.375 C10.29759273 11.24953374 13.8199048 11.94869151 17.875 12.125 C18.926875 12.063125 18.926875 12.063125 20 12 C18.824375 11.62875 18.824375 11.62875 17.625 11.25 C15 10 15 10 13.6875 8.0625 C13 6 13 6 13 3 C14.99954746 2.95745644 17.00041636 2.95919217 19 3 C19.33 3.33 19.66 3.66 20 4 C20.33 3.34 20.66 2.68 21 2 C21.88042969 2.10699219 22.76085937 2.21398438 23.66796875 2.32421875 C25.41013672 2.50404297 25.41013672 2.50404297 27.1875 2.6875 C28.33605469 2.81511719 29.48460938 2.94273438 30.66796875 3.07421875 C34.38478183 2.99142924 36.04010104 2.16836289 39 0 C37.63016497 3.16115776 37.0109362 3.9927092 34 6 C33.27617533 8.05925139 33.27617533 8.05925139 33 10 C34.32 10.33 35.64 10.66 37 11 C36.48938633 14.77854114 35.84066479 16.48710423 33 19 C32.484375 19.721875 31.96875 20.44375 31.4375 21.1875 C30.963125 21.785625 30.48875 22.38375 30 23 C29.34 23 28.68 23 28 23 C27.71125 23.721875 27.4225 24.44375 27.125 25.1875 C26.75375 26.115625 26.3825 27.04375 26 28 C25.7525 28.9075 25.505 29.815 25.25 30.75 C24.8375 31.4925 24.425 32.235 24 33 C21.0625 33.6875 21.0625 33.6875 18 34 C14.75150023 35.72226496 14.75150023 35.72226496 14 39 C12.02 39 10.04 39 8 39 C7.34 37.35 6.68 35.7 6 34 C6.8353125 34.2784375 6.8353125 34.2784375 7.6875 34.5625 C10.399133 35.07551165 12.34371039 34.6640724 15 34 C15 33.34 15 32.68 15 32 C11.37 31.34 7.74 30.68 4 30 C4 29.67 4 29.34 4 29 C4.89203125 28.95101562 5.7840625 28.90203125 6.703125 28.8515625 C7.87359375 28.77679688 9.0440625 28.70203125 10.25 28.625 C11.99023438 28.52058594 11.99023438 28.52058594 13.765625 28.4140625 C16.70694334 28.03751692 18.49949011 27.5225877 21 26 C20.67 24.02 20.34 22.04 20 20 C20.66 19.67 21.32 19.34 22 19 C22 18.34 22 17.68 22 17 C21.05125 17.103125 20.1025 17.20625 19.125 17.3125 C12.75005642 17.3125 6.99899785 13.85272972 2.4375 9.625 C0.67894533 6.41372626 0.28449502 3.62731146 0 0 Z " fill="#29291D" transform="translate(41,49)"/>
<path d="M0 0 C1.875 0.3125 1.875 0.3125 4 1 C6 4 6 4 5.625 6.1875 C5.41875 6.785625 5.2125 7.38375 5 8 C4.505 7.01 4.505 7.01 4 6 C-0.60562023 10.09388465 -3.25156562 14.58704716 -6.125 20 C-6.98111661 21.58368717 -7.83787045 23.16703006 -8.6953125 24.75 C-9.09226318 25.48968018 -9.48921387 26.22936035 -9.89819336 26.99145508 C-10.80739151 28.64888322 -11.77692799 30.2730594 -12.76171875 31.88671875 C-14.14782075 34.25227454 -14.61438063 36.30066444 -15 39 C-11.51250686 36.21000549 -8.49842779 33.74764169 -6 30 C-5.67 30.33 -5.34 30.66 -5 31 C-2.36 25.06 0.28 19.12 3 13 C4.083385 17.33354 3.97246682 17.7991856 2.12890625 21.5546875 C1.71962891 22.41707031 1.31035156 23.27945313 0.88867188 24.16796875 C0.2322168 25.50794922 0.2322168 25.50794922 -0.4375 26.875 C-4.41770892 34.54010319 -4.41770892 34.54010319 -5 43 C-4.34 43 -3.68 43 -3 43 C-2.67 44.32 -2.34 45.64 -2 47 C-2.66 47 -3.32 47 -4 47 C-4 46.34 -4 45.68 -4 45 C-5.32 44.67 -6.64 44.34 -8 44 C-9.05530953 47.48252144 -8.99735419 49.00837841 -7.875 52.5625 C-7 56 -7 56 -8.1875 58.4375 C-10 60 -10 60 -13 60 C-13.33 60.99 -13.66 61.98 -14 63 C-14.66 61.68 -15.32 60.36 -16 59 C-16.66 59 -17.32 59 -18 59 C-18.25 53.375 -18.25 53.375 -16 50 C-15.83286431 47.37468476 -15.83286431 47.37468476 -16 45 C-16.66 44.67 -17.32 44.34 -18 44 C-18 41.03 -18 38.06 -18 35 C-19.0828125 34.814375 -19.0828125 34.814375 -20.1875 34.625 C-22.95721894 34.0095069 -25.3970354 33.11555626 -28 32 C-27.25363281 31.45859375 -26.50726563 30.9171875 -25.73828125 30.359375 C-22.84169213 27.86359779 -21.16458594 25.50637684 -19.1875 22.25 C-18.58292969 21.26515625 -17.97835937 20.2803125 -17.35546875 19.265625 C-16.90816406 18.51796875 -16.46085937 17.7703125 -16 17 C-15.67 17.66 -15.34 18.32 -15 19 C-15.7115625 20.11375 -15.7115625 20.11375 -16.4375 21.25 C-18.24858213 24.43750454 -18.25153693 26.39463735 -18 30 C-17.59652344 29.14921875 -17.19304687 28.2984375 -16.77734375 27.421875 C-14.92641214 23.85832315 -12.83537044 20.55116407 -10.5625 17.25 C-10.18029297 16.67378906 -9.79808594 16.09757812 -9.40429688 15.50390625 C-7.27530293 12.4025874 -5.59968113 10.27915776 -2 9 C-2.33 7.68 -2.66 6.36 -3 5 C-2.01 4.67 -1.02 4.34 0 4 C0 2.68 0 1.36 0 0 Z " fill="#BB8F2C" transform="translate(112,20)"/>
<path d="M0 0 C5.00717846 0.22759902 8.09536359 1.94419759 12 5 C14.25 7.625 14.25 7.625 16 10 C16.66 10.66 17.32 11.32 18 12 C18.58265625 11.62746094 19.1653125 11.25492188 19.765625 10.87109375 C26.60371528 6.92521461 32.28023747 6.00780322 40 8 C42.3515625 9.5625 42.3515625 9.5625 44 11 C44 10.34 44 9.68 44 9 C44.66 9 45.32 9 46 9 C45 12 45 12 43 13 C43 14.32 43 15.64 43 17 C42.4225 17.21398437 41.845 17.42796875 41.25 17.6484375 C34.41795908 21.75240652 30.26877179 31.91766112 27 39 C26.67 39 26.34 39 26 39 C24.66318264 30.47778936 29.40576876 24.72726718 34 18 C33.34 18 32.68 18 32 18 C32 18.66 32 19.32 32 20 C30.68 20.33 29.36 20.66 28 21 C28 21.99 28 22.98 28 24 C27.01 24 26.02 24 25 24 C24.87625 24.78375 24.7525 25.5675 24.625 26.375 C24 29 24 29 22 31 C21.01 31 20.02 31 19 31 C19 31.99 19 32.98 19 34 C18.01 34 17.02 34 16 34 C15.67 35.32 15.34 36.64 15 38 C14.34 37.67 13.68 37.34 13 37 C15.36150111 30.61005581 18.98128888 25.47205322 23 20 C22.24589844 19.93296875 21.49179688 19.8659375 20.71484375 19.796875 C17.16121 18.75379402 16.48192332 17.36158312 14.5625 14.25 C10.03534992 7.40549664 6.1299958 3.78859908 -2 2 C-1.34 1.34 -0.68 0.68 0 0 Z " fill="#F0CC59" transform="translate(67,13)"/>
<path d="M0 0 C-1.32 0.33 -2.64 0.66 -4 1 C-2.94021067 2.28612676 -2.94021067 2.28612676 -0.49609375 2.09765625 C0.51324219 2.08605469 1.52257812 2.07445312 2.5625 2.0625 C3.57441406 2.05347656 4.58632812 2.04445313 5.62890625 2.03515625 C6.41136719 2.02355469 7.19382812 2.01195312 8 2 C8 2.33 8 2.66 8 3 C7.33613281 3.02578125 6.67226562 3.0515625 5.98828125 3.078125 C0.5578458 3.42694129 -3.20043247 3.69382347 -7 8 C-7 8.99 -7 9.98 -7 11 C-5.68 9.68 -4.36 8.36 -3 7 C-2.67 7.99 -2.34 8.98 -2 10 C-2.33 10.33 -2.66 10.66 -3 11 C-1.68 11 -0.36 11 1 11 C1 9.68 1 8.36 1 7 C3.31 7 5.62 7 8 7 C8.12375 7.804375 8.2475 8.60875 8.375 9.4375 C8.58125 10.283125 8.7875 11.12875 9 12 C9.66 12.33 10.32 12.66 11 13 C11.28330167 16.70810411 11.43113797 20.29985385 11 24 C8.29906773 26.78037146 6.692018 26.94463856 2.875 27.25 C-0 27 -0 27 -3 26 C-0.525 27.98 -0.525 27.98 2 30 C-1.1875 30.375 -1.1875 30.375 -5 30 C-7.09488252 27.95272845 -8.44401281 26.38242727 -10 24 C-10.598125 23.236875 -11.19625 22.47375 -11.8125 21.6875 C-13.53645627 17.78591476 -13.2122155 14.19715105 -13 10 C-13 9.01 -13 8.02 -13 7 C-12.00938468 3.83003098 -11.06008932 3.03738891 -8.1875 1.25 C-5.13441107 0.05271022 -3.22691821 -0.28472808 0 0 Z " fill="#E3C781" transform="translate(62,20)"/>
<path d="M0 0 C0.99 0 1.98 0 3 0 C2.9175 0.886875 2.835 1.77375 2.75 2.6875 C3.06732591 6.89206825 3.99455174 8.06968795 7 11 C9.59358213 12.80164865 12.25756954 14.43574962 15 16 C13.1875 18 13.1875 18 11 20 C10.01 20 9.02 20 8 20 C8 19.01 8 18.02 8 17 C6.02 18.32 4.04 19.64 2 21 C3.98 21.66 5.96 22.32 8 23 C8 23.33 8 23.66 8 24 C6.35 24 4.7 24 3 24 C3.66 24.94875 4.32 25.8975 5 26.875 C7 30 7 30 7 32 C7.61875 32.0825 8.2375 32.165 8.875 32.25 C11 33 11 33 12.25 35.0625 C12.4975 35.701875 12.745 36.34125 13 37 C12.34 36.67 11.68 36.34 11 36 C7.13938967 34.71312989 4.05849717 34.86242382 0 35 C-0.33 35.99 -0.66 36.98 -1 38 C-4.44107266 40.29404844 -5.96839809 40.26293056 -10 40 C-11 39 -11 39 -11.0625 35.875 C-10.30161387 30.62488568 -6.00928473 28.00468036 -2 25 C-2.33 24.05125 -2.66 23.1025 -3 22.125 C-4.77136065 15.89993256 -5.16638327 8.805036 -2 3 C-1.34 2.01 -0.68 1.02 0 0 Z " fill="#86A5BF" transform="translate(12,69)"/>
<path d="M0 0 C4.39660094 0.03975227 8.22072941 0.9827084 12.4375 2.1875 C12.4375 5.1575 12.4375 8.1275 12.4375 11.1875 C7.8175 11.1875 3.1975 11.1875 -1.5625 11.1875 C-1.2325 23.7275 -0.9025 36.2675 -0.5625 49.1875 C0.9225 48.6925 0.9225 48.6925 2.4375 48.1875 C3.47297047 45.16467357 3.47297047 45.16467357 4.125 41.625 C4.37636719 40.42746094 4.62773438 39.22992188 4.88671875 37.99609375 C5.06847656 37.06925781 5.25023438 36.14242187 5.4375 35.1875 C5.7675 35.1875 6.0975 35.1875 6.4375 35.1875 C7.29681737 46.98879193 7.29681737 46.98879193 4.375 50.875 C0.95869245 53.5644336 -1.26392445 54.01892841 -5.5625 54.1875 C-6.2225 52.8675 -6.8825 51.5475 -7.5625 50.1875 C-6.5725 49.6925 -6.5725 49.6925 -5.5625 49.1875 C-5.53744385 48.40624756 -5.5123877 47.62499512 -5.48657227 46.82006836 C-5.36999797 43.25490383 -5.24755135 39.68996387 -5.125 36.125 C-5.08568359 34.89587891 -5.04636719 33.66675781 -5.00585938 32.40039062 C-4.80244142 26.59515506 -4.57473898 20.9121793 -3.5625 15.1875 C-5.8725 15.5175 -8.1825 15.8475 -10.5625 16.1875 C-10.5625 15.1975 -10.5625 14.2075 -10.5625 13.1875 C-11.8825 12.8575 -13.2025 12.5275 -14.5625 12.1875 C-10.5625 10.1875 -10.5625 10.1875 -6.5625 8.1875 C-6.5625 8.8475 -6.5625 9.5075 -6.5625 10.1875 C-5.9025 10.1875 -5.2425 10.1875 -4.5625 10.1875 C-4.57410156 9.54941406 -4.58570312 8.91132812 -4.59765625 8.25390625 C-4.60667969 7.42761719 -4.61570312 6.60132812 -4.625 5.75 C-4.63660156 4.92628906 -4.64820312 4.10257812 -4.66015625 3.25390625 C-4.49076379 -0.33043823 -3.72463801 0.19603358 0 0 Z " fill="#805816" transform="translate(81.5625,69.8125)"/>
<path d="M0 0 C6.04789876 1.98526626 8.11370306 5.5278973 11 11 C13.61274333 17.2062703 15.84698818 23.22409459 15 30 C14 32.4375 14 32.4375 13 34 C12.01 34 11.02 34 10 34 C9.67 34.99 9.34 35.98 9 37 C8.01 37 7.02 37 6 37 C5.80365967 36.33468262 5.60731934 35.66936523 5.4050293 34.98388672 C4.50493957 31.94585246 3.596303 28.91043859 2.6875 25.875 C2.37876953 24.82828125 2.07003906 23.7815625 1.75195312 22.703125 C0.19489737 17.52386586 -1.47551053 12.80268728 -4 8 C-4.1875 5.125 -4.1875 5.125 -4 3 C-2.68 2.67 -1.36 2.34 0 2 C0 1.34 0 0.68 0 0 Z " fill="#F3CD4B" transform="translate(99,84)"/>
<path d="M0 0 C0.94875 0.04125 1.8975 0.0825 2.875 0.125 C2.875 1.115 2.875 2.105 2.875 3.125 C6.34 2.63 6.34 2.63 9.875 2.125 C9.545 13.345 9.215 24.565 8.875 36.125 C7.555 36.125 6.235 36.125 4.875 36.125 C3.2303326 38.58826712 3.2303326 38.58826712 1.875 41.125 C1.215 41.125 0.555 41.125 -0.125 41.125 C-1.71662079 35.55432723 -2.33174944 30.91398419 -2.125 25.125 C-1.83625 25.723125 -1.5475 26.32125 -1.25 26.9375 C-0.07757974 29.31827792 -0.07757974 29.31827792 1.875 32.125 C2.205 29.815 2.535 27.505 2.875 25.125 C3.535 25.125 4.195 25.125 4.875 25.125 C4.8440625 23.4234375 4.8440625 23.4234375 4.8125 21.6875 C4.875 18.125 4.875 18.125 5.875 17.125 C5.78515699 15.26727838 5.62888139 13.41252015 5.4375 11.5625 C5.33566406 10.55058594 5.23382813 9.53867188 5.12890625 8.49609375 C5.00322266 7.32240234 5.00322266 7.32240234 4.875 6.125 C1.36494665 7.7630249 -1.58043849 9.15634491 -4.125 12.125 C-3.49740135 9.19620629 -2.53877341 6.76404371 -1.125 4.125 C-4.38765612 6.30010408 -4.86436409 7.25449953 -6.3125 10.75 C-6.65667969 11.56726563 -7.00085937 12.38453125 -7.35546875 13.2265625 C-7.60941406 13.85304688 -7.86335938 14.47953125 -8.125 15.125 C-8.785 15.125 -9.445 15.125 -10.125 15.125 C-10.785 16.115 -11.445 17.105 -12.125 18.125 C-11.83626798 11.33979744 -7.71531036 0.30861241 0 0 Z " fill="#E6BA3E" transform="translate(68.125,82.875)"/>
<path d="M0 0 C0.99 0.33 1.98 0.66 3 1 C2.67 1.66 2.34 2.32 2 3 C1.08004614 8.50807819 1.77146142 12.27086535 4.875 16.9375 C7.60077044 20.67062038 9.35566893 23.07113379 14 24 C13.505 25.485 13.505 25.485 13 27 C12.67 26.67 12.34 26.34 12 26 C10.96875 26.144375 9.9375 26.28875 8.875 26.4375 C4.51043379 25.9447264 3.98619508 25.44563034 1.1875 22.3125 C-2.32924798 17.84165671 -4 14.76907364 -4 9 C-8.95 9 -13.9 9 -19 9 C-19 3 -19 3 -18 2 C-15.35015201 1.78871644 -12.71660103 1.62387334 -10.0625 1.5 C-4.87297382 1.45708764 -4.87297382 1.45708764 0 0 Z " fill="#AD966E" transform="translate(48,27)"/>
<path d="M0 0 C1.9375 0.375 1.9375 0.375 4 1 C6.20802772 5.41605544 5.52327911 10.98163771 4.31640625 15.63671875 C2.28948449 21.12875158 -0.39909992 26.23876418 -5 30 C-7.1875 30.68359375 -7.1875 30.68359375 -9 31 C-9.33 29.68 -9.66 28.36 -10 27 C-10.66 27 -11.32 27 -12 27 C-14.08529482 20.69172119 -11.28301555 16.24232371 -8.5625 10.625 C-8.12873047 9.69816406 -7.69496094 8.77132812 -7.24804688 7.81640625 C-6.17901662 5.53737471 -5.09616805 3.2660708 -4 1 C-2.52395152 5.54246069 -4.14409112 8.75350354 -5.875 13 C-6.43675502 14.41593047 -6.99670938 15.83257691 -7.5546875 17.25 C-7.80718262 17.87390625 -8.05967773 18.4978125 -8.31982422 19.140625 C-9.02641867 21.07221989 -9.53541669 22.99769579 -10 25 C-9.34 25 -8.68 25 -8 25 C-7.773125 24.360625 -7.54625 23.72125 -7.3125 23.0625 C-6 20 -6 20 -4.7890625 18.05078125 C-1.0726542 12.06800836 -0.14407371 7.00722139 0 0 Z " fill="#E9BF43" transform="translate(119,36)"/>
<path d="M0 0 C1.41750563 0.11509661 2.83401169 0.24253658 4.25 0.375 C5.03890625 0.44460937 5.8278125 0.51421875 6.640625 0.5859375 C9.085877 1.01507113 10.84836903 1.78600638 13 3 C13 3.66 13 4.32 13 5 C7.25 7 7.25 7 5 7 C5.66 8.32 6.32 9.64 7 11 C5.88625 11.268125 4.7725 11.53625 3.625 11.8125 C-0.21840951 12.65809019 -0.21840951 12.65809019 -2 16 C-1.6878236 18.64632287 -1.6878236 18.64632287 -1 21 C-0.01 21.33 0.98 21.66 2 22 C2 23.65 2 25.3 2 27 C1.01 27 0.02 27 -1 27 C-1 27.99 -1 28.98 -1 30 C-4.3 30 -7.6 30 -11 30 C-11 31.98 -11 33.96 -11 36 C-11.33 36 -11.66 36 -12 36 C-12.33 33.69 -12.66 31.38 -13 29 C-11.35 28.34 -9.7 27.68 -8 27 C-8.66 25.68 -9.32 24.36 -10 23 C-8.68 22.67 -7.36 22.34 -6 22 C-6.33 21.01 -6.66 20.02 -7 19 C-7.99 19.33 -8.98 19.66 -10 20 C-8.880462 17.48103951 -7.68018448 15.60265345 -5.9375 13.4375 C-3.83615651 11.07973981 -3.83615651 11.07973981 -3 8 C-2.34 8 -1.68 8 -1 8 C-0.67 5.36 -0.34 2.72 0 0 Z " fill="#38526C" transform="translate(43,78)"/>
<path d="M0 0 C1.875 0.0625 1.875 0.0625 4 1 C7.22321294 6.00261379 7.43233872 10.13232839 7.3125 15.875 C7.31572266 16.63941406 7.31894531 17.40382813 7.32226562 18.19140625 C7.26238432 24.60414968 6.63338984 30.54991524 3 36 C2.01 36 1.02 36 0 36 C-2.12700428 28.61804397 -2.12700428 28.61804397 -1.52514648 25.68920898 C-0.99057374 22.95172929 -0.90116173 20.51929955 -0.9375 17.734375 C-0.94523437 16.76242188 -0.95296875 15.79046875 -0.9609375 14.7890625 C-0.97382812 13.78617188 -0.98671875 12.78328125 -1 11.75 C-1.02538172 9.74484408 -1.04645798 7.73962739 -1.0625 5.734375 C-1.07410156 4.84975586 -1.08570312 3.96513672 -1.09765625 3.05371094 C-1 1 -1 1 0 0 Z " fill="#F1CD4D" transform="translate(89,89)"/>
<path d="M0 0 C1.45880109 0.14107747 2.91703551 0.28802415 4.375 0.4375 C5.18710938 0.51871094 5.99921875 0.59992187 6.8359375 0.68359375 C9 1 9 1 11 2 C11 1.34 11 0.68 11 0 C11.66 0 12.32 0 13 0 C12 3 12 3 10 4 C10 5.32 10 6.64 10 8 C9.4225 8.21398438 8.845 8.42796875 8.25 8.6484375 C1.41795908 12.75240652 -2.73122821 22.91766112 -6 30 C-6.33 30 -6.66 30 -7 30 C-8.33681736 21.47778936 -3.59423124 15.72726718 1 9 C0.34 9 -0.32 9 -1 9 C-1 9.66 -1 10.32 -1 11 C-2.32 11.33 -3.64 11.66 -5 12 C-5 12.99 -5 13.98 -5 15 C-5.99 15 -6.98 15 -8 15 C-8.12375 15.78375 -8.2475 16.5675 -8.375 17.375 C-9 20 -9 20 -11 22 C-11.99 22 -12.98 22 -14 22 C-14 22.99 -14 23.98 -14 25 C-14.99 25 -15.98 25 -17 25 C-17.33 26.32 -17.66 27.64 -18 29 C-18.66 28.67 -19.32 28.34 -20 28 C-16.88167053 20.12993039 -16.88167053 20.12993039 -14 18 C-13.34 18 -12.68 18 -12 18 C-10.61096733 16.37946188 -9.28667172 14.70294787 -8 13 C-6.71332828 11.29705213 -5.38903267 9.62053812 -4 8 C-3.34 8 -2.68 8 -2 8 C-1.67 7.01 -1.34 6.02 -1 5 C-0.34 4.67 0.32 4.34 1 4 C0.34 3.67 -0.32 3.34 -1 3 C-0.67 2.01 -0.34 1.02 0 0 Z " fill="#ECC242" transform="translate(100,22)"/>
<path d="M0 0 C1.32 0 2.64 0 4 0 C6.47379791 6.28874366 7.47398594 11.75795742 7.375 18.5 C7.38660156 19.29019531 7.39820312 20.08039063 7.41015625 20.89453125 C7.3815117 26.72847146 6.13016698 31.5848147 4 37 C3.01 37 2.02 37 1 37 C0.07191062 28.74973532 -0.1230629 20.6096172 -0.0625 12.3125 C-0.05798828 11.12205078 -0.05347656 9.93160156 -0.04882812 8.70507812 C-0.03717452 5.80333064 -0.02081559 2.90169374 0 0 Z " fill="#F8E05E" transform="translate(80,82)"/>
<path d="M0 0 C0.98484375 0.00902344 1.9696875 0.01804687 2.984375 0.02734375 C4.10585937 0.04474609 4.10585937 0.04474609 5.25 0.0625 C5.25 0.7225 5.25 1.3825 5.25 2.0625 C5.848125 2.145 6.44625 2.2275 7.0625 2.3125 C9.8737843 3.2763689 10.57695977 4.66205097 12.25 7.0625 C13.24 7.7225 14.23 8.3825 15.25 9.0625 C11.91666667 8.39583333 8.58333333 7.72916667 5.25 7.0625 C5.889375 7.619375 6.52875 8.17625 7.1875 8.75 C9.44680987 11.28316561 9.88149047 12.74591424 10.25 16.0625 C9.26 15.7325 8.27 15.4025 7.25 15.0625 C6.92 16.7125 6.59 18.3625 6.25 20.0625 C5.92 20.0625 5.59 20.0625 5.25 20.0625 C5.25 17.7525 5.25 15.4425 5.25 13.0625 C4.26 12.7325 3.27 12.4025 2.25 12.0625 C2.25 10.4125 2.25 8.7625 2.25 7.0625 C-0.06 7.0625 -2.37 7.0625 -4.75 7.0625 C-4.42 8.7125 -4.09 10.3625 -3.75 12.0625 C-6.06 12.0625 -8.37 12.0625 -10.75 12.0625 C-10.09 10.7425 -9.43 9.4225 -8.75 8.0625 C-9.41 8.0625 -10.07 8.0625 -10.75 8.0625 C-11.41 9.3825 -12.07 10.7025 -12.75 12.0625 C-13.5625 10.375 -13.5625 10.375 -13.75 8.0625 C-11.3125 5.3125 -11.3125 5.3125 -8.75 3.0625 C-9.08 2.4025 -9.41 1.7425 -9.75 1.0625 C-6.43929162 0.06140485 -3.44915231 -0.04106134 0 0 Z " fill="#A0A09A" transform="translate(67.75,19.9375)"/>
<path d="M0 0 C0.66 0 1.32 0 2 0 C1.67 0.721875 1.34 1.44375 1 2.1875 C-0.13260799 4.8754619 -0.13260799 4.8754619 0 7.375 C0 10.13133179 -0.67204185 12.27591044 -1.48828125 14.88671875 C-2.52635505 19.17372582 -2.69831801 23.6097331 -3 28 C-2.01 28.33 -1.02 28.66 0 29 C0 30.65 0 32.3 0 34 C-4 34 -4 34 -5.44921875 32.57421875 C-5.85785156 31.95160156 -6.26648437 31.32898438 -6.6875 30.6875 C-7.10386719 30.07261719 -7.52023438 29.45773438 -7.94921875 28.82421875 C-10.49037476 24.41262076 -10.50486772 19.94770364 -10 15 C-8.5 11.4375 -8.5 11.4375 -7 9 C-6.34 9.33 -5.68 9.66 -5 10 C-4.58427734 9.04287109 -4.58427734 9.04287109 -4.16015625 8.06640625 C-3.79792969 7.24011719 -3.43570313 6.41382812 -3.0625 5.5625 C-2.70285156 4.73878906 -2.34320313 3.91507812 -1.97265625 3.06640625 C-1 1 -1 1 0 0 Z " fill="#EEC54A" transform="translate(65,87)"/>
<path d="M0 0 C-1.32 0.33 -2.64 0.66 -4 1 C-2.94021067 2.28612676 -2.94021067 2.28612676 -0.49609375 2.09765625 C0.51324219 2.08605469 1.52257812 2.07445312 2.5625 2.0625 C3.57441406 2.05347656 4.58632812 2.04445313 5.62890625 2.03515625 C6.41136719 2.02355469 7.19382812 2.01195312 8 2 C8 2.33 8 2.66 8 3 C7.33613281 3.02578125 6.67226562 3.0515625 5.98828125 3.078125 C0.54250536 3.42792666 -3.18951798 3.69784288 -7 8 C-7.86965506 10.12946603 -7.86965506 10.12946603 -8 12 C-7.34 12 -6.68 12 -6 12 C-6.04640625 12.58007812 -6.0928125 13.16015625 -6.140625 13.7578125 C-6.40221072 19.41927486 -5.82819378 22.53377393 -2 27 C0.10575643 28.83300909 0.10575643 28.83300909 2 30 C-1.1875 30.375 -1.1875 30.375 -5 30 C-7.09488252 27.95272845 -8.44401281 26.38242727 -10 24 C-10.598125 23.236875 -11.19625 22.47375 -11.8125 21.6875 C-13.53645627 17.78591476 -13.2122155 14.19715105 -13 10 C-13 9.01 -13 8.02 -13 7 C-12.00938468 3.83003098 -11.06008932 3.03738891 -8.1875 1.25 C-5.13441107 0.05271022 -3.22691821 -0.28472808 0 0 Z " fill="#C7C8C4" transform="translate(62,20)"/>
<path d="M0 0 C6.04789876 1.98526626 8.11370306 5.5278973 11 11 C13.61274333 17.2062703 15.84698818 23.22409459 15 30 C14 32.4375 14 32.4375 13 34 C12.01 34 11.02 34 10 34 C9.67 34.99 9.34 35.98 9 37 C8.01 37 7.02 37 6 37 C5.67 35.68 5.34 34.36 5 33 C5.66 33 6.32 33 7 33 C7.33 32.34 7.66 31.68 8 31 C8.33 31.33 8.66 31.66 9 32 C9.56461828 22.17145957 7.99812565 13.93300489 2 6 C0 3 0 3 0 0 Z " fill="#EAC358" transform="translate(99,84)"/>
<path d="M0 0 C1.13501953 -0.03867187 1.13501953 -0.03867187 2.29296875 -0.078125 C5.77027506 0.3747335 7.87136836 1.31117507 10.8125 3.25 C12.58167417 5.61913014 13.84891764 8.15210739 15.125 10.8125 C15.47111328 11.49763672 15.81722656 12.18277344 16.17382812 12.88867188 C17.06948616 14.66776649 17.94255021 16.45819412 18.8125 18.25 C19.1425 18.91 19.4725 19.57 19.8125 20.25 C15.25298455 19.78767151 13.49153614 18.32947392 10.5625 14.875 C9.87671875 14.08351563 9.1909375 13.29203125 8.484375 12.4765625 C6.8125 10.25 6.8125 10.25 5.8125 7.25 C1.8525 7.25 -2.1075 7.25 -6.1875 7.25 C-5.1230496 0.10297587 -5.1230496 0.10297587 0 0 Z " fill="#5F7D95" transform="translate(26.1875,50.75)"/>
<path d="M0 0 C2.1519437 3.22791555 2.20086443 4.28400809 2 8 C2.99 8.33 3.98 8.66 5 9 C5 9.66 5 10.32 5 11 C5.99 11.33 6.98 11.66 8 12 C9.1875 14.0625 9.1875 14.0625 10 16 C7.71711331 18.11378397 6.60327757 19 3.4375 19 C0.23908787 17.68783092 -0.36754877 15.96809314 -2 13 C-2.99 12.67 -3.98 12.34 -5 12 C-7.25 9.1875 -7.25 9.1875 -9 6 C-8.67 4.68 -8.34 3.36 -8 2 C-5.36 1.34 -2.72 0.68 0 0 Z " fill="#4C6682" transform="translate(24,89)"/>
<path d="M0 0 C4.39660094 0.03975227 8.22072941 0.9827084 12.4375 2.1875 C12.4375 5.1575 12.4375 8.1275 12.4375 11.1875 C9.79125716 11.04728195 7.14565422 10.90060224 4.5 10.75 C3.74525391 10.71068359 2.99050781 10.67136719 2.21289062 10.63085938 C-3.44921875 10.30078125 -3.44921875 10.30078125 -4.5625 9.1875 C-4.6953125 7.375 -4.6953125 7.375 -4.6875 5.1875 C-4.69007812 4.465625 -4.69265625 3.74375 -4.6953125 3 C-4.44816377 -0.37285332 -3.49723712 0.18406511 0 0 Z " fill="#2D3027" transform="translate(81.5625,69.8125)"/>
<path d="M0 0 C1.32 0.99 2.64 1.98 4 3 C2.700625 3.4640625 2.700625 3.4640625 1.375 3.9375 C-4.45602895 7.50090658 -7.20146459 12.16475067 -9.04296875 18.703125 C-9.7810891 22.12689453 -10.43941876 25.54308236 -11 29 C-12.32 29.33 -13.64 29.66 -15 30 C-15.66 28.68 -16.32 27.36 -17 26 C-16.34 25.67 -15.68 25.34 -15 25 C-15 24.01 -15 23.02 -15 22 C-14.41183409 19.19034414 -13.78753138 16.39136459 -13.14453125 13.59375 C-12.71069701 10.95014602 -12.71069701 10.95014602 -14.44921875 9.15625 C-14.96097656 8.7746875 -15.47273438 8.393125 -16 8 C-14.35 8.33 -12.7 8.66 -11 9 C-10.938125 8.401875 -10.87625 7.80375 -10.8125 7.1875 C-10 5 -10 5 -7.6875 3.1875 C-5 2 -5 2 -2.6875 2.3125 C-1.8521875 2.6528125 -1.8521875 2.6528125 -1 3 C-0.67 2.01 -0.34 1.02 0 0 Z " fill="#0A0807" transform="translate(66,79)"/>
<path d="M0 0 C1.65 0.33 3.3 0.66 5 1 C5 3.97 5 6.94 5 10 C5.99 10.33 6.98 10.66 8 11 C7.74438677 13.3431213 7.40729228 15.67843403 7 18 C4.52386901 19.2380655 3.70391215 18.89928567 1.0625 18.25 C0.37285156 18.09015625 -0.31679687 17.9303125 -1.02734375 17.765625 C-3 17 -3 17 -6 14 C-4.02 9.38 -2.04 4.76 0 0 Z " fill="#D7AB3C" transform="translate(89,54)"/>
<path d="M0 0 C3.57849992 0.29820833 4.76226484 0.74245358 7.25 3.4375 C10.07238987 7.57028516 10.42158546 9.94097453 10 15 C7.74665796 19.33976986 5.54633071 22.09688482 1 24 C-4.25927594 24.57373919 -7.45940437 23.65790964 -12 21 C-12 20.01 -12 19.02 -12 18 C-10.515 18.99 -10.515 18.99 -9 20 C-6.70285813 20.02639829 -6.70285813 20.02639829 -4.3125 19.625 C-3.50425781 19.51414062 -2.69601563 19.40328125 -1.86328125 19.2890625 C-1.24839844 19.19367187 -0.63351563 19.09828125 0 19 C1.61064629 15.34920174 2.44894091 11.9492568 3 8 C3.99 8 4.98 8 6 8 C4.26440562 4.942048 2.61527381 2.36620011 0 0 Z " fill="#AD904F" transform="translate(71,26)"/>
<path d="M0 0 C1.875 0.3125 1.875 0.3125 4 1 C6 4 6 4 5.625 6.1875 C5.41875 6.785625 5.2125 7.38375 5 8 C4.67 7.34 4.34 6.68 4 6 C-0.59216906 10.06734974 -3.2167907 14.56385928 -6 20 C-6.66 20 -7.32 20 -8 20 C-8.39832031 20.75925781 -8.79664062 21.51851562 -9.20703125 22.30078125 C-9.73683594 23.29464844 -10.26664063 24.28851563 -10.8125 25.3125 C-11.59560547 26.79169922 -11.59560547 26.79169922 -12.39453125 28.30078125 C-13.7719876 30.61665068 -14.99530591 32.23611001 -17 34 C-17.99 33.67 -18.98 33.34 -20 33 C-20 30.69 -20 28.38 -20 26 C-19.34 27.32 -18.68 28.64 -18 30 C-17.59652344 29.14921875 -17.19304687 28.2984375 -16.77734375 27.421875 C-14.92641214 23.85832315 -12.83537044 20.55116407 -10.5625 17.25 C-10.18029297 16.67378906 -9.79808594 16.09757812 -9.40429688 15.50390625 C-7.27530293 12.4025874 -5.59968113 10.27915776 -2 9 C-2.33 7.68 -2.66 6.36 -3 5 C-2.01 4.67 -1.02 4.34 0 4 C0 2.68 0 1.36 0 0 Z " fill="#EDC144" transform="translate(112,20)"/>
<path d="M0 0 C0.66 0 1.32 0 2 0 C2.33 1.32 2.66 2.64 3 4 C3.66 4 4.32 4 5 4 C5 4.66 5 5.32 5 6 C4.360625 6.103125 3.72125 6.20625 3.0625 6.3125 C2.381875 6.539375 1.70125 6.76625 1 7 C0.67 7.99 0.34 8.98 0 10 C-1.65 10.33 -3.3 10.66 -5 11 C-5 18.26 -5 25.52 -5 33 C-5.33 33 -5.66 33 -6 33 C-6.0501123 32.410979 -6.10022461 31.82195801 -6.15185547 31.21508789 C-6.38668458 28.49698087 -6.63079109 25.77977972 -6.875 23.0625 C-6.95363281 22.13630859 -7.03226562 21.21011719 -7.11328125 20.25585938 C-7.65171874 14.35375617 -8.59429962 8.75864651 -10 3 C-11.32 2.67 -12.64 2.34 -14 2 C-12.2300132 1.80467039 -10.45895721 1.61901118 -8.6875 1.4375 C-7.70136719 1.33308594 -6.71523437 1.22867188 -5.69921875 1.12109375 C-3 1 -3 1 0 2 C0 1.34 0 0.68 0 0 Z " fill="#AA7F20" transform="translate(94,79)"/>
<path d="M0 0 C5.03846593 0.41130334 7.74129053 1.40068332 12.08984375 4.14453125 C15.58549595 5.71006874 19.25295233 5.30588144 23 5 C23.33 5.99 23.66 6.98 24 8 C23.01 8 22.02 8 21 8 C21 8.66 21 9.32 21 10 C17.57767028 11.14077657 14.91326783 11.09815117 11.3125 11.0625 C9.54326172 11.04896484 9.54326172 11.04896484 7.73828125 11.03515625 C6.38283203 11.01775391 6.38283203 11.01775391 5 11 C4.70351563 10.24332031 4.40703125 9.48664063 4.1015625 8.70703125 C2.88542557 5.71843944 1.46910863 2.87143959 0 0 Z " fill="#BD9948" transform="translate(40,61)"/>
<path d="M0 0 C2.62187494 1.04874998 3.79371361 1.64931313 5.25 4.125 C5.4975 4.74375 5.745 5.3625 6 6 C4.35 6 2.7 6 1 6 C0.731875 6.78375 0.46375 7.5675 0.1875 8.375 C-1 11 -1 11 -4 13 C-7.125 13.1875 -7.125 13.1875 -10 13 C-10.33 12.67 -10.66 12.34 -11 12 C-10.84123241 7.79265879 -10.63055822 5.66464245 -7.6875 2.5625 C-5 1 -5 1 -1 1 C-0.67 0.67 -0.34 0.34 0 0 Z " fill="#455C71" transform="translate(12,96)"/>
<path d="M0 0 C0.66 0.66 1.32 1.32 2 2 C-1.625 5 -1.625 5 -5 5 C-5 4.01 -5 3.02 -5 2 C-6.98 3.32 -8.96 4.64 -11 6 C-9.02 6.66 -7.04 7.32 -5 8 C-5 8.33 -5 8.66 -5 9 C-6.65 9 -8.3 9 -10 9 C-9.34 9.94875 -8.68 10.8975 -8 11.875 C-6 15 -6 15 -6 17 C-5.38125 17.0825 -4.7625 17.165 -4.125 17.25 C-2 18 -2 18 -0.75 20.0625 C-0.5025 20.701875 -0.255 21.34125 0 22 C-0.66 21.67 -1.32 21.34 -2 21 C-5.86061033 19.71312989 -8.94150283 19.86242382 -13 20 C-12.67 19.01 -12.34 18.02 -12 17 C-10.68 17 -9.36 17 -8 17 C-8.99 15.68 -9.98 14.36 -11 13 C-12.65 13.66 -14.3 14.32 -16 15 C-16.33 14.01 -16.66 13.02 -17 12 C-16.34 11.34 -15.68 10.68 -15 10 C-14.54625 8.865625 -14.0925 7.73125 -13.625 6.5625 C-12.03460903 3.07587364 -11.25359271 1.8301459 -8 0 C-4.67679974 -1.10773342 -3.30835256 -0.93312508 0 0 Z " fill="#70879C" transform="translate(25,84)"/>
<path d="M0 0 C0.66 0 1.32 0 2 0 C2 0.99 2 1.98 2 3 C4.64 3.33 7.28 3.66 10 4 C10 4.33 10 4.66 10 5 C7.69 5.33 5.38 5.66 3 6 C2.67 8.97 2.34 11.94 2 15 C1.34 15 0.68 15 0 15 C0 14.34 0 13.68 0 13 C-0.66 13 -1.32 13 -2 13 C-2.66 14.32 -3.32 15.64 -4 17 C-4 16.34 -4 15.68 -4 15 C-4.99 15.33 -5.98 15.66 -7 16 C-7.66 14.35 -8.32 12.7 -9 11 C-7.88625 9.948125 -7.88625 9.948125 -6.75 8.875 C-3.90808164 6.07521249 -3.90808164 6.07521249 -1.8125 2.6875 C-1.214375 1.800625 -0.61625 0.91375 0 0 Z " fill="#BA8F33" transform="translate(75,65)"/>
<path d="M0 0 C1.93166016 0.01740234 1.93166016 0.01740234 3.90234375 0.03515625 C5.19269531 0.04417969 6.48304687 0.05320312 7.8125 0.0625 C8.81152344 0.07410156 9.81054688 0.08570312 10.83984375 0.09765625 C10.50984375 2.40765625 10.17984375 4.71765625 9.83984375 7.09765625 C5.21984375 7.09765625 0.59984375 7.09765625 -4.16015625 7.09765625 C-4.16015625 0.1285586 -4.16015625 0.1285586 0 0 Z " fill="#363736" transform="translate(33.16015625,28.90234375)"/>
<path d="M0 0 C0.33 0.66 0.66 1.32 1 2 C-0.02315538 3.68325563 -1.04676973 5.36623674 -2.07421875 7.046875 C-3.48868467 10.03098031 -3.26378754 12.76860258 -3 16 C1.3029659 14.4958659 2.60553888 11.75152588 4.75 7.875 C5.36359375 6.77929688 5.9771875 5.68359375 6.609375 4.5546875 C7.06828125 3.71164063 7.5271875 2.86859375 8 2 C8.33 2.66 8.66 3.32 9 4 C7.96648844 6.0374096 6.84611893 8.03104439 5.6875 10 C2.53207748 15.53690271 0.70179888 20.65516519 0 27 C-0.66 27 -1.32 27 -2 27 C-2 24.03 -2 21.06 -2 18 C-2.721875 17.87625 -3.44375 17.7525 -4.1875 17.625 C-6.95721894 17.0095069 -9.3970354 16.11555626 -12 15 C-10.88044922 14.18789063 -10.88044922 14.18789063 -9.73828125 13.359375 C-6.84169213 10.86359779 -5.16458594 8.50637684 -3.1875 5.25 C-2.58292969 4.26515625 -1.97835937 3.2803125 -1.35546875 2.265625 C-0.90816406 1.51796875 -0.46085937 0.7703125 0 0 Z " fill="#8A631D" transform="translate(96,37)"/>
<path d="M0 0 C-1.43870348 4.05655052 -3.42394564 7.28390665 -5.875 10.8125 C-9.00745758 15.42006034 -11.66750342 19.94625741 -14 25 C-14.33 25 -14.66 25 -15 25 C-15.50065755 18.41889281 -14.46575338 15.02391679 -10.6875 9.6875 C-10.08131836 8.77774414 -10.08131836 8.77774414 -9.46289062 7.84960938 C-4.1520988 0 -4.1520988 0 0 0 Z " fill="#F6DC5C" transform="translate(108,27)"/>
<path d="M0 0 C1.66905241 3.33810482 2.8741386 6.46157845 4 10 C3.319375 10.556875 2.63875 11.11375 1.9375 11.6875 C1.298125 12.450625 0.65875 13.21375 0 14 C0.14025199 16.70705512 0.14025199 16.70705512 1 19 C-2.48133831 17.60746468 -3.47886033 16.36823784 -5 13 C-5.66 12.67 -6.32 12.34 -7 12 C-4.69 8.04 -2.38 4.08 0 0 Z " fill="#516F8A" transform="translate(34,72)"/>
<path d="M0 0 C1.20628008 2.33214148 2.1654738 4.49642139 3 7 C3.99 7 4.98 7 6 7 C6.40863281 7.44988281 6.81726562 7.89976563 7.23828125 8.36328125 C9.87372526 10.81173145 12.74336148 11.27116957 16.1875 12.1875 C17.45980469 12.53167969 18.73210938 12.87585937 20.04296875 13.23046875 C21.50669922 13.61138672 21.50669922 13.61138672 23 14 C23 13.01 23 12.02 23 11 C23.99 11.33 24.98 11.66 26 12 C25.34 13.98 24.68 15.96 24 18 C23.67 17.34 23.34 16.68 23 16 C21.0509375 16.12375 21.0509375 16.12375 19.0625 16.25 C12.51651205 16.2396751 7.2981777 14.12581437 2.5 9.6875 C0.68984967 6.444314 0.28856765 3.67923759 0 0 Z " fill="#2B110C" transform="translate(41,49)"/>
<path d="M0 0 C2.90802461 2.21928194 4.95312762 3.92969143 7 7 C7 7.99 7 8.98 7 10 C9.31 10.66 11.62 11.32 14 12 C14 12.33 14 12.66 14 13 C7.741346 13.5326514 3.54891215 11.81849506 -2 9 C-2 8.34 -2 7.68 -2 7 C-2.99 6.67 -3.98 6.34 -5 6 C-3.68 5.67 -2.36 5.34 -1 5 C-0.67 3.35 -0.34 1.7 0 0 Z " fill="#D8B34D" transform="translate(49,49)"/>
<path d="M0 0 C0.66 0 1.32 0 2 0 C0.92598892 2.91517292 0.22189824 4.77810176 -2 7 C-3.87921061 9.2818986 -5.70437839 11.52899431 -7.27734375 14.03515625 C-10.02862733 18.23448381 -11.84842505 20.40314926 -16.875 21.5 C-18.24568755 21.69904374 -19.62037547 21.87736671 -21 22 C-20.67 21.34 -20.34 20.68 -20 20 C-19.01 20 -18.02 20 -17 20 C-16.67 18.68 -16.34 17.36 -16 16 C-15.01 16 -14.02 16 -13 16 C-13 15.01 -13 14.02 -13 13 C-12.38125 12.773125 -11.7625 12.54625 -11.125 12.3125 C-8.38589791 10.62070165 -7.94975528 9.00755839 -7 6 C-6.01 6 -5.02 6 -4 6 C-4 5.01 -4 4.02 -4 3 C-2.68 2.67 -1.36 2.34 0 2 C0 1.34 0 0.68 0 0 Z " fill="#D8A933" transform="translate(99,31)"/>
<path d="M0 0 C0.33 0 0.66 0 1 0 C1 7.59 1 15.18 1 23 C-0.32 23 -1.64 23 -3 23 C-4.6446674 25.46326712 -4.6446674 25.46326712 -6 28 C-6.66 28 -7.32 28 -8 28 C-9.60725635 24.78548731 -9.05748185 21.56387464 -9 18 C-8.566875 18.495 -8.13375 18.99 -7.6875 19.5 C-6.00259517 21.33218192 -6.00259517 21.33218192 -3 21 C-2.01 14.07 -1.02 7.14 0 0 Z " fill="#B48E37" transform="translate(76,96)"/>
<path d="M0 0 C2.58988565 0.52252079 3.49806986 1.17068472 5.2265625 3.13671875 C7.02159114 6.10973493 7.92505825 8.03217061 8.2265625 11.44921875 C7.2365625 11.11921875 6.2465625 10.78921875 5.2265625 10.44921875 C4.8965625 12.09921875 4.5665625 13.74921875 4.2265625 15.44921875 C3.8965625 15.44921875 3.5665625 15.44921875 3.2265625 15.44921875 C3.2265625 13.13921875 3.2265625 10.82921875 3.2265625 8.44921875 C2.2365625 8.11921875 1.2465625 7.78921875 0.2265625 7.44921875 C0.2265625 5.79921875 0.2265625 4.14921875 0.2265625 2.44921875 C-2.0834375 2.44921875 -4.3934375 2.44921875 -6.7734375 2.44921875 C-6.4434375 4.09921875 -6.1134375 5.74921875 -5.7734375 7.44921875 C-8.0834375 7.44921875 -10.3934375 7.44921875 -12.7734375 7.44921875 C-9.46904595 1.46984356 -6.6968671 -0.14179035 0 0 Z " fill="#C39F54" transform="translate(69.7734375,24.55078125)"/>
<path d="M0 0 C1.45945288 0.08708669 2.91765868 0.19526907 4.375 0.3125 C5.59316406 0.39951172 5.59316406 0.39951172 6.8359375 0.48828125 C9 1 9 1 11 4 C11.125 6.6875 11.125 6.6875 11 9 C9.741875 9.04125 8.48375 9.0825 7.1875 9.125 C6.47980469 9.14820312 5.77210937 9.17140625 5.04296875 9.1953125 C3 9 3 9 0 7 C-0.1875 3.375 -0.1875 3.375 0 0 Z " fill="#2E322F" transform="translate(32,109)"/>
<path d="M0 0 C3.1875 1.5 3.1875 1.5 5 3 C2.16568194 4.41715903 -0.40151486 4.1931532 -3.5625 4.3125 C-9.81589954 4.69890986 -14.56857319 5.91069639 -20 9 C-19.61786268 6.58323965 -19.2770537 5.28149842 -17.5390625 3.515625 C-11.81454439 -0.26956657 -6.78481621 -1.01772243 0 0 Z " fill="#716964" transform="translate(57,10)"/>
<path d="M0 0 C0.33 0.99 0.66 1.98 1 3 C0.67 3.33 0.34 3.66 0 4 C1.32 4 2.64 4 4 4 C4 2.68 4 1.36 4 0 C6.31 0 8.62 0 11 0 C11.33 1.98 11.66 3.96 12 6 C5.565 6.495 5.565 6.495 -1 7 C-1 10.3 -1 13.6 -1 17 C-4.26456927 13.73543073 -4.43101616 13.3742569 -4.4375 9.0625 C-4.34734609 5.42982787 -4.26008728 4.34136456 -2 1.375 C-1.34 0.92125 -0.68 0.4675 0 0 Z " fill="#C0AE8A" transform="translate(59,27)"/>
<path d="M0 0 C0.66 0.66 1.32 1.32 2 2 C1.83005601 4.07331671 1.64058073 6.14693621 1.3515625 8.20703125 C0.80119453 12.57939903 0.61820319 16.97600936 0.37890625 21.375 C0.25386719 22.24125 0.12882812 23.1075 0 24 C-0.66 24.33 -1.32 24.66 -2 25 C-4.1552537 18.5342389 -4.27122623 8.90233359 -1.5 2.5625 C-1.005 1.716875 -0.51 0.87125 0 0 Z " fill="#F6DB53" transform="translate(71,91)"/>
<path d="M0 0 C0.33 0 0.66 0 1 0 C1.08184423 2.97973615 1.14089764 5.95716832 1.1875 8.9375 C1.22520508 10.18370117 1.22520508 10.18370117 1.26367188 11.45507812 C1.33425885 17.50202899 0.25464398 22.39516349 -2 28 C-2.99 28 -3.98 28 -5 28 C-5.10911227 26.43908834 -5.18609398 24.87591508 -5.25 23.3125 C-5.29640625 22.44238281 -5.3428125 21.57226562 -5.390625 20.67578125 C-5 18 -5 18 -3.03125 15.59375 C-0.48198188 12.33853071 -0.41512361 10.27430925 -0.25 6.1875 C-0.19328125 5.02605469 -0.1365625 3.86460938 -0.078125 2.66796875 C-0.05234375 1.78753906 -0.0265625 0.90710938 0 0 Z " fill="#D9B041" transform="translate(86,91)"/>
<path d="M0 0 C0.66 0 1.32 0 2 0 C2.55353075 10.55808656 2.55353075 10.55808656 -1 15 C-2.65 14.67 -4.3 14.34 -6 14 C-2.90009699 3.90882638 -2.90009699 3.90882638 0 0 Z " fill="#F4D45D" transform="translate(91,56)"/>
<path d="M0 0 C1.23995364 4.95981456 -0.16575765 7.56261718 -2.1875 12 C-2.49236328 12.7115625 -2.79722656 13.423125 -3.11132812 14.15625 C-4.90322884 18.18333086 -6.63821353 21.04549362 -10 24 C-11.35156675 25.65191491 -12.68962066 27.31522656 -14 29 C-14.99 28.67 -15.98 28.34 -17 28 C-15.09014115 23.70281759 -12.3108493 20.3108493 -9 17 C-8.67 17.33 -8.34 17.66 -8 18 C-5.36 12.06 -2.72 6.12 0 0 Z " fill="#D5A939" transform="translate(115,33)"/>
<path d="M0 0 C0.33 0 0.66 0 1 0 C1 1.98 1 3.96 1 6 C1.61875 6.04125 2.2375 6.0825 2.875 6.125 C3.57625 6.41375 4.2775 6.7025 5 7 C5.70381157 8.98723268 6.3711811 10.98777953 7 13 C7.99 13.33 8.98 13.66 10 14 C10 15.65 10 17.3 10 19 C6 19 6 19 4.55078125 17.57421875 C4.14214844 16.95160156 3.73351563 16.32898438 3.3125 15.6875 C2.89613281 15.07261719 2.47976562 14.45773438 2.05078125 13.82421875 C0.18693204 10.58846566 -0.11541043 7.96331983 -0.0625 4.3125 C-0.05347656 3.50425781 -0.04445312 2.69601563 -0.03515625 1.86328125 C-0.02355469 1.24839844 -0.01195312 0.63351563 0 0 Z " fill="#CBA74C" transform="translate(55,102)"/>
<path d="M0 0 C5.28 0 10.56 0 16 0 C16 2.31 16 4.62 16 7 C12.3945768 6.37099631 9.15080065 5.41162002 5.75 4.0625 C4.87859375 3.72347656 4.0071875 3.38445313 3.109375 3.03515625 C1 2 1 2 0 0 Z " fill="#E0E1E1" transform="translate(57,33)"/>
<path d="M0 0 C0.33 0 0.66 0 1 0 C1.85931737 11.80129193 1.85931737 11.80129193 -1.0625 15.6875 C-4.47880755 18.3769336 -6.70142445 18.83142841 -11 19 C-11.66 17.68 -12.32 16.36 -13 15 C-12.195625 14.71125 -11.39125 14.4225 -10.5625 14.125 C-7.8673532 13.26737432 -7.8673532 13.26737432 -7 11 C-7 11.99 -7 12.98 -7 14 C-5.68 13.67 -4.36 13.34 -3 13 C-2.01 8.71 -1.02 4.42 0 0 Z " fill="#765927" transform="translate(87,105)"/>
<path d="M0 0 C2.42130331 2.42130331 2.52840504 3.80111377 3.125 7.125 C3.29257813 8.03507812 3.46015625 8.94515625 3.6328125 9.8828125 C3.81457031 10.93082031 3.81457031 10.93082031 4 12 C-0.625 16 -0.625 16 -4 16 C-5.25 9.375 -5.25 9.375 -3 6 C-2.67 6.66 -2.34 7.32 -2 8 C-1.34 5.36 -0.68 2.72 0 0 Z " fill="#AD8833" transform="translate(100,105)"/>
<path d="M0 0 C0.66 0.33 1.32 0.66 2 1 C2.103125 2.0725 2.20625 3.145 2.3125 4.25 C3.1620448 8.88388073 4.3307103 10.11141023 8 13 C10.6075566 14.4776154 13.26160393 15.78369009 16 17 C16 17.66 16 18.32 16 19 C12.49939932 17.88617251 9.27847512 16.63923756 6 15 C4.9790625 14.7834375 4.9790625 14.7834375 3.9375 14.5625 C1.47865147 13.84864075 0.53402485 13.04536647 -1 11 C-2.47940089 6.78939746 -1.61061919 4.07391912 0 0 Z " fill="#D3AA49" transform="translate(40,48)"/>
<path d="M0 0 C1.45880109 0.14107747 2.91703551 0.28802415 4.375 0.4375 C5.59316406 0.55931641 5.59316406 0.55931641 6.8359375 0.68359375 C9 1 9 1 11 2 C11 1.34 11 0.68 11 0 C11.66 0 12.32 0 13 0 C12 3 12 3 10 4 C10 5.32 10 6.64 10 8 C8.68 8.33 7.36 8.66 6 9 C6.66 7.68 7.32 6.36 8 5 C6.3603125 5.7425 6.3603125 5.7425 4.6875 6.5 C1 8 1 8 -2 8 C-1.67 7.01 -1.34 6.02 -1 5 C-0.34 4.67 0.32 4.34 1 4 C0.34 3.67 -0.32 3.34 -1 3 C-0.67 2.01 -0.34 1.02 0 0 Z " fill="#E7C059" transform="translate(100,22)"/>
<path d="M0 0 C4.62 0.66 9.24 1.32 14 2 C13.34 3.65 12.68 5.3 12 7 C11.34 7 10.68 7 10 7 C10 7.99 10 8.98 10 10 C9.34 9.67 8.68 9.34 8 9 C6.515 8.4121875 6.515 8.4121875 5 7.8125 C2 6 2 6 0 0 Z " fill="#9F7E35" transform="translate(54,53)"/>
<path d="M0 0 C2.42901902 2.42901902 2.32209476 3.15638857 2.375 6.5 C2.16021122 15.80303908 -1.69994798 22.41358198 -8 29 C-8.66 28.67 -9.32 28.34 -10 28 C-9.05016642 26.49460339 -8.08988109 24.99579653 -7.125 23.5 C-6.59132813 22.6646875 -6.05765625 21.829375 -5.5078125 20.96875 C-5.01023437 20.3190625 -4.51265625 19.669375 -4 19 C-3.34 19 -2.68 19 -2 19 C-1.34 12.73 -0.68 6.46 0 0 Z " fill="#F1D17E" transform="translate(122,37)"/>
<path d="M0 0 C0.66 0 1.32 0 2 0 C2.33 1.32 2.66 2.64 3 4 C3.66 4 4.32 4 5 4 C5 4.66 5 5.32 5 6 C3.0085944 6.38133299 1.00720923 6.71325582 -1 7 C-1.33 6.67 -1.66 6.34 -2 6 C-4.76746667 5.34454737 -7.14550355 5 -10 5 C-10 4.34 -10 3.68 -10 3 C-11.32 2.67 -12.64 2.34 -14 2 C-12.2300132 1.80467039 -10.45895721 1.61901118 -8.6875 1.4375 C-7.70136719 1.33308594 -6.71523437 1.22867188 -5.69921875 1.12109375 C-3 1 -3 1 0 2 C0 1.34 0 0.68 0 0 Z " fill="#A47C2A" transform="translate(94,79)"/>
<path d="M0 0 C0.66 1.32 1.32 2.64 2 4 C0.6875 6 0.6875 6 -1 8 C-1.99 8 -2.98 8 -4 8 C-4.33 8.99 -4.66 9.98 -5 11 C-5.66 9.68 -6.32 8.36 -7 7 C-7.66 7 -8.32 7 -9 7 C-9 5.35 -9 3.7 -9 2 C-6.03 2 -3.06 2 0 2 C0 1.34 0 0.68 0 0 Z " fill="#ECC973" transform="translate(103,72)"/>
<path d="M0 0 C1.23556641 0.01740234 1.23556641 0.01740234 2.49609375 0.03515625 C3.32238281 0.04417969 4.14867187 0.05320313 5 0.0625 C5.63808594 0.07410156 6.27617187 0.08570313 6.93359375 0.09765625 C6.93359375 2.09765625 6.93359375 4.09765625 6.93359375 6.09765625 C3.2594859 7.27337076 -0.23569808 7.17132371 -4.06640625 7.09765625 C-3.03063989 0.14322495 -3.03063989 0.14322495 0 0 Z " fill="#889DAA" transform="translate(24.06640625,50.90234375)"/>
<path d="M0 0 C1.41750563 0.11509661 2.83401169 0.24253658 4.25 0.375 C5.03890625 0.44460937 5.8278125 0.51421875 6.640625 0.5859375 C9.085877 1.01507113 10.84836903 1.78600638 13 3 C13 3.66 13 4.32 13 5 C7.58741259 7.13986014 7.58741259 7.13986014 4.375 6.375 C3.59125 6.25125 2.8075 6.1275 2 6 C-0.33454661 7.83358335 -0.33454661 7.83358335 -2 10 C-1.67 9.0925 -1.34 8.185 -1 7.25 C0.19605723 3.92954193 0.19605723 3.92954193 0 0 Z " fill="#2D4358" transform="translate(43,78)"/>
<path d="M0 0 C1.87890625 0.26171875 1.87890625 0.26171875 4 1 C5.08984375 2.70703125 5.08984375 2.70703125 5.9375 4.8125 C7.64510584 8.60188826 9.48633203 10.65755468 13 13 C9.8125 13.375 9.8125 13.375 6 13 C1.5155722 9.00301001 0.36629088 6.10484805 0 0 Z " fill="#DAD8CE" transform="translate(51,37)"/>
<path d="M0 0 C3.57849992 0.29820833 4.76226484 0.74245358 7.25 3.4375 C10.07238987 7.57028516 10.42158546 9.94097453 10 15 C7.97333762 18.70390021 6.51955484 20.65363011 3 23 C2.01 22.67 1.02 22.34 0 22 C0.78375 21.71125 1.5675 21.4225 2.375 21.125 C5.88694933 18.2819934 6.29689268 15.87459834 6.984375 11.5078125 C7.01364615 6.80979288 4.27702177 4.36823761 1.25 1.125 C0.8375 0.75375 0.425 0.3825 0 0 Z " fill="#423F3D" transform="translate(71,26)"/>
<path d="M0 0 C6.1680217 0.28036462 10.14611767 3.04590781 14.3125 7.4375 C16.03755423 10.0570268 16.64681256 11.90960986 17 15 C15.9790625 13.948125 15.9790625 13.948125 14.9375 12.875 C13.96322065 11.91169844 12.98355679 10.95382712 12 10 C11.45730469 9.47277344 10.91460937 8.94554687 10.35546875 8.40234375 C6.38106737 4.75091856 3.29638587 3.08089507 -2 2 C-1.34 1.34 -0.68 0.68 0 0 Z " fill="#807B78" transform="translate(67,13)"/>
<path d="M0 0 C1.875 0.3125 1.875 0.3125 4 1 C6 4 6 4 5.625 6.1875 C5.41875 6.785625 5.2125 7.38375 5 8 C4.67 7.34 4.34 6.68 4 6 C-0.59216906 10.06734974 -3.2167907 14.56385928 -6 20 C-6.66 19.34 -7.32 18.68 -8 18 C-7.55527344 17.39671875 -7.11054687 16.7934375 -6.65234375 16.171875 C-5.80349609 14.97304688 -5.80349609 14.97304688 -4.9375 13.75 C-4.36902344 12.96109375 -3.80054687 12.1721875 -3.21484375 11.359375 C-1.76274263 9.09459779 -1.76274263 9.09459779 -2.31640625 6.703125 C-2.54199219 6.14109375 -2.76757812 5.5790625 -3 5 C-2.01 4.67 -1.02 4.34 0 4 C0 2.68 0 1.36 0 0 Z " fill="#D7AC39" transform="translate(112,20)"/>
<path d="M0 0 C0 3.62031557 -1.1430506 4.95460298 -3 8 C-3.185625 8.7425 -3.37125 9.485 -3.5625 10.25 C-3.706875 10.8275 -3.85125 11.405 -4 12 C-4.99 12.495 -4.99 12.495 -6 13 C-6.65772428 16.02934491 -6.65772428 16.02934491 -7 19 C-7.66 19 -8.32 19 -9 19 C-8.89300781 18.31292969 -8.78601562 17.62585938 -8.67578125 16.91796875 C-8.49595703 15.56638672 -8.49595703 15.56638672 -8.3125 14.1875 C-8.18488281 13.29417969 -8.05726562 12.40085937 -7.92578125 11.48046875 C-7.75108118 8.92975791 -7.75108118 8.92975791 -9.48046875 7.17578125 C-9.98191406 6.78777344 -10.48335937 6.39976563 -11 6 C-8.525 6.495 -8.525 6.495 -6 7 C-5.938125 6.401875 -5.87625 5.80375 -5.8125 5.1875 C-4.6763243 2.12856542 -2.82669858 1.44958901 0 0 Z " fill="#0D171C" transform="translate(61,81)"/>
<path d="M0 0 C1.33333333 0.33333333 2.66666667 0.66666667 4 1 C6.34114367 0.72686657 8.67750658 0.40197001 11 0 C8.03 3.96 8.03 3.96 5 8 C-0.66153846 6.52307692 -0.66153846 6.52307692 -2.375 3.875 C-2.58125 3.25625 -2.7875 2.6375 -3 2 C-2.01 1.34 -1.02 0.68 0 0 Z " fill="#EEC343" transform="translate(86,26)"/>
<path d="M0 0 C2.84048268 1.09995912 5.49568941 2.25280657 8 4 C9 7.25 9 7.25 9 10 C8.01 10.33 7.02 10.66 6 11 C2.92385037 8.89921489 1.07585603 7.11378405 -1 4 C-0.625 1.8125 -0.625 1.8125 0 0 Z " fill="#3A5570" transform="translate(35,73)"/>
<path d="M0 0 C1.32 0 2.64 0 4 0 C4.66 2.31 5.32 4.62 6 7 C5.01 7.495 5.01 7.495 4 8 C3.67 7.34 3.34 6.68 3 6 C2.34 6 1.68 6 1 6 C1 12.6 1 19.2 1 26 C0.67 26 0.34 26 0 26 C0 17.42 0 8.84 0 0 Z " fill="#D6AC37" transform="translate(80,82)"/>
<path d="M0 0 C0.99 0.33 1.98 0.66 3 1 C2.24275352 2.98440482 1.46877038 4.96243005 0.6875 6.9375 C0.25824219 8.03964844 -0.17101562 9.14179687 -0.61328125 10.27734375 C-2 13 -2 13 -5 14 C-5.74737188 8.02102497 -3.3231898 4.67620279 0 0 Z " fill="#F3D157" transform="translate(86,55)"/>
<path d="M0 0 C0.99 0.33 1.98 0.66 3 1 C1.71034824 2.37562854 0.37310707 3.70766393 -1 5 C-1.66 5 -2.32 5 -3 5 C-3.25523438 5.57234375 -3.51046875 6.1446875 -3.7734375 6.734375 C-5.13087159 9.24173733 -6.71974104 11.1330456 -8.625 13.25 C-9.25664063 13.95640625 -9.88828125 14.6628125 -10.5390625 15.390625 C-11.02117187 15.92171875 -11.50328125 16.4528125 -12 17 C-12.33 16.01 -12.66 15.02 -13 14 C-11.5234375 11.66015625 -11.5234375 11.66015625 -9.375 9.0625 C-8.68148437 8.20785156 -7.98796875 7.35320313 -7.2734375 6.47265625 C-4.98422719 3.98284503 -2.81010555 1.88704499 0 0 Z " fill="#F5D552" transform="translate(99,25)"/>
<path d="M0 0 C0.99 0.33 1.98 0.66 3 1 C2.01 1.495 2.01 1.495 1 2 C1.28617187 2.51820312 1.57234375 3.03640625 1.8671875 3.5703125 C3.28142886 6.60361639 4.19193637 9.66111415 5.125 12.875 C5.47820312 14.06867188 5.83140625 15.26234375 6.1953125 16.4921875 C6.95570637 19.80691418 7.15521118 22.61639636 7 26 C6.67 26 6.34 26 6 26 C5.74605469 25.05898437 5.49210937 24.11796875 5.23046875 23.1484375 C4.88628906 21.90320313 4.54210937 20.65796875 4.1875 19.375 C3.85105469 18.14523438 3.51460938 16.91546875 3.16796875 15.6484375 C2.06517047 12.20357599 0.63327884 9.21566231 -1 6 C-1.25 3.1875 -1.25 3.1875 -1 1 C-0.67 0.67 -0.34 0.34 0 0 Z " fill="#EBC03B" transform="translate(96,86)"/>
<path d="M0 0 C3.1875 -0.0625 3.1875 -0.0625 7 1 C9.13056077 3.7950426 10.59235109 6.78900363 12 10 C7.65574165 9.51980564 5.93796082 8.35568204 3.1875 5 C2.58292969 4.278125 1.97835937 3.55625 1.35546875 2.8125 C0 1 0 1 0 0 Z " fill="#2D3A45" transform="translate(34,61)"/>
<path d="M0 0 C1.52499616 1.23297562 3.04642631 2.47306084 4.50390625 3.78515625 C6.26302564 5.21357957 7.75369126 5.74081053 10 6 C9.67 6.99 9.34 7.98 9 9 C8.67 8.67 8.34 8.34 8 8 C6.39125 8.12375 6.39125 8.12375 4.75 8.25 C1 8 1 8 -1.9375 5.5 C-2.618125 4.675 -3.29875 3.85 -4 3 C-3 1 -3 1 0 0 Z " fill="#947B55" transform="translate(52,45)"/>
<path d="M0 0 C6.625 0.75 6.625 0.75 10 3 C6.29032692 5.45479601 3.59507649 4.95976632 -0.6875 4.25 C-2.42580078 3.97929688 -2.42580078 3.97929688 -4.19921875 3.703125 C-5.12347656 3.47109375 -6.04773437 3.2390625 -7 3 C-7.33 2.34 -7.66 1.68 -8 1 C-6.00045254 0.95745644 -3.99958364 0.95919217 -2 1 C-1.67 1.33 -1.34 1.66 -1 2 C-0.67 1.34 -0.34 0.68 0 0 Z " fill="#604D30" transform="translate(62,51)"/>
<path d="M0 0 C0.33 0.66 0.66 1.32 1 2 C0.02768637 3.64287475 -0.94760733 5.28409473 -1.94140625 6.9140625 C-3.71864201 10.41606949 -4.3373066 14.15463435 -5 18 C-7.31 17.01 -9.62 16.02 -12 15 C-10.88044922 14.18789063 -10.88044922 14.18789063 -9.73828125 13.359375 C-6.84169213 10.86359779 -5.16458594 8.50637684 -3.1875 5.25 C-2.58292969 4.26515625 -1.97835937 3.2803125 -1.35546875 2.265625 C-0.90816406 1.51796875 -0.46085937 0.7703125 0 0 Z " fill="#714D15" transform="translate(96,37)"/>
<path d="M0 0 C0.66 0.33 1.32 0.66 2 1 C2 1.66 2 2.32 2 3 C1.34 3 0.68 3 0 3 C-0.15855469 3.53367188 -0.31710938 4.06734375 -0.48046875 4.6171875 C-2.40053915 10.74868303 -5.00234357 16.32459514 -8 22 C-8.66 21.01 -9.32 20.02 -10 19 C-9.61328125 18.29875 -9.2265625 17.5975 -8.828125 16.875 C-5.76885238 11.30167166 -2.80012055 5.70793804 0 0 Z " fill="#E9BE50" transform="translate(115,30)"/>
<path d="M0 0 C0.66 0.66 1.32 1.32 2 2 C2.66 1.67 3.32 1.34 4 1 C3.67 3.31 3.34 5.62 3 8 C3.99 8 4.98 8 6 8 C5.34 9.65 4.68 11.3 4 13 C3.01 13 2.02 13 1 13 C-1.42857143 4.57142857 -1.42857143 4.57142857 0 0 Z " fill="#D2B04A" transform="translate(88,112)"/>
<path d="M0 0 C0.66 0.66 1.32 1.32 2 2 C-1.625 5 -1.625 5 -5 5 C-5 4.01 -5 3.02 -5 2 C-8.96 3.98 -8.96 3.98 -13 6 C-10.19774323 0.39548646 -6.208366 -2.24190995 0 0 Z " fill="#5C7B95" transform="translate(25,84)"/>
<path d="M0 0 C0.66 0 1.32 0 2 0 C2 0.66 2 1.32 2 2 C2.99 1.67 3.98 1.34 5 1 C4.67 2.98 4.34 4.96 4 7 C2.02 7.33 0.04 7.66 -2 8 C-2 7.01 -2 6.02 -2 5 C-3.32 4.67 -4.64 4.34 -6 4 C-5.38125 3.71125 -4.7625 3.4225 -4.125 3.125 C-1.86674235 2.06279958 -1.86674235 2.06279958 0 0 Z " fill="#856018" transform="translate(73,78)"/>
<path d="M0 0 C0 0.99 0 1.98 0 3 C-0.639375 3.45375 -1.27875 3.9075 -1.9375 4.375 C-4.57264642 6.45117597 -4.43707592 7.78329099 -5 11 C-6.4375 12.8125 -6.4375 12.8125 -8 14 C-8.66 14 -9.32 14 -10 14 C-9.125 9.25 -9.125 9.25 -8 7 C-8.66 6.67 -9.32 6.34 -10 6 C-9.36191406 5.65066406 -8.72382812 5.30132812 -8.06640625 4.94140625 C-7.24011719 4.48636719 -6.41382812 4.03132813 -5.5625 3.5625 C-4.73878906 3.11003906 -3.91507812 2.65757813 -3.06640625 2.19140625 C-1.07691202 1.16337603 -1.07691202 1.16337603 0 0 Z " fill="#251B0D" transform="translate(79,49)"/>
<path d="M0 0 C0.99 0.33 1.98 0.66 3 1 C2.65986985 6.44208234 -0.70296528 9.93668198 -4 14 C-4.66 13.67 -5.32 13.34 -6 13 C-5.2884375 12.2265625 -5.2884375 12.2265625 -4.5625 11.4375 C-2.57724421 8.34050097 -2.46838196 5.61323227 -2 2 C-1.34 1.34 -0.68 0.68 0 0 Z " fill="#9B7220" transform="translate(84,34)"/>
<path d="M0 0 C0.66 1.32 1.32 2.64 2 4 C0.68 5.65 -0.64 7.3 -2 9 C-1.01 9.33 -0.02 9.66 1 10 C-3.68738665 9.09276387 -8.34193744 8.0452733 -13 7 C-13 6.67 -13 6.34 -13 6 C-9.7 6 -6.4 6 -3 6 C-3 5.01 -3 4.02 -3 3 C-1.5 1.3125 -1.5 1.3125 0 0 Z " fill="#233444" transform="translate(45,102)"/>
<path d="M0 0 C-0.969375 0.598125 -1.93875 1.19625 -2.9375 1.8125 C-6.23052042 3.71127509 -6.23052042 3.71127509 -7 7 C-8.98 7 -10.96 7 -13 7 C-13.66 5.35 -14.32 3.7 -15 2 C-14.443125 2.185625 -13.88625 2.37125 -13.3125 2.5625 C-10.600867 3.07551165 -8.65628961 2.6640724 -6 2 C-6 1.34 -6 0.68 -6 0 C-2.25 -1.125 -2.25 -1.125 0 0 Z " fill="#202E37" transform="translate(62,81)"/>
<path d="M0 0 C4.28493007 1.36577456 6.43145705 3.20681345 9.3125 6.625 C10.00988281 7.44226563 10.70726563 8.25953125 11.42578125 9.1015625 C11.94527344 9.72804688 12.46476562 10.35453125 13 11 C12.01 11.33 11.02 11.66 10 12 C8.5 10.625 8.5 10.625 7 9 C7 8.34 7 7.68 7 7 C5.68 6.67 4.36 6.34 3 6 C3 5.34 3 4.68 3 4 C2.34 3.67 1.68 3.34 1 3 C0.67 2.01 0.34 1.02 0 0 Z " fill="#E2CD9F" transform="translate(70,16)"/>
<path d="M0 0 C0.28875 0.598125 0.5775 1.19625 0.875 1.8125 C2.04742026 4.19327792 2.04742026 4.19327792 4 7 C4.33 4.69 4.66 2.38 5 0 C5.66 0 6.32 0 7 0 C8.125 6.75 8.125 6.75 7 9 C6.01 9 5.02 9 4 9 C3.67 9.66 3.34 10.32 3 11 C1.5 10 1.5 10 0 8 C-0.27345479 5.28153765 -0.13491285 2.74322801 0 0 Z " fill="#E3BA4A" transform="translate(66,108)"/>
<path d="M0 0 C0.66 0.33 1.32 0.66 2 1 C1.37240135 3.92879371 0.41377341 6.36095629 -1 9 C0.32 9.66 1.64 10.32 3 11 C1.00045254 11.04254356 -1.00041636 11.04080783 -3 11 C-3.33 10.67 -3.66 10.34 -4 10 C-3.53017945 3.65742251 -3.53017945 3.65742251 -1.4375 1.0625 C-0.7259375 0.5365625 -0.7259375 0.5365625 0 0 Z " fill="#5B625D" transform="translate(5,98)"/>
<path d="M0 0 C0.33 0.99 0.66 1.98 1 3 C-3.00557219 5.67038146 -5.71665084 5.43279167 -10.390625 4.546875 C-12.60194897 4.06010557 -14.80283588 3.54684974 -17 3 C-17 2.67 -17 2.34 -17 2 C-16.08476563 1.93941406 -15.16953125 1.87882812 -14.2265625 1.81640625 C-12.44378906 1.69072266 -12.44378906 1.69072266 -10.625 1.5625 C-9.44164062 1.48128906 -8.25828125 1.40007812 -7.0390625 1.31640625 C-4.40001916 1.04164724 -2.56464354 0 0 0 Z " fill="#765924" transform="translate(62,76)"/>
<path d="M0 0 C1.20628008 2.33214148 2.1654738 4.49642139 3 7 C3.99 7 4.98 7 6 7 C7.5 8.375 7.5 8.375 9 10 C9.99 10.66 10.98 11.32 12 12 C11.34 12 10.68 12 10 12 C10 12.66 10 13.32 10 14 C5.57265096 12.6471989 3.44959937 10.93685614 1 7 C0.25 3.1875 0.25 3.1875 0 0 Z " fill="#452824" transform="translate(41,49)"/>
<path d="M0 0 C2.31 0 4.62 0 7 0 C7.33 1.98 7.66 3.96 8 6 C5.69 5.67 3.38 5.34 1 5 C0.67 3.35 0.34 1.7 0 0 Z " fill="#DDC17F" transform="translate(63,27)"/>
<path d="M0 0 C0 0.33 0 0.66 0 1 C-2.31 1.66 -4.62 2.32 -7 3 C-7 3.66 -7 4.32 -7 5 C-7.639375 5.12375 -8.27875 5.2475 -8.9375 5.375 C-9.9584375 5.684375 -9.9584375 5.684375 -11 6 C-11.33 6.66 -11.66 7.32 -12 8 C-13.65 7.67 -15.3 7.34 -17 7 C-12.38008867 1.64090285 -7.03918661 -0.51506244 0 0 Z " fill="#EFCE60" transform="translate(101,20)"/>
<path d="M0 0 C2.05619793 2.31322267 2.95899829 3.55923162 3.25 6.6875 C3 9 3 9 2 10 C0.00041636 10.04080783 -2.00045254 10.04254356 -4 10 C-3.525625 9.0925 -3.05125 8.185 -2.5625 7.25 C-1.35371179 4.73572051 -0.52006114 2.70431791 0 0 Z " fill="#252A25" transform="translate(7,98)"/>
<path d="M0 0 C2.475 0.495 2.475 0.495 5 1 C5 1.66 5 2.32 5 3 C6.65 3.33 8.3 3.66 10 4 C9.34 5.65 8.68 7.3 8 9 C7.34 8.01 6.68 7.02 6 6 C4.68 6.33 3.36 6.66 2 7 C1.34 4.69 0.68 2.38 0 0 Z " fill="#CE9F2A" transform="translate(80,29)"/>
<path d="M0 0 C0.99 0.66 1.98 1.32 3 2 C3 2.66 3 3.32 3 4 C3.66 4.33 4.32 4.66 5 5 C1.78548731 6.60725635 -1.43612536 6.05748185 -5 6 C-3.63016497 2.83884224 -3.0109362 2.0072908 0 0 Z " fill="#141D27" transform="translate(48,105)"/>
<path d="M0 0 C0.33 0 0.66 0 1 0 C1.41644184 2.10018513 1.80753303 4.20541042 2.1875 6.3125 C2.40792969 7.48425781 2.62835938 8.65601562 2.85546875 9.86328125 C3 13 3 13 1.55078125 14.91796875 C1.03902344 15.27503906 0.52726562 15.63210937 0 16 C-1.02224111 11.01657457 -1.3632306 6.07454515 -1 1 C-0.67 0.67 -0.34 0.34 0 0 Z " fill="#E8BC38" transform="translate(89,89)"/>
<path d="M0 0 C0.66 0 1.32 0 2 0 C2 2.64 2 5.28 2 8 C3.32 7.67 4.64 7.34 6 7 C6 7.99 6 8.98 6 10 C3.03 10 0.06 10 -3 10 C-2.34 8.68 -1.68 7.36 -1 6 C-0.61709538 4.00889599 -0.27395385 2.00899487 0 0 Z " fill="#AB7E24" transform="translate(97,64)"/>
<path d="M0 0 C2.475 0.495 2.475 0.495 5 1 C4.34 4.3 3.68 7.6 3 11 C2.01 11.33 1.02 11.66 0 12 C0 11.01 0 10.02 0 9 C0.66 9 1.32 9 2 9 C2 8.34 2 7.68 2 7 C1.34 7 0.68 7 0 7 C0 4.69 0 2.38 0 0 Z " fill="#7E6447" transform="translate(74,34)"/>
<path d="M0 0 C2.05078125 0.03255208 4.1015625 0.06510417 6.15234375 0.09765625 C5.51296875 0.53078125 4.87359375 0.96390625 4.21484375 1.41015625 C1.88488372 3.01004802 1.88488372 3.01004802 1.15234375 6.09765625 C3.13234375 6.09765625 5.11234375 6.09765625 7.15234375 6.09765625 C7.15234375 6.42765625 7.15234375 6.75765625 7.15234375 7.09765625 C3.85234375 7.09765625 0.55234375 7.09765625 -2.84765625 7.09765625 C-2.89019981 5.09810879 -2.88846408 3.09723989 -2.84765625 1.09765625 C-1.84765625 0.09765625 -1.84765625 0.09765625 0 0 Z " fill="#6C6650" transform="translate(31.84765625,28.90234375)"/>
<path d="M0 0 C2.31 0 4.62 0 7 0 C7.33 1.98 7.66 3.96 8 6 C5.36 6 2.72 6 0 6 C0 4 0 2 0 0 Z " fill="#010203" transform="translate(34,110)"/>
<path d="M0 0 C1.33332095 2.6666419 0.67102033 4.16680303 0 7 C-0.33 7 -0.66 7 -1 7 C-1.04254356 5.00045254 -1.04080783 2.99958364 -1 1 C-0.67 0.67 -0.34 0.34 0 0 Z M-3 7 C-2.34 7 -1.68 7 -1 7 C-0.67 9.64 -0.34 12.28 0 15 C-1.32 15.33 -2.64 15.66 -4 16 C-4.66 14.68 -5.32 13.36 -6 12 C-5.34 11.67 -4.68 11.34 -4 11 C-4 10.01 -4 9.02 -4 8 C-3.67 7.67 -3.34 7.34 -3 7 Z " fill="#050C16" transform="translate(55,93)"/>
<path d="M0 0 C1.5 1.375 1.5 1.375 3 3 C3 3.66 3 4.32 3 5 C3.61875 5.0825 4.2375 5.165 4.875 5.25 C7 6 7 6 8.25 8.0625 C8.4975 8.701875 8.745 9.34125 9 10 C8.34 9.67 7.68 9.34 7 9 C3.13938967 7.71312989 0.05849717 7.86242382 -4 8 C-3.67 7.01 -3.34 6.02 -3 5 C-1.68 5 -0.36 5 1 5 C0.67 3.35 0.34 1.7 0 0 Z " fill="#808A96" transform="translate(16,96)"/>
<path d="M0 0 C2.97 0 5.94 0 9 0 C9 0.33 9 0.66 9 1 C6.69 1 4.38 1 2 1 C2.01160156 1.66386719 2.02320312 2.32773438 2.03515625 3.01171875 C2.12478032 11.78207381 2.12478032 11.78207381 1 16 C0.67 16 0.34 16 0 16 C-0.19504458 13.89651926 -0.38078496 11.79217415 -0.5625 9.6875 C-0.66691406 8.51574219 -0.77132812 7.34398438 -0.87890625 6.13671875 C-1 3 -1 3 0 0 Z " fill="#56360C" transform="translate(78,80)"/>
<path d="M0 0 C0.99 0.66 1.98 1.32 3 2 C3.2208564 4.95064148 3.28060989 7.68368231 3.1875 10.625 C3.17396484 11.42679688 3.16042969 12.22859375 3.14648438 13.0546875 C3.11109051 15.03674378 3.05728234 17.01845551 3 19 C2.67 19 2.34 19 2 19 C2 14.38 2 9.76 2 5 C1.01 5 0.02 5 -1 5 C-1.33 5.99 -1.66 6.98 -2 8 C-2 5.69 -2 3.38 -2 1 C-1.34 0.67 -0.68 0.34 0 0 Z " fill="#F2CC4F" transform="translate(83,87)"/>
<path d="M0 0 C1.68762851 1.6454378 3.3540349 3.31288577 5 5 C5 5.33 5 5.66 5 6 C0.545 6.495 0.545 6.495 -4 7 C-2.92598892 4.08482708 -2.22189824 2.22189824 0 0 Z " fill="#354B5F" transform="translate(45,83)"/>
<path d="M0 0 C1.72953968 0.62396703 3.458615 1.24922128 5.1875 1.875 C6.15042969 2.22304688 7.11335938 2.57109375 8.10546875 2.9296875 C10.75634859 3.90990488 13.3813098 4.93720434 16 6 C16 6.33 16 6.66 16 7 C9.741346 7.5326514 5.54891215 5.81849506 0 3 C0 2.01 0 1.02 0 0 Z " fill="#C5C9C6" transform="translate(47,55)"/>
<path d="M0 0 C1.65 0.99 3.3 1.98 5 3 C4.67 3.66 4.34 4.32 4 5 C3.34 4.67 2.68 4.34 2 4 C2 7.63 2 11.26 2 15 C1.67 15 1.34 15 1 15 C0.67 12.69 0.34 10.38 0 8 C-0.33 8 -0.66 8 -1 8 C-1.04241723 5.66705225 -1.04092937 3.33297433 -1 1 C-0.67 0.67 -0.34 0.34 0 0 Z " fill="#F1CD5F" transform="translate(117,32)"/>
<path d="M0 0 C0 0.33 0 0.66 0 1 C-0.77085938 1.17015625 -1.54171875 1.3403125 -2.3359375 1.515625 C-3.84027344 1.87914063 -3.84027344 1.87914063 -5.375 2.25 C-6.37273438 2.48203125 -7.37046875 2.7140625 -8.3984375 2.953125 C-11.135202 3.7623412 -11.135202 3.7623412 -12.3515625 6.109375 C-12.56554688 6.73328125 -12.77953125 7.3571875 -13 8 C-13.75 6.25 -13.75 6.25 -14 4 C-10.81989666 -1.45160573 -5.56528019 -0.38234749 0 0 Z " fill="#A29E97" transform="translate(68,24)"/>
<path d="M0 0 C0.66 0.33 1.32 0.66 2 1 C-0.97 4.96 -0.97 4.96 -4 9 C-4.99 8.67 -5.98 8.34 -7 8 C-7 5.69 -7 3.38 -7 1 C-6.34 2.32 -5.68 3.64 -5 5 C-3.35 3.35 -1.7 1.7 0 0 Z " fill="#DBB039" transform="translate(99,45)"/>
<path d="M0 0 C0.99 0.33 1.98 0.66 3 1 C4.72795352 1.06802967 6.45835365 1.08495645 8.1875 1.0625 C9.08855469 1.05347656 9.98960938 1.04445313 10.91796875 1.03515625 C11.94857422 1.01775391 11.94857422 1.01775391 13 1 C13 1.33 13 1.66 13 2 C12.20335938 2.10957031 11.40671875 2.21914062 10.5859375 2.33203125 C4.8527586 3.18991568 -0.02580893 3.96021657 -5 7 C-4.6189482 4.23737447 -4.16402868 3.15856106 -2.125 1.1875 C-1.42375 0.795625 -0.7225 0.40375 0 0 Z " fill="#8E887E" transform="translate(42,12)"/>
<path d="M0 0 C4.38249366 1.33909529 6.57949251 3.08994944 9 7 C8.6015625 9.1640625 8.6015625 9.1640625 8 11 C7.59007813 10.50628906 7.18015625 10.01257813 6.7578125 9.50390625 C6.21898438 8.86324219 5.68015625 8.22257812 5.125 7.5625 C4.59132813 6.92441406 4.05765625 6.28632812 3.5078125 5.62890625 C2.0777243 3.89194996 2.0777243 3.89194996 0 3 C0 2.01 0 1.02 0 0 Z " fill="#CBAA64" transform="translate(99,84)"/>
<path d="M0 0 C0.66 0 1.32 0 2 0 C2.55353075 10.55808656 2.55353075 10.55808656 -1 15 C-2.32 14.67 -3.64 14.34 -5 14 C-4.53980469 13.60167969 -4.07960938 13.20335938 -3.60546875 12.79296875 C-1.7325678 10.70133484 -1.12610698 8.98578008 -0.3125 6.3125 C-0.06113281 5.50425781 0.19023438 4.69601563 0.44921875 3.86328125 C0.63097656 3.24839844 0.81273438 2.63351563 1 2 C0.34 1.67 -0.32 1.34 -1 1 C-0.67 0.67 -0.34 0.34 0 0 Z " fill="#E8BD4B" transform="translate(91,56)"/>
<path d="M0 0 C1.32 0.33 2.64 0.66 4 1 C1.03 5.95 1.03 5.95 -2 11 C-4 8 -4 8 -3.8125 6.0625 C-2.87858188 3.69178476 -1.61172061 1.96209466 0 0 Z " fill="#F1C84A" transform="translate(82,53)"/>
<path d="M0 0 C0.99 0.33 1.98 0.66 3 1 C2.01 2.485 2.01 2.485 1 4 C0.67 5.03125 0.34 6.0625 0 7.125 C-1 10 -1 10 -3 11 C-3.36923077 3.49230769 -3.36923077 3.49230769 -1.5 1 C-1.005 0.67 -0.51 0.34 0 0 Z " fill="#444142" transform="translate(48,27)"/>
<path d="M0 0 C0.33 0.66 0.66 1.32 1 2 C4.02934491 2.65772428 4.02934491 2.65772428 7 3 C7.33 4.65 7.66 6.3 8 8 C7.01 7.67 6.02 7.34 5 7 C4.67 8.65 4.34 10.3 4 12 C3.67 12 3.34 12 3 12 C3 9.69 3 7.38 3 5 C2.01 4.67 1.02 4.34 0 4 C0 2.68 0 1.36 0 0 Z " fill="#C3A352" transform="translate(70,28)"/>
<path d="M0 0 C0.33 1.32 0.66 2.64 1 4 C0.360625 4.103125 -0.27875 4.20625 -0.9375 4.3125 C-1.618125 4.539375 -2.29875 4.76625 -3 5 C-3.33 5.99 -3.66 6.98 -4 8 C-4.99 8 -5.98 8 -7 8 C-7.33 6.68 -7.66 5.36 -8 4 C-7.34 4 -6.68 4 -6 4 C-5.67 3.34 -5.34 2.68 -5 2 C-3.68 2.33 -2.36 2.66 -1 3 C-0.67 2.01 -0.34 1.02 0 0 Z " fill="#BFA053" transform="translate(112,113)"/>
<path d="M0 0 C0.33 0 0.66 0 1 0 C1.08114106 1.77007714 1.13925505 3.54122098 1.1875 5.3125 C1.23970703 6.79169922 1.23970703 6.79169922 1.29296875 8.30078125 C1 11 1 11 -0.51171875 12.85546875 C-1.00285156 13.23316406 -1.49398437 13.61085938 -2 14 C-2.05410687 12.22950311 -2.09284119 10.45853151 -2.125 8.6875 C-2.14820312 7.70136719 -2.17140625 6.71523437 -2.1953125 5.69921875 C-2 3 -2 3 0 0 Z " fill="#F3C93D" transform="translate(91,102)"/>
<path d="M0 0 C0.99 0 1.98 0 3 0 C3 1.65 3 3.3 3 5 C2.01 5 1.02 5 0 5 C0 5.99 0 6.98 0 8 C-3.3 8 -6.6 8 -10 8 C-10 7.67 -10 7.34 -10 7 C-8.906875 6.95875 -7.81375 6.9175 -6.6875 6.875 C-2.75003667 6.39434602 -2.75003667 6.39434602 -1.0625 2.9375 C-0.711875 1.968125 -0.36125 0.99875 0 0 Z " fill="#2E445B" transform="translate(42,100)"/>
<path d="M0 0 C0.21824777 6.0018137 -0.4943096 11.19233704 -2 17 C-2.33 17 -2.66 17 -3 17 C-3 11.72 -3 6.44 -3 1 C-1 0 -1 0 0 0 Z " fill="#6D4A12" transform="translate(80,91)"/>
<path d="M0 0 C2.29633824 3.44450737 2.54016485 5.93812283 3 10 C2.01 9.34 1.02 8.68 0 8 C0 7.01 0 6.02 0 5 C-2.64 4.34 -5.28 3.68 -8 3 C-8 2.67 -8 2.34 -8 2 C-5.36 1.34 -2.72 0.68 0 0 Z " fill="#55728B" transform="translate(24,89)"/>
<path d="M0 0 C-0.33 1.98 -0.66 3.96 -1 6 C-1.66 5.34 -2.32 4.68 -3 4 C-4.175625 3.835 -5.35125 3.67 -6.5625 3.5 C-7.696875 3.335 -8.83125 3.17 -10 3 C-10.33 2.34 -10.66 1.68 -11 1 C-7.26562152 0.12132271 -3.83225427 -0.08912219 0 0 Z " fill="#3F4141" transform="translate(44,29)"/>
<path d="M0 0 C0.33 0 0.66 0 1 0 C1.13592021 1.89382164 1.2324094 3.79049704 1.3125 5.6875 C1.37050781 6.74324219 1.42851563 7.79898438 1.48828125 8.88671875 C1 12 1 12 -4 17 C-2.68 11.39 -1.36 5.78 0 0 Z " fill="#624319" transform="translate(87,105)"/>
<path d="M0 0 C1.37494222 2.26461071 2.07991957 3.45654694 1.6875 6.125 C1 8 1 8 0 10 C-0.99 9.67 -1.98 9.34 -3 9 C-3 7.35 -3 5.7 -3 4 C-2.34 4 -1.68 4 -1 4 C-0.67 2.68 -0.34 1.36 0 0 Z " fill="#1E1E17" transform="translate(65,72)"/>
<path d="M0 0 C0.33 0 0.66 0 1 0 C1.12117188 0.67546875 1.24234375 1.3509375 1.3671875 2.046875 C1.53476562 2.93890625 1.70234375 3.8309375 1.875 4.75 C2.03742187 5.63171875 2.19984375 6.5134375 2.3671875 7.421875 C2.96796264 9.86947744 3.77997117 11.80599857 5 14 C4.34 14.66 3.68 15.32 3 16 C2.73445313 15.43410156 2.46890625 14.86820313 2.1953125 14.28515625 C1.84210937 13.55167969 1.48890625 12.81820312 1.125 12.0625 C0.77695312 11.33160156 0.42890625 10.60070312 0.0703125 9.84765625 C-0.8684977 7.83667541 -0.8684977 7.83667541 -3 7 C-2.34 6.34 -1.68 5.68 -1 5 C-0.35232207 2.42938689 -0.35232207 2.42938689 0 0 Z " fill="#978C7B" transform="translate(48,31)"/>
<path d="M0 0 C2.37198441 4.74396882 3.28751609 7.53719428 3 13 C2.34 13.99 1.68 14.98 1 16 C0.14701624 12.32612505 -0.10789471 8.9552607 -0.0625 5.1875 C-0.05347656 4.21167969 -0.04445313 3.23585938 -0.03515625 2.23046875 C-0.02355469 1.49441406 -0.01195313 0.75835937 0 0 Z " fill="#DAAE31" transform="translate(96,100)"/>
<path d="M0 0 C0.66 0 1.32 0 2 0 C1.95875 0.928125 1.9175 1.85625 1.875 2.8125 C1.72863661 6.15809719 1.72863661 6.15809719 4 9 C3.8125 11.125 3.8125 11.125 3 13 C2.01 13.33 1.02 13.66 0 14 C0.20625 13.443125 0.4125 12.88625 0.625 12.3125 C1.218487 9.92778629 1.218487 9.92778629 0 7.5625 C-1.17067668 4.56264101 -0.87015597 3.0455459 0 0 Z " fill="#657882" transform="translate(13,69)"/>
<path d="M0 0 C2.97 0 5.94 0 9 0 C9 0.33 9 0.66 9 1 C6.36 1 3.72 1 1 1 C1 1.99 1 2.98 1 4 C3.31 4.33 5.62 4.66 8 5 C7.01 5.33 6.02 5.66 5 6 C4.67 6.99 4.34 7.98 4 9 C3.34 7.68 2.68 6.36 2 5 C1.34 5 0.68 5 0 5 C0 3.35 0 1.7 0 0 Z " fill="#DBB559" transform="translate(94,74)"/>
<path d="M0 0 C7.26153846 -0.49230769 7.26153846 -0.49230769 11 2 C11.66 2.66 12.32 3.32 13 4 C11.35 4 9.7 4 8 4 C7.67 3.01 7.34 2.02 7 1 C4.02934491 1.34227572 4.02934491 1.34227572 1 2 C0.67 2.66 0.34 3.32 0 4 C0.66 4 1.32 4 2 4 C1.67 4.99 1.34 5.98 1 7 C0.34 6.34 -0.32 5.68 -1 5 C-0.625 2.375 -0.625 2.375 0 0 Z " fill="#1A190E" transform="translate(78,70)"/>
<path d="M0 0 C1.24546405 2.49092811 0.7767578 3.41080733 0 6 C-1.32 5.67 -2.64 5.34 -4 5 C-4.33 6.32 -4.66 7.64 -5 9 C-5.33 6.69 -5.66 4.38 -6 2 C-5.38125 1.855625 -4.7625 1.71125 -4.125 1.5625 C-1.96741678 1.06847775 -1.96741678 1.06847775 0 0 Z " fill="#C6C7C1" transform="translate(55,32)"/>
<path d="M0 0 C0.33 0 0.66 0 1 0 C1 1.65 1 3.3 1 5 C1.66 5 2.32 5 3 5 C3 3.35 3 1.7 3 0 C3.66 0 4.32 0 5 0 C5 2.31 5 4.62 5 7 C4.34 7 3.68 7 3 7 C2.67 7.66 2.34 8.32 2 9 C1.34 9 0.68 9 0 9 C0 6.03 0 3.06 0 0 Z " fill="#DAB861" transform="translate(109,107)"/>
<path d="M0 0 C0.33 0.66 0.66 1.32 1 2 C2.98 1.67 4.96 1.34 7 1 C6.67 2.32 6.34 3.64 6 5 C3.69 5 1.38 5 -1 5 C-1 1 -1 1 0 0 Z " fill="#65440E" transform="translate(87,83)"/>
<path d="M0 0 C2 3 2 3 2 5 C2.66 5 3.32 5 4 5 C4.33 6.32 4.66 7.64 5 9 C4.34 9 3.68 9 3 9 C3 8.34 3 7.68 3 7 C-0.04913228 5.98888907 -0.04913228 5.98888907 -3 7 C-2.38722388 4.03824877 -1.74627478 2.61941217 0 0 Z " fill="#B79649" transform="translate(105,58)"/>
<path d="M0 0 C0.99 0.33 1.98 0.66 3 1 C2.46890625 1.45890625 1.9378125 1.9178125 1.390625 2.390625 C-2.18324699 5.49493717 -5.71854059 8.58181312 -9 12 C-7.50948318 7.39294801 -5.21457741 4.53603516 -2 1 C-1.34 0.67 -0.68 0.34 0 0 Z " fill="#F3DD9D" transform="translate(38,18)"/>
<path d="M0 0 C0.99 0.33 1.98 0.66 3 1 C3 1.66 3 2.32 3 3 C3.66 3.33 4.32 3.66 5 4 C2.36 4 -0.28 4 -3 4 C-3 6.31 -3 8.62 -3 11 C-3.33 11 -3.66 11 -4 11 C-4.33 8.69 -4.66 6.38 -5 4 C-3.35 3.34 -1.7 2.68 0 2 C0 1.34 0 0.68 0 0 Z " fill="#445262" transform="translate(35,103)"/>
<path d="M0 0 C0 0.99 0 1.98 0 3 C0.66 3 1.32 3 2 3 C2 3.66 2 4.32 2 5 C-0.64 5 -3.28 5 -6 5 C-6.33 4.34 -6.66 3.68 -7 3 C-2.25 0 -2.25 0 0 0 Z " fill="#3E6488" transform="translate(20,86)"/>
<path d="M0 0 C1.4606285 2.64738916 2 3.89448334 2 7 C1.38125 7.28875 0.7625 7.5775 0.125 7.875 C-2.13325765 8.93720042 -2.13325765 8.93720042 -4 11 C-3.48964169 6.6109185 -2.47785723 3.66291938 0 0 Z " fill="#54697B" transform="translate(34,72)"/>
<path d="M0 0 C0.6875 1.6875 0.6875 1.6875 1 4 C-0.25 6.6875 -0.25 6.6875 -2 9 C-2.99 9.33 -3.98 9.66 -5 10 C-5.33 9.01 -5.66 8.02 -6 7 C-5.071875 6.1028125 -5.071875 6.1028125 -4.125 5.1875 C-1.86323046 2.99188856 -1.86323046 2.99188856 0 0 Z " fill="#8F6518" transform="translate(75,65)"/>
<path d="M0 0 C2.31 0 4.62 0 7 0 C6.34 1.65 5.68 3.3 5 5 C3.68 5 2.36 5 1 5 C0.67 3.35 0.34 1.7 0 0 Z " fill="#936711" transform="translate(61,55)"/>
<path d="M0 0 C2.97 0 5.94 0 9 0 C9.33 0.66 9.66 1.32 10 2 C6.32589215 3.17571451 2.83070817 3.07366746 -1 3 C-0.67 2.01 -0.34 1.02 0 0 Z " fill="#B68D3E" transform="translate(21,55)"/>
<path d="M0 0 C5.28 0 10.56 0 16 0 C16 0.33 16 0.66 16 1 C11.545 1.495 11.545 1.495 7 2 C7 2.66 7 3.32 7 4 C4.97954558 3.39816251 2.97888961 2.72693904 1 2 C0.67 1.34 0.34 0.68 0 0 Z " fill="#CDCFCD" transform="translate(57,33)"/>
<path d="M0 0 C2.90802461 2.21928194 4.95312762 3.92969143 7 7 C7.66 6.67 8.32 6.34 9 6 C9.33 7.32 9.66 8.64 10 10 C8.66666667 10.66666667 7.33333333 11.33333333 6 12 C4 8 2 4 0 0 Z " fill="#E8C468" transform="translate(100,87)"/>
<path d="M0 0 C1.65 0 3.3 0 5 0 C5 2.33333333 5 4.66666667 5 7 C5.99 6.67 6.98 6.34 8 6 C7.67 6.99 7.34 7.98 7 9 C2.97449681 7.6581656 2.11714364 5.5772427 0 2 C0 1.34 0 0.68 0 0 Z " fill="#53708D" transform="translate(15,93)"/>
<path d="M0 0 C0.66 0 1.32 0 2 0 C1.67 0.721875 1.34 1.44375 1 2.1875 C-0.00603529 5.01697427 -0.16977402 7.02895466 0 10 C-0.99 10.495 -0.99 10.495 -2 11 C-3.1875 9.375 -3.1875 9.375 -4 7 C-1.9 1.9 -1.9 1.9 0 0 Z " fill="#E6BB4D" transform="translate(65,87)"/>
<path d="M0 0 C1.4540625 0.0309375 1.4540625 0.0309375 2.9375 0.0625 C4.0625 3.8125 4.0625 3.8125 2.9375 6.0625 C1.9475 6.0625 0.9575 6.0625 -0.0625 6.0625 C-0.495625 5.1034375 -0.495625 5.1034375 -0.9375 4.125 C-1.89073451 1.91043921 -1.89073451 1.91043921 -4.0625 1.0625 C-3.0625 0.0625 -3.0625 0.0625 0 0 Z " fill="#BC912E" transform="translate(68.0625,82.9375)"/>
<path d="M0 0 C1.43931117 0.45261358 2.87638999 0.91232979 4.3125 1.375 C5.11300781 1.63023438 5.91351563 1.88546875 6.73828125 2.1484375 C9 3 9 3 12 5 C12 5.66 12 6.32 12 7 C8.50053533 5.88653397 5.27820623 4.63910312 2 3 C1.34 3 0.68 3 0 3 C0 2.01 0 1.02 0 0 Z " fill="#D0C2A4" transform="translate(44,60)"/>
<path d="M0 0 C0.99 0 1.98 0 3 0 C2.73958333 2.01822917 2.47916667 4.03645833 2.21875 6.0546875 C1.9627515 8.00498344 1.9627515 8.00498344 2 10 C1.01 9.67 0.02 9.34 -1 9 C-1.625 6.1875 -1.625 6.1875 -2 3 C-1.34 2.01 -0.68 1.02 0 0 Z " fill="#2E342C" transform="translate(68,56)"/>
<path d="M0 0 C3.63 0.33 7.26 0.66 11 1 C10.01 1.495 10.01 1.495 9 2 C9 2.66 9 3.32 9 4 C7.02 4.33 5.04 4.66 3 5 C2.87625 4.360625 2.7525 3.72125 2.625 3.0625 C2.315625 2.0415625 2.315625 2.0415625 2 1 C1.34 0.67 0.68 0.34 0 0 Z " fill="#F8DF71" transform="translate(44,72)"/>
<path d="M0 0 C0.66 0 1.32 0 2 0 C2.33 0.99 2.66 1.98 3 3 C2.01 3 1.02 3 0 3 C0 3.66 0 4.32 0 5 C-2.64 5.33 -5.28 5.66 -8 6 C-5.59563974 2.39345961 -4.05320393 2.14547068 0 1 C0 0.67 0 0.34 0 0 Z " fill="#AE8937" transform="translate(61,66)"/>
<path d="M0 0 C0.66 0 1.32 0 2 0 C1.49477778 4.37859255 -1.17827222 6.81651224 -4 10 C-4.66 9.67 -5.32 9.34 -6 9 C-5.05016642 7.49460339 -4.08988109 5.99579653 -3.125 4.5 C-2.59132813 3.6646875 -2.05765625 2.829375 -1.5078125 1.96875 C-0.76144531 0.99421875 -0.76144531 0.99421875 0 0 Z " fill="#EECD73" transform="translate(118,56)"/>
<path d="M0 0 C0.99 0.33 1.98 0.66 3 1 C3.6875 3.0625 3.6875 3.0625 4 5 C5.65 4.01 7.3 3.02 9 2 C8.34 3.65 7.68 5.3 7 7 C1.33846154 5.52307692 1.33846154 5.52307692 -0.375 2.875 C-0.58125 2.25625 -0.7875 1.6375 -1 1 C-0.67 0.67 -0.34 0.34 0 0 Z " fill="#E5B736" transform="translate(84,27)"/>
<path d="M0 0 C0.33 0.66 0.66 1.32 1 2 C1.66 2 2.32 2 3 2 C3.66 3.32 4.32 4.64 5 6 C2.35261084 7.4606285 1.10551666 8 -2 8 C-1.67 7.01 -1.34 6.02 -1 5 C-0.34 4.67 0.32 4.34 1 4 C0.34 3.67 -0.32 3.34 -1 3 C-0.67 2.01 -0.34 1.02 0 0 Z " fill="#ECC34F" transform="translate(100,22)"/>
<path d="M0 0 C1.32 0.33 2.64 0.66 4 1 C3.34 2.98 2.68 4.96 2 7 C1.34 7 0.68 7 0 7 C-0.66 5.35 -1.32 3.7 -2 2 C-1.34 2 -0.68 2 0 2 C0 1.34 0 0.68 0 0 Z " fill="#4B6A88" transform="translate(20,93)"/>
<path d="M0 0 C3.465 1.98 3.465 1.98 7 4 C7 4.66 7 5.32 7 6 C6.01 6.33 5.02 6.66 4 7 C3.34 5.68 2.68 4.36 2 3 C1.01 3.33 0.02 3.66 -1 4 C-0.67 2.68 -0.34 1.36 0 0 Z " fill="#354F68" transform="translate(35,73)"/>
<path d="M0 0 C0 0.99 0 1.98 0 3 C-3.66486096 5.91033076 -6.39374606 6.32136655 -11 6 C-8.61542052 4.41028035 -6.3695876 3.13258407 -3.8125 1.875 C-3.09707031 1.52179687 -2.38164063 1.16859375 -1.64453125 0.8046875 C-1.10183594 0.53914063 -0.55914062 0.27359375 0 0 Z " fill="#BE9532" transform="translate(80,47)"/>
<path d="M0 0 C0.3125 2.1875 0.3125 2.1875 0 5 C-2.5 7.8125 -2.5 7.8125 -5 10 C-4.71872579 8.51882199 -4.42466268 7.04006751 -4.125 5.5625 C-3.96257812 4.73878906 -3.80015625 3.91507813 -3.6328125 3.06640625 C-3.42398438 2.38449219 -3.21515625 1.70257813 -3 1 C-1 0 -1 0 0 0 Z " fill="#F7DF5D" transform="translate(110,35)"/>
<path d="M0 0 C1.69140625 1.546875 1.69140625 1.546875 3 3 C1.35333797 2.8864371 -0.29236082 2.75882619 -1.9375 2.625 C-2.85402344 2.55539063 -3.77054687 2.48578125 -4.71484375 2.4140625 C-5.84599609 2.20910156 -5.84599609 2.20910156 -7 2 C-7.33 1.34 -7.66 0.68 -8 0 C-5.06317146 -1.46841427 -3.13175678 -0.76696084 0 0 Z " fill="#6E645C" transform="translate(73,14)"/>
<path d="M0 0 C2.31 0.66 4.62 1.32 7 2 C5.8125 3.5625 5.8125 3.5625 4 5 C1.3125 4.6875 1.3125 4.6875 -1 4 C-0.67 2.68 -0.34 1.36 0 0 Z " fill="#5B6A7C" transform="translate(26,103)"/>
<path d="M0 0 C0.33 0.99 0.66 1.98 1 3 C3.64 3.33 6.28 3.66 9 4 C9 4.33 9 4.66 9 5 C7.88625 5.0825 6.7725 5.165 5.625 5.25 C1.94246056 5.57873787 1.94246056 5.57873787 0.5625 8.0625 C0.2840625 9.0215625 0.2840625 9.0215625 0 10 C-0.74926071 6.33694766 -1.2380014 3.57644848 0 0 Z " fill="#AA8129" transform="translate(76,65)"/>
<path d="M0 0 C1.32 0.33 2.64 0.66 4 1 C4.33 2.65 4.66 4.3 5 6 C3.35 5.67 1.7 5.34 0 5 C0 3.35 0 1.7 0 0 Z " fill="#E2DFD7" transform="translate(51,37)"/>
<path d="M0 0 C1.875 0.3125 1.875 0.3125 4 1 C6 4 6 4 5.625 6.1875 C5.41875 6.785625 5.2125 7.38375 5 8 C3.5 6.6875 3.5 6.6875 2 5 C2 4.01 2 3.02 2 2 C1.34 2 0.68 2 0 2 C0 1.34 0 0.68 0 0 Z " fill="#A27E50" transform="translate(112,20)"/>
<path d="M0 0 C0.66 0 1.32 0 2 0 C2.33 1.32 2.66 2.64 3 4 C1.1875 5.5625 1.1875 5.5625 -1 7 C-1.99 6.67 -2.98 6.34 -4 6 C-3.34 5.01 -2.68 4.02 -2 3 C-1.34 3 -0.68 3 0 3 C0 2.01 0 1.02 0 0 Z " fill="#7C5B26" transform="translate(101,113)"/>
<path d="M0 0 C1.65 0 3.3 0 5 0 C5.16702456 4.34263862 5.12999997 7.20960634 3 11 C2.92652344 10.06027344 2.92652344 10.06027344 2.8515625 9.1015625 C2.77679688 8.28429687 2.70203125 7.46703125 2.625 6.625 C2.55539063 5.81289062 2.48578125 5.00078125 2.4140625 4.1640625 C2.17107412 1.79665809 2.17107412 1.79665809 0 0 Z " fill="#D6A62F" transform="translate(73,85)"/>
<path d="M0 0 C1.67542976 0.28604898 3.34385343 0.61781233 5 1 C5 2.98 5 4.96 5 7 C4.01 7.495 4.01 7.495 3 8 C3 6.02 3 4.04 3 2 C1.68 1.67 0.36 1.34 -1 1 C-0.67 0.67 -0.34 0.34 0 0 Z " fill="#080E16" transform="translate(45,89)"/>
<path d="M0 0 C1.9453125 0.77734375 1.9453125 0.77734375 4.125 1.9375 C5.21167969 2.50791016 5.21167969 2.50791016 6.3203125 3.08984375 C6.87460937 3.39019531 7.42890625 3.69054687 8 4 C7.34 4.66 6.68 5.32 6 6 C3.36 5.01 0.72 4.02 -2 3 C-2 2.34 -2 1.68 -2 1 C-1.34 0.67 -0.68 0.34 0 0 Z " fill="#D4AB45" transform="translate(46,62)"/>
<path d="M0 0 C0.33 0 0.66 0 1 0 C1.36630156 3.93774177 1.30233203 5.56539771 -1 8.875 C-1.66 9.57625 -2.32 10.2775 -3 11 C-3.66 10.67 -4.32 10.34 -5 10 C-4.54625 9.46375 -4.0925 8.9275 -3.625 8.375 C-1.78311688 5.68301698 -0.92028067 3.11479612 0 0 Z " fill="#64512C" transform="translate(83,37)"/>
<path d="M0 0 C0.66 0 1.32 0 2 0 C1.46930939 3.82097239 0.50298434 6.06171403 -2 9 C-2.6875 6.75 -2.6875 6.75 -3 4 C-1.6875 1.6875 -1.6875 1.6875 0 0 Z " fill="#F0CB50" transform="translate(114,26)"/>
<path d="M0 0 C3.25 -0.375 3.25 -0.375 7 0 C9.4375 3 9.4375 3 11 6 C8.625 5.6875 8.625 5.6875 6 5 C5.34 4.01 4.68 3.02 4 2 C1.94996045 0.80767387 1.94996045 0.80767387 0 0 Z " fill="#B08B39" transform="translate(65,25)"/>
<path d="M0 0 C0 0.66 0 1.32 0 2 C-2.90548882 4.04169485 -4.40142046 5 -8 5 C-5.96115496 0.48541456 -5.19128917 0 0 0 Z " fill="#BEB6A7" transform="translate(57,22)"/>
<path d="M0 0 C1.33332095 2.6666419 0.67102033 4.16680303 0 7 C-1.66666667 7 -3.33333333 7 -5 7 C-3.70700306 4.11562221 -2.34058637 2.12780579 0 0 Z " fill="#34516E" transform="translate(38,91)"/>
<path d="M0 0 C0.66 0.33 1.32 0.66 2 1 C2 2.98 2 4.96 2 7 C1.01 6.01 0.02 5.02 -1 4 C-1.66 4.99 -2.32 5.98 -3 7 C-2.625 4.0625 -2.625 4.0625 -2 1 C-1.34 0.67 -0.68 0.34 0 0 Z " fill="#F3CE48" transform="translate(72,88)"/>
<path d="M0 0 C2.97 0.33 5.94 0.66 9 1 C7.3125 2.625 7.3125 2.625 5 4 C2.25 3.1875 2.25 3.1875 0 2 C0 1.34 0 0.68 0 0 Z " fill="#23394C" transform="translate(45,81)"/>
<path d="M0 0 C1.65 0.99 3.3 1.98 5 3 C4.01 3.495 4.01 3.495 3 4 C2.67 4.66 2.34 5.32 2 6 C-0.0625 6.625 -0.0625 6.625 -2 7 C-1.34 4.69 -0.68 2.38 0 0 Z " fill="#778F9F" transform="translate(17,79)"/>
<path d="M0 0 C1.32 0 2.64 0 4 0 C3.67 1.65 3.34 3.3 3 5 C2.01 5.33 1.02 5.66 0 6 C0 4.02 0 2.04 0 0 Z " fill="#DDB760" transform="translate(99,66)"/>
<path d="M0 0 C1.65 0.33 3.3 0.66 5 1 C4.67 1.66 4.34 2.32 4 3 C1.93359375 3.6328125 1.93359375 3.6328125 -0.5625 4.125 C-1.38878906 4.29257812 -2.21507813 4.46015625 -3.06640625 4.6328125 C-3.70449219 4.75398438 -4.34257813 4.87515625 -5 5 C-4.67 4.34 -4.34 3.68 -4 3 C-3.01 3 -2.02 3 -1 3 C-0.67 2.01 -0.34 1.02 0 0 Z " fill="#C0942E" transform="translate(83,48)"/>
<path d="M0 0 C-5.02296004 1.13016601 -8.97874074 0.77916092 -14 0 C-14 -0.33 -14 -0.66 -14 -1 C-12.41870971 -1.22331199 -10.83478911 -1.42804644 -9.25 -1.625 C-8.36828125 -1.74101562 -7.4865625 -1.85703125 -6.578125 -1.9765625 C-3.77140122 -2.00207817 -2.36615134 -1.44843844 0 0 Z " fill="#A9A7A7" transform="translate(74,24)"/>
<path d="M0 0 C0.33 0.66 0.66 1.32 1 2 C1.66 2 2.32 2 3 2 C2.67 3.32 2.34 4.64 2 6 C1.34 6 0.68 6 0 6 C-0.66 6.99 -1.32 7.98 -2 9 C-1.125 2.25 -1.125 2.25 0 0 Z " fill="#C49A34" transform="translate(58,92)"/>
<path d="M0 0 C0.99 0.66 1.98 1.32 3 2 C2.34 3.65 1.68 5.3 1 7 C0.01 7 -0.98 7 -2 7 C-1.34 4.69 -0.68 2.38 0 0 Z " fill="#F3CF4F" transform="translate(87,63)"/>
<path d="M0 0 C0.66 0.33 1.32 0.66 2 1 C2 5 2 5 0.625 6.75 C-1 8 -1 8 -3 8 C-3 6.68 -3 5.36 -3 4 C-2.01 4 -1.02 4 0 4 C0 2.68 0 1.36 0 0 Z " fill="#0A0C07" transform="translate(72,55)"/>
<path d="M0 0 C1.65 0 3.3 0 5 0 C3.71937515 1.7074998 2.38232443 3.37373596 1 5 C0.34 5 -0.32 5 -1 5 C-0.67 3.35 -0.34 1.7 0 0 Z " fill="#E3B745" transform="translate(76,53)"/>
<path d="M0 0 C0.99 0 1.98 0 3 0 C3.185625 0.9590625 3.185625 0.9590625 3.375 1.9375 C3.684375 2.9584375 3.684375 2.9584375 4 4 C4.66 4.33 5.32 4.66 6 5 C4.02 5.99 4.02 5.99 2 7 C1.34 4.69 0.68 2.38 0 0 Z " fill="#B48F3D" transform="translate(80,29)"/>
<path d="M0 0 C3.68754757 0.49831724 5.60490662 1.10067643 8 4 C7.34 5.32 6.68 6.64 6 8 C5.566875 7.236875 5.13375 6.47375 4.6875 5.6875 C3.26313215 3.41906232 1.96739903 1.7800277 0 0 Z " fill="#5B4628" transform="translate(71,26)"/>
<path d="M0 0 C0 0.33 0 0.66 0 1 C-2.31 1.66 -4.62 2.32 -7 3 C-7 3.66 -7 4.32 -7 5 C-7.99 5.33 -8.98 5.66 -10 6 C-10.33 4.68 -10.66 3.36 -11 2 C-7.17010894 0.19769832 -4.21878192 -0.19622241 0 0 Z " fill="#F5DD8E" transform="translate(101,20)"/>
<path d="M0 0 C0.33 0 0.66 0 1 0 C1 1.65 1 3.3 1 5 C2.32 4.67 3.64 4.34 5 4 C5 4.99 5 5.98 5 7 C3.02 7 1.04 7 -1 7 C-0.67 4.69 -0.34 2.38 0 0 Z " fill="#C19A3D" transform="translate(98,67)"/>
<path d="M0 0 C0.66 0 1.32 0 2 0 C2.33 1.98 2.66 3.96 3 6 C0.69 5.67 -1.62 5.34 -4 5 C-2.68 4.34 -1.36 3.68 0 3 C0 2.01 0 1.02 0 0 Z " fill="#D1B567" transform="translate(48,51)"/>
<path d="M0 0 C2 1.75 2 1.75 4 4 C4 5.32 4 6.64 4 8 C3.34 8 2.68 8 2 8 C1.34 5.36 0.68 2.72 0 0 Z " fill="#BB9023" transform="translate(95,94)"/>
<path d="M0 0 C1.65 0 3.3 0 5 0 C5 1.65 5 3.3 5 5 C2.525 4.01 2.525 4.01 0 3 C0 2.01 0 1.02 0 0 Z " fill="#2D2C1C" transform="translate(89,72)"/>
<path d="M0 0 C2.99324263 1.0975223 3.84610901 1.67682892 5.25 4.625 C5.4975 5.40875 5.745 6.1925 6 7 C4.125 6.875 4.125 6.875 2 6 C0.75 2.9375 0.75 2.9375 0 0 Z " fill="#BF9735" transform="translate(54,53)"/>
<path d="M0 0 C0.33 1.32 0.66 2.64 1 4 C-2.20395416 4 -4.09399739 3.25664978 -7 2 C-7 1.67 -7 1.34 -7 1 C-5.5459375 1.0309375 -5.5459375 1.0309375 -4.0625 1.0625 C-1.12534105 1.35618499 -1.12534105 1.35618499 0 0 Z " fill="#EBC860" transform="translate(38,50)"/>
<path d="M0 0 C0.66 0.33 1.32 0.66 2 1 C1.38125 1.2475 0.7625 1.495 0.125 1.75 C-2.35068687 3.20628639 -2.95125002 4.37812506 -4 7 C-4.33 5.68 -4.66 4.36 -5 3 C-2.625 1.4375 -2.625 1.4375 0 0 Z " fill="#8B8886" transform="translate(59,25)"/>
</svg>
