<?xml version="1.0" encoding="UTF-8"?>
<svg version="1.1" xmlns="http://www.w3.org/2000/svg" width="128" height="128">
<path d="M0 0 C4.81494144 0.65679919 4.81494144 0.65679919 9.375 -0.5 C15.3115624 -1.10054777 20.74762121 -1.26934091 25.8125 2.1640625 C30.37229793 6.06268973 33.2340628 9.90837578 35.375 15.5 C36.66880408 18.1150525 38.00811139 20.70313669 39.3515625 23.29296875 C40.375 25.5 40.375 25.5 40.375 27.5 C41.035 27.5 41.695 27.5 42.375 27.5 C42.35179688 28.30179688 42.32859375 29.10359375 42.3046875 29.9296875 C42.19102646 37.090333 42.49055649 44.07005887 43.25 51.1875 C43.32847168 51.96528809 43.40694336 52.74307617 43.48779297 53.54443359 C43.90906456 57.21620769 44.29196791 59.37545187 46.375 62.5 C46.34664063 63.5725 46.31828125 64.645 46.2890625 65.75 C46.39133644 70.21286264 47.62026999 72.60563655 49.75 76.5 C56.50131836 88.946875 56.50131836 88.946875 55.375 95.5 C53.58203125 97.125 53.58203125 97.125 51.1875 98.5 C48.28480175 100.26057903 46.23972603 101.64203767 43.875 104.125 C40.95418208 106.89977702 38.18304618 108.07232349 34.4609375 109.5078125 C32.17440949 110.59541197 30.90333054 111.48109423 29.375 113.5 C28.83805606 115.73942283 28.83805606 115.73942283 28.75 118.125 C28.45833333 122.41666667 28.45833333 122.41666667 27.375 123.5 C20.08088235 123.97058824 20.08088235 123.97058824 17.5 122.25 C15.17620336 118.63520522 14.375 116.96209517 14.375 112.5 C13.715 112.5 13.055 112.5 12.375 112.5 C12.560625 113.263125 12.74625 114.02625 12.9375 114.8125 C13.375 117.5 13.375 117.5 12.375 120.5 C6.58865095 123.24090218 0.68296903 123.85044272 -5.625 123.5 C-6.3125 121.1875 -6.3125 121.1875 -6.625 118.5 C-5.14453125 116.83203125 -5.14453125 116.83203125 -3.625 115.5 C-4.20507812 115.47421875 -4.78515625 115.4484375 -5.3828125 115.421875 C-10.94394254 115.01809658 -14.06167501 113.89596279 -18.625 110.5 C-20.85102615 109.73060319 -20.85102615 109.73060319 -22.625 109.5 C-22.625 108.84 -22.625 108.18 -22.625 107.5 C-23.25148438 107.32984375 -23.87796875 107.1596875 -24.5234375 106.984375 C-25.34070312 106.74203125 -26.15796875 106.4996875 -27 106.25 C-27.81210937 106.01796875 -28.62421875 105.7859375 -29.4609375 105.546875 C-31.625 104.5 -31.625 104.5 -32.953125 102.7734375 C-35.09380491 95.52997408 -31.70774814 86.63640016 -28.33203125 80.20703125 C-27.42188015 76.72230908 -27.89503346 73.89937055 -28.33422852 70.35131836 C-28.85924029 65.20302914 -28.72832867 60.04453798 -28.6875 54.875 C-28.68298828 53.77542969 -28.67847656 52.67585938 -28.67382812 51.54296875 C-28.66217139 48.86191997 -28.64581017 46.18099068 -28.625 43.5 C-30.605 43.995 -30.605 43.995 -32.625 44.5 C-32.625 43.18 -32.625 41.86 -32.625 40.5 C-31.965 40.5 -31.305 40.5 -30.625 40.5 C-30.955 39.84 -31.285 39.18 -31.625 38.5 C-32.45733798 30.8424906 -29.86284477 22.85676715 -25.625 16.5 C-25.33625 15.38625 -25.0475 14.2725 -24.75 13.125 C-23.35439224 8.62804166 -21.81411281 5.83779116 -17.7265625 3.33984375 C-11.4959099 0.10870606 -7.02563868 -0.63257666 0 0 Z " fill="#EECC60" transform="translate(56.625,2.5)"/>
<path d="M0 0 C-0.33 1.32 -0.66 2.64 -1 4 C-1.99 4 -2.98 4 -4 4 C-4 3.67 -4 3.34 -4 3 C-4.99 3 -5.98 3 -7 3 C-7.020625 4.216875 -7.04125 5.43375 -7.0625 6.6875 C-7.07410156 7.37199219 -7.08570313 8.05648437 -7.09765625 8.76171875 C-6.98887774 11.25492215 -6.54111139 13.56712913 -6 16 C-5.3709375 15.71125 -4.741875 15.4225 -4.09375 15.125 C1.59660958 12.65689223 5.80584321 11.54117357 12 12 C12 11.34 12 10.68 12 10 C12.66 10 13.32 10 14 10 C16.53906064 12.61373889 17.92256852 14.12889581 18.25 17.8125 C18.1675 18.534375 18.085 19.25625 18 20 C18.66 20.33 19.32 20.66 20 21 C18.948125 21.556875 17.89625 22.11375 16.8125 22.6875 C14.23333651 24.14439275 12.71024909 25.30500096 10.625 27.5 C7.63429111 30.34829418 4.89608703 31.53836917 1.0859375 33.0078125 C-1.20059051 34.09541197 -2.47166946 34.98109423 -4 37 C-4.53694394 39.23942283 -4.53694394 39.23942283 -4.625 41.625 C-4.91666667 45.91666667 -4.91666667 45.91666667 -6 47 C-13.29411765 47.47058824 -13.29411765 47.47058824 -15.875 45.75 C-18.19879664 42.13520522 -19 40.46209517 -19 36 C-19.66 36 -20.32 36 -21 36 C-20.7215625 37.1446875 -20.7215625 37.1446875 -20.4375 38.3125 C-20 41 -20 41 -21 44 C-26.78634905 46.74090218 -32.69203097 47.35044272 -39 47 C-39.6875 44.6875 -39.6875 44.6875 -40 42 C-38.51953125 40.33203125 -38.51953125 40.33203125 -37 39 C-37.87011719 38.96132812 -37.87011719 38.96132812 -38.7578125 38.921875 C-44.31894254 38.51809658 -47.43667501 37.39596279 -52 34 C-54.22602615 33.23060319 -54.22602615 33.23060319 -56 33 C-56.125 26.375 -56.125 26.375 -55 23 C-56.32 22.67 -57.64 22.34 -59 22 C-59 20.02 -59 18.04 -59 16 C-58.34 16 -57.68 16 -57 16 C-56.67 17.65 -56.34 19.3 -56 21 C-51.38 21.66 -46.76 22.32 -42 23 C-42 24.65 -42 26.3 -42 28 C-41.0409375 28.2165625 -41.0409375 28.2165625 -40.0625 28.4375 C-38 29 -38 29 -37 30 C-35.189715 30.09879565 -33.37547273 30.12971514 -31.5625 30.125 C-30.57378906 30.12757812 -29.58507812 30.13015625 -28.56640625 30.1328125 C-26.01090924 30.17228415 -26.01090924 30.17228415 -24 29 C-22.32345271 29.27942455 -20.65391846 29.60828247 -19 30 C-19 29.34 -19 28.68 -19 28 C-20.98 28 -22.96 28 -25 28 C-25.66 26.35 -26.32 24.7 -27 23 C-26.34 22.34 -25.68 21.68 -25 21 C-25.495 20.01 -25.495 20.01 -26 19 C-25.34 19 -24.68 19 -24 19 C-23.9175 17.9275 -23.835 16.855 -23.75 15.75 C-22.94523098 11.7261549 -22.12270126 10.51830747 -19 8 C-20.98 7.67 -22.96 7.34 -25 7 C-23.75 4.5 -23.75 4.5 -22 2 C-20.68 2 -19.36 2 -18 2 C-17.01 1.34 -16.02 0.68 -15 0 C-10.00257239 -1.38817434 -4.93680059 -1.6456002 0 0 Z " fill="#455D73" transform="translate(90,79)"/>
<path d="M0 0 C4.26774878 4.78900054 6.57750071 10.62026069 7 17 C6.59595916 23.58586575 4.91499425 29.42196753 0 34 C-7.24962982 39.42002685 -15.1656 40.25607583 -24 39 C-27.421875 37.46875 -27.421875 37.46875 -30 36 C-30 35.34 -30 34.68 -30 34 C-30.5775 33.773125 -31.155 33.54625 -31.75 33.3125 C-34.64905449 31.62138488 -36.12809374 29.77558514 -38 27 C-39.74679401 20.31560158 -40.67096225 11.89692268 -37.90625 5.44921875 C-33.55947968 -0.68943827 -27.49258403 -4.22573615 -20.16796875 -5.8125 C-13.3292143 -6.40395984 -5.48987042 -4.12045954 0 0 Z " fill="#C9CAC9" transform="translate(87,21)"/>
<path d="M0 0 C4.81494144 0.65679919 4.81494144 0.65679919 9.375 -0.5 C15.30874057 -1.10026231 20.7350218 -1.26417009 25.8046875 2.15234375 C28.67983705 4.61982285 31.25807908 7.35175864 33.375 10.5 C33.375 11.16 33.375 11.82 33.375 12.5 C30.90222205 11.40098758 29.12626419 10.28487714 27.0625 8.5 C23.81435262 6.08277404 21.28752314 5.42059368 17.375 4.5 C17.375 5.49 17.375 6.48 17.375 7.5 C19.355 7.5 21.335 7.5 23.375 7.5 C24.30923645 10.51031744 24.41949911 11.36650268 23.375 14.5 C22.69695312 14.39300781 22.01890625 14.28601562 21.3203125 14.17578125 C12.18596211 12.99919595 4.28576404 14.22849509 -3.15234375 19.9609375 C-5.78038881 22.70748857 -7.22755654 26.00205148 -8.625 29.5 C-9.285 29.5 -9.945 29.5 -10.625 29.5 C-10.625 33.79 -10.625 38.08 -10.625 42.5 C-13.56378727 42.21840367 -16.50060413 41.92518615 -19.4375 41.625 C-20.27087891 41.54636719 -21.10425781 41.46773437 -21.96289062 41.38671875 C-22.76533203 41.30292969 -23.56777344 41.21914063 -24.39453125 41.1328125 C-25.13292236 41.05949707 -25.87131348 40.98618164 -26.63208008 40.91064453 C-28.625 40.5 -28.625 40.5 -31.625 38.5 C-32.76429334 31.01321523 -29.75002037 22.68753056 -25.625 16.5 C-25.191875 14.829375 -25.191875 14.829375 -24.75 13.125 C-23.35439224 8.62804166 -21.81411281 5.83779116 -17.7265625 3.33984375 C-11.4959099 0.10870606 -7.02563868 -0.63257666 0 0 Z " fill="#EFD36B" transform="translate(56.625,2.5)"/>
<path d="M0 0 C0.4125 0.37511719 0.825 0.75023438 1.25 1.13671875 C1.8275 1.64847656 2.405 2.16023438 3 2.6875 C3.8353125 3.43580078 3.8353125 3.43580078 4.6875 4.19921875 C5.8321875 5.09060547 5.8321875 5.09060547 7 6 C7.49757813 6.4328833 7.99515625 6.8657666 8.5078125 7.31176758 C15.07759901 12.31998551 22.06103561 11.56520944 30 11.3125 C31.36063591 11.28737508 32.72131673 11.26456932 34.08203125 11.24414062 C37.38918002 11.18550324 40.69400088 11.10347166 44 11 C43.01 11.99 42.02 12.98 41 14 C41 13.34 41 12.68 41 12 C39.68 13.32 38.36 14.64 37 16 C39.31 16.33 41.62 16.66 44 17 C43.236875 17.66 42.47375 18.32 41.6875 19 C38.41871885 22.25015561 37.29482625 25.6119777 36 30 C36.495 30.99 36.495 30.99 37 32 C36.34 32.66 35.68 33.32 35 34 C35.3185177 36.10820797 35.3185177 36.10820797 36 38 C37.98 38 39.96 38 42 38 C42 38.66 42 39.32 42 40 C41.030625 39.979375 40.06125 39.95875 39.0625 39.9375 C36.12534105 39.64381501 36.12534105 39.64381501 35 41 C30.06714791 41.43038307 25.47927047 41.55110076 20.8125 39.8125 C19 38 19 38 18.88671875 35.38671875 C18.92410156 34.59910156 18.96148437 33.81148437 19 33 C18.32453125 33.02320313 17.6490625 33.04640625 16.953125 33.0703125 C16.06109375 33.08835938 15.1690625 33.10640625 14.25 33.125 C13.36828125 33.14820313 12.4865625 33.17140625 11.578125 33.1953125 C8.8418892 32.98802191 7.26921357 32.52656186 5 31 C4.25 28.375 4.25 28.375 4 26 C3.34 26 2.68 26 2 26 C2.33 27.98 2.66 29.96 3 32 C3.99 32.33 4.98 32.66 6 33 C5.67 35.64 5.34 38.28 5 41 C3.53633658 40.60246179 2.0791065 40.18118616 0.625 39.75 C-0.18710937 39.51796875 -0.99921875 39.2859375 -1.8359375 39.046875 C-4 38 -4 38 -5.328125 36.2734375 C-7.24985001 29.77085637 -4.52641162 21.77932311 -1.8125 15.8125 C0.22789383 11.23661677 0.09305508 7.82246154 -0.73828125 2.93359375 C-0.82464844 2.29550781 -0.91101563 1.65742187 -1 1 C-0.67 0.67 -0.34 0.34 0 0 Z " fill="#53728E" transform="translate(29,69)"/>
<path d="M0 0 C5.49725821 2.39880358 8.61458291 6.59982174 11 12 C11.77693345 16.9205785 10.95524846 20.12809496 8.27734375 24.359375 C4.98652244 28.58611797 1.22696778 31.5471928 -4.19921875 32.30859375 C-10.34619574 32.62703997 -13.69505249 31.53472679 -18.50390625 27.703125 C-20.17172423 25.80451236 -20.60803979 24.46988626 -21 22 C-19.27473958 23.00911458 -17.54947917 24.01822917 -15.82421875 25.02734375 C-11.08773359 27.55279301 -6.23542798 27.72478679 -1 27 C1.93729301 25.65157978 4.45821176 23.9879908 7 22 C6.67 21.67 6.34 21.34 6 21 C5.01 21.33 4.02 21.66 3 22 C0.49962266 19.82575883 -0.43628586 18.26954202 -1 15 C-2.051875 15.165 -3.10375 15.33 -4.1875 15.5 C-10.10578512 16.25711395 -16.04521179 16.08169679 -22 16 C-22.1949987 10.61503601 -21.49021841 8.22500123 -18 4 C-12.71960951 -1.01637097 -6.90016509 -0.91116348 0 0 Z " fill="#D0A551" transform="translate(78,23)"/>
<path d="M0 0 C1.5 1.0625 1.5 1.0625 3 3 C2.96132812 4.05058594 2.92265625 5.10117188 2.8828125 6.18359375 C3.02063248 10.67193095 4.23270812 13.08266628 6.375 17 C9.70767914 23.14419857 12.43196198 28.8726274 12 36 C10.02 36.495 10.02 36.495 8 37 C7.71125 36.0925 7.4225 35.185 7.125 34.25 C6.23468224 31.67797092 5.28505587 29.38653234 4 27 C3.34 27 2.68 27 2 27 C2 27.66 2 28.32 2 29 C1.24074219 29.12117188 0.48148438 29.24234375 -0.30078125 29.3671875 C-1.29464844 29.53476563 -2.28851563 29.70234375 -3.3125 29.875 C-4.29863281 30.03742188 -5.28476563 30.19984375 -6.30078125 30.3671875 C-9.20059827 30.88085454 -9.20059827 30.88085454 -12 33 C-13.32 33 -14.64 33 -16 33 C-17.80098121 29.17291493 -18.28143104 26.22146566 -18 22 C-17.67 21.34 -17.34 20.68 -17 20 C-14.4375 19.375 -14.4375 19.375 -12 19 C-12 19.66 -12 20.32 -12 21 C-11.34 19.68 -10.68 18.36 -10 17 C-11.98 16.67 -13.96 16.34 -16 16 C-13.50926314 14.70481683 -11.1765455 13.72061365 -8.5 12.8125 C-3.91638202 10.43884069 -3.11606223 8.63905951 -1 4 C-0.23959428 1.73014106 -0.23959428 1.73014106 0 0 Z " fill="#455E73" transform="translate(100,62)"/>
<path d="M0 0 C3.32076155 1.59742795 6.47627702 3.39865355 9.625 5.3125 C10.58664063 5.88613281 11.54828125 6.45976563 12.5390625 7.05078125 C15.32469817 9.25718156 16.10006232 10.59907272 17 14 C17.23608151 16.70549407 17.09234983 19.27567998 17 22 C12.71 22 8.42 22 4 22 C3.67 20.35 3.34 18.7 3 17 C2.34 17 1.68 17 1 17 C1.33 18.98 1.66 20.96 2 23 C2.99 23.33 3.98 23.66 5 24 C4.67 26.64 4.34 29.28 4 32 C2.53633658 31.60246179 1.0791065 31.18118616 -0.375 30.75 C-1.18710937 30.51796875 -1.99921875 30.2859375 -2.8359375 30.046875 C-5 29 -5 29 -6.32421875 27.265625 C-8.95147894 18.45746945 -3.69479336 7.82675692 0 0 Z " fill="#F4D766" transform="translate(30,78)"/>
<path d="M0 0 C-0.61488281 0.25394531 -1.22976562 0.50789063 -1.86328125 0.76953125 C-2.67152344 1.11371094 -3.47976562 1.45789063 -4.3125 1.8125 C-5.51326172 2.31716797 -5.51326172 2.31716797 -6.73828125 2.83203125 C-9.04939187 4.02550634 -10.43675732 4.9271108 -12 7 C-12.53694394 9.23942283 -12.53694394 9.23942283 -12.625 11.625 C-12.91666667 15.91666667 -12.91666667 15.91666667 -14 17 C-21.29411765 17.47058824 -21.29411765 17.47058824 -23.875 15.75 C-26.19879664 12.13520522 -27 10.46209517 -27 6 C-27.66 6 -28.32 6 -29 6 C-28.814375 6.763125 -28.62875 7.52625 -28.4375 8.3125 C-28 11 -28 11 -29 14 C-34.78634905 16.74090218 -40.69203097 17.35044272 -47 17 C-47.6875 14.6875 -47.6875 14.6875 -48 12 C-46.5625 10.1875 -46.5625 10.1875 -45 9 C-45.33 8.34 -45.66 7.68 -46 7 C-45.24074219 6.80664062 -44.48148438 6.61328125 -43.69921875 6.4140625 C-42.70535156 6.15367188 -41.71148437 5.89328125 -40.6875 5.625 C-39.70136719 5.36976562 -38.71523438 5.11453125 -37.69921875 4.8515625 C-34.8194184 4.08086826 -34.8194184 4.08086826 -32 2 C-28.98376387 1.86250775 -26.02386153 2.00405568 -23.0078125 2.125 C-19.86422666 1.99435747 -17.86247075 1.23019228 -15 0 C-12.6670386 -0.04166002 -10.3329614 -0.04166002 -8 0 C-7.0925 -0.185625 -6.185 -0.37125 -5.25 -0.5625 C-3 -1 -3 -1 0 0 Z " fill="#293136" transform="translate(98,109)"/>
<path d="M0 0 C2.11164312 1.91649127 3.40353332 3.57955052 5 6 C4.67 6.99 4.34 7.98 4 9 C3.46375 8.2575 2.9275 7.515 2.375 6.75 C-0.99282763 2.85041011 -3.57085974 0.33033638 -8.84375 -0.38671875 C-13.69900943 -0.5609793 -17.13243402 -0.41095231 -21.5625 1.6875 C-26.13386825 6.02443911 -26.94031532 8.64189193 -28 15 C-17.605 14.505 -17.605 14.505 -7 14 C-6.34 15.98 -5.68 17.96 -5 20 C-1.39007621 19.34414811 -1.39007621 19.34414811 2 18 C1.61898591 20.4426657 1.2819555 21.72025303 -0.49609375 23.484375 C-5.99031803 27.06612282 -10.49609464 27.99733622 -17 27 C-19.56490816 26.22808478 -21.59656565 25.24978586 -24 24 C-24.763125 23.773125 -25.52625 23.54625 -26.3125 23.3125 C-29.25893373 21.02082932 -29.3120356 17.55448275 -30 14 C-30.99 14.33 -31.98 14.66 -33 15 C-32.63050847 8.59548023 -32.63050847 8.59548023 -29.75 5.875 C-28.8425 5.25625 -27.935 4.6375 -27 4 C-25.31384218 2.35305515 -23.64429829 0.68873879 -22 -1 C-15.98147646 -7.01852354 -6.23511031 -4.33804484 0 0 Z " fill="#969899" transform="translate(84,24)"/>
<path d="M0 0 C9.12812992 2.21889324 14.28583294 5.00248953 19.3125 13 C21.30184601 16.34168358 22.4155181 19.14929573 23 23 C23.66 23 24.32 23 25 23 C24.98839844 23.88300781 24.97679688 24.76601563 24.96484375 25.67578125 C24.91514047 32.28631688 25.08295206 38.74022937 25.77734375 45.3125 C26.15507849 49.87182455 26.07957293 54.42897724 26 59 C24.515 58.505 24.515 58.505 23 58 C22.04738513 53.23692563 21.91666643 48.8333472 22 44 C21.34 44 20.68 44 20 44 C18.13673687 39.61585145 18.13514057 36.86443416 18.89453125 32.21875 C19.18613474 26.0842765 16.6133522 20.75013716 13 16 C13 15.34 13 14.68 13 14 C12.05125 13.71125 11.1025 13.4225 10.125 13.125 C7 12 7 12 5 10 C5.375 6.875 5.375 6.875 6 4 C3.03 3.505 3.03 3.505 0 3 C0 2.01 0 1.02 0 0 Z " fill="#F2D69D" transform="translate(74,7)"/>
<path d="M0 0 C0.66 0 1.32 0 2 0 C2.33 1.65 2.66 3.3 3 5 C7.62 5.66 12.24 6.32 17 7 C17 8.65 17 10.3 17 12 C17.9590625 12.2165625 17.9590625 12.2165625 18.9375 12.4375 C21 13 21 13 22 14 C23.810285 14.09879565 25.62452727 14.12971514 27.4375 14.125 C28.42621094 14.12757812 29.41492188 14.13015625 30.43359375 14.1328125 C32.98909076 14.17228415 32.98909076 14.17228415 35 13 C36.67654729 13.27942455 38.34608154 13.60828247 40 14 C39.46375 14.2475 38.9275 14.495 38.375 14.75 C35.86476467 15.9929943 35.86476467 15.9929943 33.3125 18 C27.1221164 21.7375901 20.14352609 22.70264191 13 22 C9.75 20.0625 9.75 20.0625 7 18 C4.77397385 17.23060319 4.77397385 17.23060319 3 17 C2.875 10.375 2.875 10.375 4 7 C2.68 6.67 1.36 6.34 0 6 C0 4.02 0 2.04 0 0 Z " fill="#50687C" transform="translate(31,95)"/>
<path d="M0 0 C3.88921353 1.47521893 5.2490848 3.25940843 7 7 C9.59361049 14.33165871 9.28931595 20.89611379 6.09765625 28.01171875 C2.8292409 33.37378095 -2.06746211 36.23669614 -8 38 C-15.39299406 38.85397621 -21.50244293 38.92875544 -28 35 C-29.75 32.5 -29.75 32.5 -31 30 C-31.66 29.01 -32.32 28.02 -33 27 C-33 26.01 -33 25.02 -33 24 C-30.75 23.6875 -30.75 23.6875 -28 24 C-26 26.3125 -26 26.3125 -24 29 C-20.10586008 32.32147228 -16.4364358 32.51649409 -11.49609375 32.34765625 C-4.76625886 31.410324 -0.94189947 27.18078215 3 22 C3.66 21.34 4.32 20.68 5 20 C5.28509473 12.58753689 5.14407946 5.6418936 0 0 Z " fill="#C2C4C7" transform="translate(85,22)"/>
<path d="M0 0 C0.68774405 1.32258472 1.34711373 2.65986503 2 4 C2.556875 5.134375 3.11375 6.26875 3.6875 7.4375 C5.04072526 11.11053999 5.26611284 12.39644808 4 16 C3.7525 16.7425 3.505 17.485 3.25 18.25 C2 20 2 20 -0.625 20.75 C-1.800625 20.87375 -1.800625 20.87375 -3 21 C-2.505 21.45375 -2.01 21.9075 -1.5 22.375 C0 24 0 24 0 26 C-4.21712557 26.36146791 -6.71110421 25.72508509 -10 23 C-10.13671875 20.38671875 -10.13671875 20.38671875 -10 18 C-11.04800781 18.03480469 -11.04800781 18.03480469 -12.1171875 18.0703125 C-13.02726562 18.08835937 -13.93734375 18.10640625 -14.875 18.125 C-15.77992187 18.14820312 -16.68484375 18.17140625 -17.6171875 18.1953125 C-20 18 -20 18 -22 16 C-18.37 16 -14.74 16 -11 16 C-11.33 12.37 -11.66 8.74 -12 5 C-10.35 5.33 -8.7 5.66 -7 6 C-7 5.34 -7 4.68 -7 4 C-6.34 3.67 -5.68 3.34 -5 3 C-5 2.34 -5 1.68 -5 1 C-2.525 1.495 -2.525 1.495 0 2 C0 1.34 0 0.68 0 0 Z " fill="#6D889D" transform="translate(58,84)"/>
<path d="M0 0 C5.49725821 2.39880358 8.61458291 6.59982174 11 12 C11.77693345 16.9205785 10.95524846 20.12809496 8.27734375 24.359375 C4.98652244 28.58611797 1.22696778 31.5471928 -4.19921875 32.30859375 C-10.34619574 32.62703997 -13.69505249 31.53472679 -18.50390625 27.703125 C-20.17172423 25.80451236 -20.60803979 24.46988626 -21 22 C-19.27473958 23.00911458 -17.54947917 24.01822917 -15.82421875 25.02734375 C-11.08773359 27.55279301 -6.23542798 27.72478679 -1 27 C1.93729301 25.65157978 4.45821176 23.9879908 7 22 C6.67 21.67 6.34 21.34 6 21 C5.01 21.33 4.02 21.66 3 22 C0.23609263 19.59660228 -0.04065919 18.83736322 -1 15 C3.455 14.505 3.455 14.505 8 14 C6.80814119 8.1707514 6.80814119 8.1707514 3 4 C-1.75717365 2.26180193 -5.95013331 1.44910545 -11 2 C-14.70390021 4.02666238 -16.65363011 5.48044516 -19 9 C-19.07905064 11.33199388 -19.08798769 13.66832622 -19 16 C-19.99 16 -20.98 16 -22 16 C-22.50604514 10.68652603 -21.38433761 8.09682973 -18 4 C-12.71960951 -1.01637097 -6.90016509 -0.91116348 0 0 Z " fill="#6F572A" transform="translate(78,23)"/>
<path d="M0 0 C6.33164973 5.56251224 9.96416796 15.07190795 10.875 23.375 C10.91625 24.57125 10.9575 25.7675 11 27 C9.68 27.33 8.36 27.66 7 28 C6.71125 27.0925 6.4225 26.185 6.125 25.25 C5.23468224 22.67797092 4.28505587 20.38653234 3 18 C2.34 18 1.68 18 1 18 C1 18.66 1 19.32 1 20 C-0.9914056 20.38133299 -2.99279077 20.71325582 -5 21 C-6.71689489 19.28310511 -6.25303054 17.09121863 -6.3125 14.75 C-6.28748547 10.88275408 -6.24485142 9.38360055 -4.125 6.0625 C-3.42375 5.381875 -2.7225 4.70125 -2 4 C-1.29114106 2.68861096 -0.60543548 1.36222983 0 0 Z " fill="#F1D597" transform="translate(101,71)"/>
<path d="M0 0 C-5.75 2 -5.75 2 -8 2 C-8 2.99 -8 3.98 -8 5 C-6.35 5 -4.7 5 -3 5 C-3.020625 5.969375 -3.04125 6.93875 -3.0625 7.9375 C-3.35618499 10.87465895 -3.35618499 10.87465895 -2 12 C-1.70643846 15.62059232 -2.14935681 17.87703962 -4 21 C-3.01 21.66 -2.02 22.32 -1 23 C-2.98 23.66 -4.96 24.32 -7 25 C-7 24.01 -7 23.02 -7 22 C-8.32 21.67 -9.64 21.34 -11 21 C-10.01 20.67 -9.02 20.34 -8 20 C-8 18.68 -8 17.36 -8 16 C-8 15.34 -8 14.68 -8 14 C-9.32 14.33 -10.64 14.66 -12 15 C-12 14.01 -12 13.02 -12 12 C-11.01 11.67 -10.02 11.34 -9 11 C-9.99 10.67 -10.98 10.34 -12 10 C-13.29042763 12.26601865 -13.29042763 12.26601865 -14 15 C-12.73647948 17.32511472 -12.73647948 17.32511472 -11 19 C-13.86724686 18.42655063 -14.8614515 18.1385485 -17 16 C-16.77256695 13.04337034 -16.38764062 11.44966312 -14.4375 9.1875 C-13.963125 8.795625 -13.48875 8.40375 -13 8 C-15.97 7.505 -15.97 7.505 -19 7 C-17.75 4.5 -17.75 4.5 -16 2 C-14.68 2 -13.36 2 -12 2 C-11.01 1.34 -10.02 0.68 -9 0 C-5.62709561 -0.95133201 -3.33379087 -1.11126362 0 0 Z " fill="#3F576C" transform="translate(84,79)"/>
<path d="M0 0 C5.875 3.75 5.875 3.75 7 6 C12.97591554 9.05314958 19.47176582 8.71532779 26 8 C29.90034293 6.69837393 33.43347425 5.03801471 37 3 C35.27407401 6.85377995 33.64909622 7.87843243 30 10 C28.2958946 11.62836738 26.61974559 13.28769752 25 15 C25.66 15 26.32 15 27 15 C27 15.66 27 16.32 27 17 C28.65 17.33 30.3 17.66 32 18 C32 18.66 32 19.32 32 20 C31.01 19.90460938 30.02 19.80921875 29 19.7109375 C17.71824278 18.70935452 17.71824278 18.70935452 7 22 C8 19 8 19 9.77734375 17.83203125 C10.49019531 17.49558594 11.20304687 17.15914062 11.9375 16.8125 C12.64777344 16.46832031 13.35804687 16.12414062 14.08984375 15.76953125 C16 15 16 15 18 15 C18 14.01 18 13.02 18 12 C16.68 12 15.36 12 14 12 C14 11.34 14 10.68 14 10 C13.39671875 9.89042969 12.7934375 9.78085937 12.171875 9.66796875 C3.64577894 7.97650131 3.64577894 7.97650131 1 5 C0.25 2.3125 0.25 2.3125 0 0 Z " fill="#D7A533" transform="translate(51,51)"/>
<path d="M0 0 C9.0913521 2.20995318 14.26839234 4.99571347 19.3125 12.9375 C21.41660313 16.6128133 22.77356318 19.69770044 23 24 C21.68 24 20.36 24 19 24 C18.67 24.66 18.34 25.32 18 26 C17.54625 24.7625 17.0925 23.525 16.625 22.25 C16.34527344 21.52039063 16.06554687 20.79078125 15.77734375 20.0390625 C15.22025974 18.57776675 14.69370944 17.10468912 14.1875 15.625 C12.3535822 13.11542827 9.90643003 12.84770876 7 12 C6.34 11.34 5.68 10.68 5 10 C5.375 6.875 5.375 6.875 6 4 C3.03 3.505 3.03 3.505 0 3 C0 2.01 0 1.02 0 0 Z " fill="#F0CA71" transform="translate(74,7)"/>
<path d="M0 0 C1.8871875 0.0309375 1.8871875 0.0309375 3.8125 0.0625 C4.4725 2.0425 5.1325 4.0225 5.8125 6.0625 C9.42242379 5.40664811 9.42242379 5.40664811 12.8125 4.0625 C12.58597501 7.23384992 11.7517256 8.11859944 9.375 10.3125 C4.7590714 12.5799737 0.87444453 12.61785722 -4.1875 12.0625 C-4.8475 11.7325 -5.5075 11.4025 -6.1875 11.0625 C-6.6015625 8.77734375 -6.6015625 8.77734375 -6.8125 6 C-6.88726562 5.08089844 -6.96203125 4.16179688 -7.0390625 3.21484375 C-7.08804688 2.50457031 -7.13703125 1.79429688 -7.1875 1.0625 C-4.43671116 0.14557039 -2.82801087 -0.04636083 0 0 Z " fill="#DBDAD8" transform="translate(73.1875,37.9375)"/>
<path d="M0 0 C0.66 0.66 1.32 1.32 2 2 C1.625 5.125 1.625 5.125 1 8 C-5.20514474 10.13619737 -10.42684522 11.36517527 -17 11 C-17.6875 8.6875 -17.6875 8.6875 -18 6 C-16.75 4.1875 -16.75 4.1875 -15 3 C-14.01 3 -13.02 3 -12 3 C-12 2.34 -12 1.68 -12 1 C-7.94638511 0.22788288 -4.12876411 -0.28150664 0 0 Z " fill="#0F1012" transform="translate(68,115)"/>
<path d="M0 0 C6.27 0 12.54 0 19 0 C19.33 2.97 19.66 5.94 20 9 C17.22890693 9.05392397 14.45886182 9.09363455 11.6875 9.125 C10.90181641 9.14175781 10.11613281 9.15851562 9.30664062 9.17578125 C8.54931641 9.18222656 7.79199219 9.18867187 7.01171875 9.1953125 C5.96697388 9.21102295 5.96697388 9.21102295 4.90112305 9.22705078 C3 9 3 9 0 7 C0 4.69 0 2.38 0 0 Z " fill="#282824" transform="translate(25,34)"/>
<path d="M0 0 C1.32 0.66 2.64 1.32 4 2 C2.68 2.33 1.36 2.66 0 3 C0 3.99 0 4.98 0 6 C1.98 5.34 3.96 4.68 6 4 C5.01 5.98 4.02 7.96 3 10 C3.66 10.33 4.32 10.66 5 11 C4 12 4 12 0.9375 12.0625 C-0.031875 12.041875 -1.00125 12.02125 -2 12 C-1.67 12.99 -1.34 13.98 -1 15 C-1.99 15 -2.98 15 -4 15 C-4 15.66 -4 16.32 -4 17 C-1.69 16.34 0.62 15.68 3 15 C3.1875 17.875 3.1875 17.875 3 21 C2.01 21.66 1.02 22.32 0 23 C-0.33 21.68 -0.66 20.36 -1 19 C-2.98 19 -4.96 19 -7 19 C-7.66 17.35 -8.32 15.7 -9 14 C-8.34 13.34 -7.68 12.68 -7 12 C-7.33 11.34 -7.66 10.68 -8 10 C-7.34 10 -6.68 10 -6 10 C-6 9.01 -6 8.02 -6 7 C-4.02 7.66 -2.04 8.32 0 9 C-0.99 8.01 -1.98 7.02 -3 6 C-1.125 1.125 -1.125 1.125 0 0 Z " fill="#4E6C85" transform="translate(72,88)"/>
<path d="M0 0 C0.66 0.99 1.32 1.98 2 3 C1.67 3.33 1.34 3.66 1 4 C0.71710819 6.25415378 0.5522881 8.50840656 0.37890625 10.7734375 C0 13 0 13 -2 16 C-2.45139459 18.0492094 -2.45139459 18.0492094 -2.625 20.1875 C-2.74875 21.445625 -2.8725 22.70375 -3 24 C-0.36 24.33 2.28 24.66 5 25 C4.67 27.31 4.34 29.62 4 32 C2.53633658 31.60246179 1.0791065 31.18118616 -0.375 30.75 C-1.18710937 30.51796875 -1.99921875 30.2859375 -2.8359375 30.046875 C-5 29 -5 29 -6.32421875 27.265625 C-8.95147894 18.45746945 -3.69479336 7.82675692 0 0 Z " fill="#F1DE87" transform="translate(30,78)"/>
<path d="M0 0 C0.66 0 1.32 0 2 0 C2.061875 0.78375 2.12375 1.5675 2.1875 2.375 C2.72718933 5.14660995 2.72718933 5.14660995 5.0625 6.25 C8.71335669 7.18213362 12.25062223 7.61870735 16 8 C16.3648 13.472 16.3648 13.472 14.8125 15.71875 C12.29653226 17.49727892 10.81750945 17.11678706 7.8125 16.6875 C6.91144531 16.56761719 6.01039062 16.44773437 5.08203125 16.32421875 C4.39496094 16.21722656 3.70789062 16.11023438 3 16 C3.33 13.03 3.66 10.06 4 7 C2.68 6.67 1.36 6.34 0 6 C0 4.02 0 2.04 0 0 Z " fill="#303130" transform="translate(31,95)"/>
<path d="M0 0 C1.98 1.32 3.96 2.64 6 4 C5.01 4.66 4.02 5.32 3 6 C3.66 6.66 4.32 7.32 5 8 C5 8.99 5 9.98 5 11 C4.34 11 3.68 11 3 11 C3.33 14.3 3.66 17.6 4 21 C7.96 21 11.92 21 16 21 C16 21.33 16 21.66 16 22 C11.71 22 7.42 22 3 22 C2.67 20.35 2.34 18.7 2 17 C1.34 17 0.68 17 0 17 C0.26656572 19.93443402 0.26656572 19.93443402 1 23 C1.99 23.66 2.98 24.32 4 25 C1.36 24.67 -1.28 24.34 -4 24 C-4.25 16.375 -4.25 16.375 -2 13 C-1.58136304 10.85565228 -1.58136304 10.85565228 -1.4375 8.5625 C-1.19199256 5.6013796 -0.79029514 2.86726916 0 0 Z " fill="#F3CE62" transform="translate(31,78)"/>
<path d="M0 0 C0 0.33 0 0.66 0 1 C-1.98 1 -3.96 1 -6 1 C-6.66 2.32 -7.32 3.64 -8 5 C-10.31 5 -12.62 5 -15 5 C-16.4606285 7.64738916 -17 8.89448334 -17 12 C-17 12.33 -17 12.66 -17 13 C-18.65 13 -20.3 13 -22 13 C-22.8125 9.875 -22.8125 9.875 -23 6 C-16.84591239 -3.31904696 -9.91818262 -3.23859024 0 0 Z " fill="#C29856" transform="translate(81,26)"/>
<path d="M0 0 C0.66 0.05542969 1.32 0.11085937 2 0.16796875 C4.73624308 1.04976584 6.10688816 2.70387766 8 4.8125 C7.24976562 4.75449219 6.49953125 4.69648437 5.7265625 4.63671875 C-2.24180439 4.28546832 -7.21470663 5.75607461 -14 9.8125 C-15.09054688 10.32296875 -15.09054688 10.32296875 -16.203125 10.84375 C-18.510858 12.0879191 -19.04456579 13.42391448 -20 15.8125 C-20.33 15.8125 -20.66 15.8125 -21 15.8125 C-21.53446444 12.17814179 -21.04395887 10.87981202 -19 7.75 C-14.28621455 2.53931978 -7.04641704 -0.72941426 0 0 Z " fill="#433C2F" transform="translate(53,2.1875)"/>
<path d="M0 0 C0.68774405 1.32258472 1.34711373 2.65986503 2 4 C2.556875 5.134375 3.11375 6.26875 3.6875 7.4375 C5.36543364 11.99189132 4.90566517 14.02884638 2.9375 18.3125 C2.628125 18.869375 2.31875 19.42625 2 20 C0.35 19.67 -1.3 19.34 -3 19 C-3 18.34 -3 17.68 -3 17 C-4.98 17 -6.96 17 -9 17 C-9 16.34 -9 15.68 -9 15 C-7.02 14.67 -5.04 14.34 -3 14 C-3.14230808 12.58297487 -3.28900746 11.1663904 -3.4375 9.75 C-3.51871094 8.96109375 -3.59992187 8.1721875 -3.68359375 7.359375 C-3.97634993 5.17635361 -4.42064419 3.1226818 -5 1 C-3.35 1.33 -1.7 1.66 0 2 C0 1.34 0 0.68 0 0 Z " fill="#6387A8" transform="translate(58,84)"/>
<path d="M0 0 C0.4125 0.37511719 0.825 0.75023438 1.25 1.13671875 C6.89372632 6.13796729 12.80225048 10.5257736 20 13 C19.525625 13.433125 19.05125 13.86625 18.5625 14.3125 C16.76313043 16.02309613 16.76313043 16.02309613 16 19 C14.10221245 17.75296895 12.20685489 16.50223942 10.3125 15.25 C9.25675781 14.55390625 8.20101562 13.8578125 7.11328125 13.140625 C1.54718064 9.31349434 1.54718064 9.31349434 -1 7 C-1.375 3.8125 -1.375 3.8125 -1 1 C-0.67 0.67 -0.34 0.34 0 0 Z " fill="#8098A8" transform="translate(29,69)"/>
<path d="M0 0 C0.33 0 0.66 0 1 0 C2.65890934 5.8061827 2.65890934 5.8061827 0.94140625 8.91796875 C-2.75128086 13.41633304 -6.43415487 16.41169558 -12.3203125 17.3828125 C-18.36684371 17.80810369 -21.80039141 16.45079478 -26.50390625 12.703125 C-28.17172423 10.80451236 -28.60803979 9.46988626 -29 7 C-27.27473958 8.00911458 -25.54947917 9.01822917 -23.82421875 10.02734375 C-19.06001519 12.5675722 -14.26287404 12.67532454 -9 12 C-5.81632282 10.84371334 -3.3393822 9.4676512 -1 7 C0.13478487 3.33054374 0.13478487 3.33054374 0 0 Z " fill="#9C7B39" transform="translate(86,38)"/>
<path d="M0 0 C1.88073663 0.94204455 3.72763596 1.9511172 5.56640625 2.97265625 C5.56640625 3.96265625 5.56640625 4.95265625 5.56640625 5.97265625 C6.0459375 6.54757813 6.52546875 7.1225 7.01953125 7.71484375 C9.15171456 10.82696989 9.11351797 13.35982991 9.31640625 17.09765625 C9.39375 18.33773437 9.47109375 19.5778125 9.55078125 20.85546875 C9.56640625 23.97265625 9.56640625 23.97265625 8.56640625 25.97265625 C7.90640625 25.97265625 7.24640625 25.97265625 6.56640625 25.97265625 C6.62441406 25.03164063 6.68242188 24.090625 6.7421875 23.12109375 C7.37722191 15.2728301 7.37722191 15.2728301 4.50390625 8.28515625 C-1.99259754 3.17088731 -7.44743726 2.53880067 -15.43359375 2.97265625 C-14.43359375 0.97265625 -14.43359375 0.97265625 -11.43359375 -0.02734375 C-12.75359375 -0.68734375 -14.07359375 -1.34734375 -15.43359375 -2.02734375 C-10.27514575 -3.74682642 -4.92498339 -2.07908608 0 0 Z " fill="#B9BCBB" transform="translate(81.43359375,18.02734375)"/>
<path d="M0 0 C6.75388364 0.83357891 10.49223767 4.70365416 14.71875 9.7578125 C15.78515625 11.34375 15.78515625 11.34375 15.78515625 13.34375 C13.35739153 12.26474346 11.67533507 11.24058465 9.72265625 9.40625 C5.81517171 6.66269703 2.10526047 5.98590109 -2.52734375 5.09375 C-3.36330078 4.92101562 -4.19925781 4.74828125 -5.06054688 4.5703125 C-7.10942178 4.14882966 -9.1618222 3.74454756 -11.21484375 3.34375 C-7.72574589 -0.47237172 -5.03203999 -0.15911589 0 0 Z " fill="#292826" transform="translate(74.21484375,1.65625)"/>
<path d="M0 0 C2 0.75 2 0.75 4 3.75 C4.81843256 7.55037382 5.28389924 11.3659912 4.5 15.1875 C3.68043852 19.38775259 4.46772326 23.53273043 5 27.75 C4.01 27.75 3.02 27.75 2 27.75 C-0.89935536 24.85064464 0.00472861 17.01893959 -0.0625 13.1953125 C-0.0625 10.04622473 -0.04441813 6.8987519 0 3.75 C-1.32 4.08 -2.64 4.41 -4 4.75 C-4 3.43 -4 2.11 -4 0.75 C-2 -0.25 -2 -0.25 0 0 Z " fill="#F3E195" transform="translate(28,42.25)"/>
<path d="M0 0 C-0.7734375 0.37125 -0.7734375 0.37125 -1.5625 0.75 C-7.31392437 3.69944839 -11.52621882 6.29075665 -16 11 C-17.299375 11.8971875 -17.299375 11.8971875 -18.625 12.8125 C-21.92902443 15.85568039 -22.65205247 18.7433236 -24 23 C-24.33 23 -24.66 23 -25 23 C-25 20.03 -25 17.06 -25 14 C-24.34 14 -23.68 14 -23 14 C-22.731875 13.030625 -22.46375 12.06125 -22.1875 11.0625 C-21.795625 10.051875 -21.40375 9.04125 -21 8 C-20.01 7.67 -19.02 7.34 -18 7 C-17.67 6.01 -17.34 5.02 -17 4 C-11.53848523 0.42671135 -6.3972125 -0.46525182 0 0 Z " fill="#D5D7D9" transform="translate(74,17)"/>
<path d="M0 0 C0.66 0 1.32 0 2 0 C4.53906064 2.61373889 5.92256852 4.12889581 6.25 7.8125 C6.1675 8.534375 6.085 9.25625 6 10 C6.66 10.33 7.32 10.66 8 11 C4.535 12.485 4.535 12.485 1 14 C-0.00893131 12.90398831 -1.00688225 11.79786082 -2 10.6875 C-2.556875 10.07261719 -3.11375 9.45773438 -3.6875 8.82421875 C-5 7 -5 7 -5 4 C-3.35 3.67 -1.7 3.34 0 3 C0 2.01 0 1.02 0 0 Z " fill="#3D3933" transform="translate(102,89)"/>
<path d="M0 0 C0.66 0.33 1.32 0.66 2 1 C1.814375 1.7425 1.62875 2.485 1.4375 3.25 C1.00796892 5.94990963 1.14877026 7.44631077 2 10 C2.61875 9.34 3.2375 8.68 3.875 8 C6 6 6 6 8 6 C8 4.02 8 2.04 8 0 C8.33 0 8.66 0 9 0 C9 3.3 9 6.6 9 10 C2.5 14 2.5 14 -2 14 C-3.80098121 10.17291493 -4.28143104 7.22146566 -4 3 C-3 1 -3 1 0 0 Z " fill="#4D657C" transform="translate(86,81)"/>
<path d="M0 0 C2.11164312 1.91649127 3.40353332 3.57955052 5 6 C4.67 6.99 4.34 7.98 4 9 C3.46375 8.2575 2.9275 7.515 2.375 6.75 C-0.99282763 2.85041011 -3.57085974 0.33033638 -8.84375 -0.38671875 C-13.69900943 -0.5609793 -17.13243402 -0.41095231 -21.5625 1.6875 C-23.97142963 3.97289477 -25.39807725 6.11653906 -27 9 C-27.66 9 -28.32 9 -29 9 C-27.60090738 4.54834166 -25.39864635 2.14374788 -22 -1 C-21.34 -1.66 -20.68 -2.32 -20 -3 C-12.9024937 -5.72981011 -6.02991409 -4.19528065 0 0 Z " fill="#838684" transform="translate(84,24)"/>
<path d="M0 0 C1.60546875 1.64453125 1.60546875 1.64453125 3.1875 3.8125 C3.71730469 4.52019531 4.24710938 5.22789063 4.79296875 5.95703125 C6 8 6 8 6 11 C3.24921116 11.91692961 1.64051087 12.10886083 -1.1875 12.0625 C-3.0746875 12.0315625 -3.0746875 12.0315625 -5 12 C-4.42415568 9.61435923 -3.77772405 7.33317216 -3 5 C-4.175625 6.2065625 -4.175625 6.2065625 -5.375 7.4375 C-8 10 -8 10 -10 11 C-8.60970868 5.56522482 -6.26284364 0 0 0 Z " fill="#4E687E" transform="translate(96,93)"/>
<path d="M0 0 C1.32 0.33 2.64 0.66 4 1 C4.1953125 3.01822917 4.390625 5.03645833 4.5859375 7.0546875 C4.86374749 9.22668245 4.86374749 9.22668245 7 11 C5.54176788 11.0270043 4.08339325 11.04639787 2.625 11.0625 C1.81289063 11.07410156 1.00078125 11.08570312 0.1640625 11.09765625 C-2 11 -2 11 -4 10 C-4.4140625 7.93359375 -4.4140625 7.93359375 -4.625 5.4375 C-4.69976562 4.61121094 -4.77453125 3.78492187 -4.8515625 2.93359375 C-4.90054688 2.29550781 -4.94953125 1.65742187 -5 1 C-2.525 1.495 -2.525 1.495 0 2 C0 1.34 0 0.68 0 0 Z " fill="#6D91B0" transform="translate(51,88)"/>
<path d="M0 0 C2.82078915 2.45681635 4.1559019 5.04774685 5.6875 8.4375 C6.12449219 9.38496094 6.56148438 10.33242187 7.01171875 11.30859375 C8 14 8 14 8 18 C6.125 17.75 6.125 17.75 4 17 C2.75 14.9375 2.75 14.9375 2 13 C1.34 13 0.68 13 0 13 C-0.19466332 11.20909747 -0.38051213 9.41723495 -0.5625 7.625 C-0.66691406 6.62726563 -0.77132812 5.62953125 -0.87890625 4.6015625 C-1 2 -1 2 0 0 Z " fill="#E3B34F" transform="translate(102,76)"/>
<path d="M0 0 C1.7325 0.1546875 1.7325 0.1546875 3.5 0.3125 C5.5 3.3125 5.5 3.3125 5.5 6.3125 C2.49686252 7.81406874 -0.29067522 7.40531204 -3.625 7.375 C-4.90632813 7.36597656 -6.18765625 7.35695313 -7.5078125 7.34765625 C-8.98894531 7.33025391 -8.98894531 7.33025391 -10.5 7.3125 C-3.5 0.3125 -3.5 0.3125 0 0 Z " fill="#E5B54B" transform="translate(78.5,30.6875)"/>
<path d="M0 0 C-0.33 1.32 -0.66 2.64 -1 4 C-1.99 4 -2.98 4 -4 4 C-4 3.67 -4 3.34 -4 3 C-4.99 3 -5.98 3 -7 3 C-7 7.95 -7 12.9 -7 18 C-7.99 18 -8.98 18 -10 18 C-9.34 16.02 -8.68 14.04 -8 12 C-8.66 11.67 -9.32 11.34 -10 11 C-9.67 9.02 -9.34 7.04 -9 5 C-9.99 5.495 -9.99 5.495 -11 6 C-13.3329866 6.04022391 -15.66706666 6.04320247 -18 6 C-16.68 5.67 -15.36 5.34 -14 5 C-14 4.01 -14 3.02 -14 2 C-8.79666866 -0.24281523 -5.65735415 -1.55577239 0 0 Z " fill="#375168" transform="translate(90,79)"/>
<path d="M0 0 C3.85865969 1.45936488 5.00320762 3.26600121 6.75 6.9375 C7.17796875 7.81277344 7.6059375 8.68804687 8.046875 9.58984375 C9 12 9 12 9 15 C7.68 15 6.36 15 5 15 C4.67 15.66 4.34 16.32 4 17 C3.32389577 15.10751181 2.65949561 13.2108398 2 11.3125 C1.62875 10.25675781 1.2575 9.20101563 0.875 8.11328125 C0.0608143 5.21637944 -0.17709796 2.98299377 0 0 Z " fill="#F1D49B" transform="translate(88,16)"/>
<path d="M0 0 C1.69433918 3.0469629 2.49467112 5.82821466 3.125 9.25 C3.29257813 10.14203125 3.46015625 11.0340625 3.6328125 11.953125 C3.75398438 12.62859375 3.87515625 13.3040625 4 14 C2.0085944 14.38133299 0.00720923 14.71325582 -2 15 C-3.73219928 13.26780072 -3.21291761 10.97973192 -3.25 8.625 C-3.28867188 7.15933594 -3.28867188 7.15933594 -3.328125 5.6640625 C-3 3 -3 3 -1.484375 1.1484375 C-0.99453125 0.76945312 -0.5046875 0.39046875 0 0 Z " fill="#E7BE6C" transform="translate(98,77)"/>
<path d="M0 0 C2.25 -0.3125 2.25 -0.3125 5 0 C6.3927289 1.61736259 7.71937515 3.2925002 9 5 C10.95851344 6.39355764 12.95127113 7.74282547 15 9 C12.953125 9.51171875 10.90625 10.0234375 8.859375 10.53515625 C7.93898438 10.76525391 7.93898438 10.76525391 7 11 C5.82439821 9.73742767 4.65977135 8.46462916 3.5 7.1875 C2.8503125 6.47980469 2.200625 5.77210937 1.53125 5.04296875 C0 3 0 3 0 0 Z " fill="#CCCED0" transform="translate(52,46)"/>
<path d="M0 0 C0.66 0 1.32 0 2 0 C2 0.66 2 1.32 2 2 C2.9075 1.938125 3.815 1.87625 4.75 1.8125 C8.28982642 2.01672076 9.44931155 2.64551835 12 5 C11.67 5.66 11.34 6.32 11 7 C8.69 7 6.38 7 4 7 C4.33 8.32 4.66 9.64 5 11 C4.01 11 3.02 11 2 11 C-1.07692308 5.70769231 -1.07692308 5.70769231 -0.6875 2.125 C-0.460625 1.42375 -0.23375 0.7225 0 0 Z " fill="#010202" transform="translate(72,114)"/>
<path d="M0 0 C-3.58941556 4.27368542 -8.70259984 5.04163843 -14 6 C-17.6875 5.6875 -17.6875 5.6875 -20 5 C-20 4.34 -20 3.68 -20 3 C-13.19877155 -0.13902852 -7.43378943 -0.33452052 0 0 Z " fill="#465A6D" transform="translate(66,111)"/>
<path d="M0 0 C1.8125 1.1875 1.8125 1.1875 3 3 C3.4375 5.5 3.4375 5.5 3 8 C1 9.8125 1 9.8125 -1 11 C-0.34 9.35 0.32 7.7 1 6 C-0.65 6.33 -2.3 6.66 -4 7 C-4 6.01 -4 5.02 -4 4 C-3.01 3.67 -2.02 3.34 -1 3 C-1.99 2.67 -2.98 2.34 -4 2 C-5.29042763 4.26601865 -5.29042763 4.26601865 -6 7 C-4.73647948 9.32511472 -4.73647948 9.32511472 -3 11 C-5.86724686 10.42655063 -6.8614515 10.1385485 -9 8 C-8.78739686 5.23615924 -8.32831986 3.47606379 -6.75 1.1875 C-4.3314673 -0.45364719 -2.86449123 -0.42967368 0 0 Z " fill="#0F1720" transform="translate(76,87)"/>
<path d="M0 0 C1.65 0 3.3 0 5 0 C5.33 3.3 5.66 6.6 6 10 C9.3 10.33 12.6 10.66 16 11 C16 11.33 16 11.66 16 12 C5.44191344 12.3690205 5.44191344 12.3690205 1 10 C1 7.36 1 4.72 1 2 C0.34 1.67 -0.32 1.34 -1 1 C-0.67 0.67 -0.34 0.34 0 0 Z " fill="#C4BFB8" transform="translate(61,39)"/>
<path d="M0 0 C2.62697064 -0.22137393 5.00893964 -0.28162025 7.625 -0.1875 C8.33140625 -0.17396484 9.0378125 -0.16042969 9.765625 -0.14648438 C11.51074128 -0.1111104 13.25546608 -0.05730221 15 0 C15 0.33 15 0.66 15 1 C13.02 1 11.04 1 9 1 C9 1.66 9 2.32 9 3 C7.68 3 6.36 3 5 3 C4.67 4.98 4.34 6.96 4 9 C3.34 9 2.68 9 2 9 C1.67 9.66 1.34 10.32 1 11 C1 10.01 1 9.02 1 8 C0.34 8 -0.32 8 -1 8 C-1.625 5.6875 -1.625 5.6875 -2 3 C-1.34 2.01 -0.68 1.02 0 0 Z " fill="#5C7282" transform="translate(47,81)"/>
<path d="M0 0 C0.33 0 0.66 0 1 0 C1.33 3.3 1.66 6.6 2 10 C0.68 10 -0.64 10 -2 10 C-0.46395304 13.14191424 1.05731159 16.08596738 3 19 C-0.79235994 17.51014431 -2.80565887 15.41341953 -5 12 C-4.81190541 9.74286486 -4.60454441 8.60454441 -3 7 C-2.63557767 5.33985384 -2.30027117 3.67293936 -2 2 C-1.34 2 -0.68 2 0 2 C0 1.34 0 0.68 0 0 Z " fill="#B7B9B8" transform="translate(54,36)"/>
<path d="M0 0 C0.99 0.33 1.98 0.66 3 1 C0.1744997 6.08590054 -2.33833471 8.35030787 -8 10 C-20.80033671 13.51228751 -20.80033671 13.51228751 -25 12 C-20.43964608 10.36622835 -15.87450339 9.27703747 -11.125 8.375 C-10.43664062 8.2409375 -9.74828125 8.106875 -9.0390625 7.96875 C-7.36006245 7.64227777 -5.68012464 7.32063447 -4 7 C-4 6.01 -4 5.02 -4 4 C-3.34 4 -2.68 4 -2 4 C-1.34 2.68 -0.68 1.36 0 0 Z " fill="#D2A444" transform="translate(96,67)"/>
<path d="M0 0 C-5.75 2 -5.75 2 -8 2 C-8 2.99 -8 3.98 -8 5 C-11.08888522 7.05925681 -11.70935927 7.2390374 -15.1875 7.125 C-17.0746875 7.063125 -17.0746875 7.063125 -19 7 C-17.75 4.5 -17.75 4.5 -16 2 C-14.68 2 -13.36 2 -12 2 C-11.01 1.34 -10.02 0.68 -9 0 C-5.62709561 -0.95133201 -3.33379087 -1.11126362 0 0 Z " fill="#3A5B76" transform="translate(84,79)"/>
<path d="M0 0 C2.17471852 1.72165216 2.93551743 2.5916104 3.375 5.375 C2.92836154 8.5014692 1.77235898 10.41530982 0 13 C-1.32 12.67 -2.64 12.34 -4 12 C-4.33 12.99 -4.66 13.98 -5 15 C-5.66 14.67 -6.32 14.34 -7 14 C-6.57847656 13.32453125 -6.15695313 12.6490625 -5.72265625 11.953125 C-5.17480469 11.06109375 -4.62695312 10.1690625 -4.0625 9.25 C-3.51722656 8.36828125 -2.97195312 7.4865625 -2.41015625 6.578125 C-1.17284288 4.31600083 -0.46409487 2.51433675 0 0 Z " fill="#747C7F" transform="translate(100,62)"/>
<path d="M0 0 C0.66 0.33 1.32 0.66 2 1 C2 4.3 2 7.6 2 11 C5.96 11 9.92 11 14 11 C14 11.33 14 11.66 14 12 C9.71 12 5.42 12 1 12 C0.67 10.35 0.34 8.7 0 7 C-0.66 7 -1.32 7 -2 7 C-2 8.98 -2 10.96 -2 13 C-2.66 13 -3.32 13 -4 13 C-4.34837335 8.12277312 -3.45094389 5.21562348 -1 1 C-0.67 0.67 -0.34 0.34 0 0 Z " fill="#C1A154" transform="translate(33,88)"/>
<path d="M0 0 C0 0.66 0 1.32 0 2 C-0.99 1.90460938 -1.98 1.80921875 -3 1.7109375 C-14.28175722 0.70935452 -14.28175722 0.70935452 -25 4 C-24 1 -24 1 -22.25 0.05078125 C-14.44723882 -2.50949976 -7.75374296 -3.18102275 0 0 Z " fill="#D8A839" transform="translate(83,69)"/>
<path d="M0 0 C0 0.99 0 1.98 0 3 C-3.09138074 5.91473041 -6.02897839 7.56601997 -10 9 C-10.33 9.33 -10.66 9.66 -11 10 C-12.66617115 10.04063832 -14.33388095 10.042721 -16 10 C-15.67 9.34 -15.34 8.68 -15 8 C-16.65 7.67 -18.3 7.34 -20 7 C-20 6.67 -20 6.34 -20 6 C-18.71416016 5.85304688 -18.71416016 5.85304688 -17.40234375 5.703125 C-10.67690491 4.82358621 -5.5912758 3.90089009 0 0 Z " fill="#BF9B4F" transform="translate(87,54)"/>
<path d="M0 0 C0.99 0.33 1.98 0.66 3 1 C1.25 4.875 1.25 4.875 -1 6 C-1 5.34 -1 4.68 -1 4 C-4.11785113 4.64644661 -4.11785113 4.64644661 -5 7 C-4.34 7 -3.68 7 -3 7 C-3.66 8.32 -4.32 9.64 -5 11 C-6 10 -6 10 -6.0625 7.4375 C-6.041875 6.633125 -6.02125 5.82875 -6 5 C-8.97 4.505 -8.97 4.505 -12 4 C-8.73738338 2.11772118 -5.73669693 1.41518855 -2 1 C-1.67 1.33 -1.34 1.66 -1 2 C-0.67 1.34 -0.34 0.68 0 0 Z " fill="#556671" transform="translate(96,74)"/>
<path d="M0 0 C3.88921353 1.47521893 5.2490848 3.25940843 7 7 C8.80191139 12.64952218 9.23324894 17.20372997 8 23 C7.34 23 6.68 23 6 23 C4.9596248 19.53208267 4.83462857 16.2317517 4.6875 12.625 C4.31811824 7.15199358 3.62649241 4.09442691 0 0 Z " fill="#DEDFDF" transform="translate(85,22)"/>
<path d="M0 0 C2.19921875 0.28125 2.19921875 0.28125 5.88671875 1.15625 C3.88671875 2.65625 3.88671875 2.65625 1.88671875 4.15625 C1.18546875 4.713125 0.48421875 5.27 -0.23828125 5.84375 C-2.11328125 7.15625 -2.11328125 7.15625 -4.11328125 7.15625 C-4.77328125 8.47625 -5.43328125 9.79625 -6.11328125 11.15625 C-6.44328125 11.15625 -6.77328125 11.15625 -7.11328125 11.15625 C-7.65892492 7.44587302 -7.06569281 6.07594452 -5.11328125 2.78125 C-2.11328125 0.15625 -2.11328125 0.15625 0 0 Z " fill="#3C3834" transform="translate(39.11328125,6.84375)"/>
<path d="M0 0 C0.87785156 0.17144531 1.75570312 0.34289062 2.66015625 0.51953125 C4.9375 1.1875 4.9375 1.1875 6.9375 3.1875 C6.9375 4.1775 6.9375 5.1675 6.9375 6.1875 C6.31875 6.0225 5.7 5.8575 5.0625 5.6875 C0.68279271 4.98674683 -3.63678989 5.11015749 -8.0625 5.1875 C-7.0625 3.1875 -7.0625 3.1875 -4.0625 2.1875 C-5.3825 1.5275 -6.7025 0.8675 -8.0625 0.1875 C-4.7412242 -0.91959193 -3.36690012 -0.6892476 0 0 Z " fill="#ABABA3" transform="translate(74.0625,15.8125)"/>
<path d="M0 0 C0.66 0 1.32 0 2 0 C1.875 1.875 1.875 1.875 1 4 C-3.73639858 6.24978932 -8.83677168 6.56399405 -14 7 C-13.195625 6.360625 -12.39125 5.72125 -11.5625 5.0625 C-9.7249496 3.59396498 -9.7249496 3.59396498 -8 2 C-5.66666667 1.66666667 -3.33333333 1.33333333 -1 1 C-0.67 0.67 -0.34 0.34 0 0 Z " fill="#415465" transform="translate(100,103)"/>
<path d="M0 0 C0 2.64 0 5.28 0 8 C-1.65 8.33 -3.3 8.66 -5 9 C-6.35439668 6.29120665 -6.06501451 3.99066732 -6 1 C-3.92446352 0.4465236 -2.15634036 0 0 0 Z " fill="#524F47" transform="translate(99,30)"/>
<path d="M0 0 C2.5625 1.5 2.5625 1.5 4 3 C3.319375 2.835 2.63875 2.67 1.9375 2.5 C-3.17648179 1.62953502 -6.66055844 1.26709801 -11.3125 3.8125 C-14.14569422 5.89880609 -14.14569422 5.89880609 -16 9 C-16.07905064 11.33199388 -16.08798769 13.66832622 -16 16 C-16.99 16 -17.98 16 -19 16 C-19.50604514 10.68652603 -18.38433761 8.09682973 -15 4 C-10.28522265 -0.16654742 -6.08471275 -1.00449717 0 0 Z " fill="#8F671C" transform="translate(75,23)"/>
<path d="M0 0 C-2.41824533 2.41824533 -4.9390491 3.50075874 -8 5 C-8.99 5.66 -9.98 6.32 -11 7 C-11.99 6.01 -12.98 5.02 -14 4 C-14.66 5.32 -15.32 6.64 -16 8 C-16.66 7.01 -17.32 6.02 -18 5 C-11.75838097 1.41874318 -7.24579719 -0.67090715 0 0 Z " fill="#D4B365" transform="translate(57,6)"/>
<path d="M0 0 C-0.33 0.99 -0.66 1.98 -1 3 C-0.60602665 5.63804589 -0.60602665 5.63804589 0 8 C1.32 8.33 2.64 8.66 4 9 C2.02 9.99 2.02 9.99 0 11 C-1.00893131 9.90398831 -2.00688225 8.79786082 -3 7.6875 C-3.8353125 6.76517578 -3.8353125 6.76517578 -4.6875 5.82421875 C-6 4 -6 4 -6 1 C-4 0 -4 0 0 0 Z " fill="#222321" transform="translate(103,92)"/>
<path d="M0 0 C1.32 0.66 2.64 1.32 4 2 C2.68 2.33 1.36 2.66 0 3 C0 3.99 0 4.98 0 6 C1.98 5.34 3.96 4.68 6 4 C5.01 6.31 4.02 8.62 3 11 C1.68 10.67 0.36 10.34 -1 10 C-1 9.34 -1 8.68 -1 8 C-1.63474075 6.65117592 -2.29848848 5.3153341 -3 4 C-2.01 2.68 -1.02 1.36 0 0 Z " fill="#44617C" transform="translate(72,88)"/>
<path d="M0 0 C2.97 0 5.94 0 9 0 C8.75 2.375 8.75 2.375 8 5 C5.9375 6.3125 5.9375 6.3125 4 7 C1.23609263 4.59660228 0.95934081 3.83736322 0 0 Z " fill="#56352A" transform="translate(77,38)"/>
<path d="M0 0 C1.98 0.66 3.96 1.32 6 2 C5.01 2.495 5.01 2.495 4 3 C4.63979849 5.03241727 4.63979849 5.03241727 6 7 C8.55519921 7.81171228 8.55519921 7.81171228 11 8 C11 8.33 11 8.66 11 9 C9.741875 9.04125 8.48375 9.0825 7.1875 9.125 C6.47980469 9.14820313 5.77210937 9.17140625 5.04296875 9.1953125 C3 9 3 9 0 7 C-0.1875 3.375 -0.1875 3.375 0 0 Z " fill="#504A3C" transform="translate(25,34)"/>
<path d="M0 0 C2.97 0.33 5.94 0.66 9 1 C7.35 2.65 5.7 4.3 4 6 C3.01 5.67 2.02 5.34 1 5 C0.67 7.31 0.34 9.62 0 12 C-0.66 12 -1.32 12 -2 12 C-2 9.36 -2 6.72 -2 4 C-1.34 3.67 -0.68 3.34 0 3 C0 2.01 0 1.02 0 0 Z " fill="#4A6983" transform="translate(64,85)"/>
<path d="M0 0 C2.88437779 1.29299694 4.87219421 2.65941363 7 5 C6.34 5 5.68 5 5 5 C5.66 7.97 6.32 10.94 7 14 C6.01 13.34 5.02 12.68 4 12 C4 11.34 4 10.68 4 10 C3.34 10 2.68 10 2 10 C1.855625 8.906875 1.71125 7.81375 1.5625 6.6875 C1.11711896 3.06877013 1.11711896 3.06877013 0 0 Z " fill="#EBCB85" transform="translate(83,11)"/>
<path d="M0 0 C2.64 0.33 5.28 0.66 8 1 C7.01 1.495 7.01 1.495 6 2 C6.495 2.45375 6.99 2.9075 7.5 3.375 C9 5 9 5 9 7 C5.39703406 7.41176754 4.21597933 7.1535853 1.1875 5 C0.465625 4.34 -0.25625 3.68 -1 3 C-0.67 2.01 -0.34 1.02 0 0 Z " fill="#6283A1" transform="translate(49,103)"/>
<path d="M0 0 C0.33 0.66 0.66 1.32 1 2 C3.31 1.34 5.62 0.68 8 0 C8.1875 2.875 8.1875 2.875 8 6 C7.01 6.66 6.02 7.32 5 8 C4.67 6.68 4.34 5.36 4 4 C2.02 4 0.04 4 -2 4 C-2 3.01 -2 2.02 -2 1 C-1.34 0.67 -0.68 0.34 0 0 Z " fill="#4B6881" transform="translate(67,103)"/>
<path d="M0 0 C0.99 0.33 1.98 0.66 3 1 C2.01 1.66 1.02 2.32 0 3 C-1.78374039 6.56748077 -2.45128467 10.06754014 -3 14 C-0.03 14.495 -0.03 14.495 3 15 C3 15.33 3 15.66 3 16 C0.36 15.67 -2.28 15.34 -5 15 C-5.60709557 8.07911053 -4.44071801 5.32886161 0 0 Z " fill="#EABD52" transform="translate(32,87)"/>
<path d="M0 0 C0.66 0.99 1.32 1.98 2 3 C1.67 3.33 1.34 3.66 1 4 C0.76807135 5.51469448 0.58784762 7.03754562 0.4375 8.5625 C0.35371094 9.38878906 0.26992188 10.21507813 0.18359375 11.06640625 C0.12300781 11.70449219 0.06242187 12.34257813 0 13 C-0.99 13.33 -1.98 13.66 -3 14 C-3.66 14.66 -4.32 15.32 -5 16 C-4.39363767 10.23955788 -2.24341721 5.27985631 0 0 Z " fill="#F5E392" transform="translate(30,78)"/>
<path d="M0 0 C0.66 0.33 1.32 0.66 2 1 C1.13375 1.8971875 1.13375 1.8971875 0.25 2.8125 C-2.84738565 7.200463 -4.32989164 11.92749003 -6 17 C-6.33 17 -6.66 17 -7 17 C-7 14.03 -7 11.06 -7 8 C-6.34 8 -5.68 8 -5 8 C-4.731875 7.05125 -4.46375 6.1025 -4.1875 5.125 C-3 2 -3 2 0 0 Z " fill="#E7E8E8" transform="translate(56,23)"/>
<path d="M0 0 C1.27230469 0.01804687 2.54460937 0.03609375 3.85546875 0.0546875 C5.31919922 0.08949219 5.31919922 0.08949219 6.8125 0.125 C6.1525 1.445 5.4925 2.765 4.8125 4.125 C1.8425 3.63 1.8425 3.63 -1.1875 3.125 C-1.1875 2.465 -1.1875 1.805 -1.1875 1.125 C-1.8475 1.125 -2.5075 1.125 -3.1875 1.125 C-3.5175 1.785 -3.8475 2.445 -4.1875 3.125 C-7.1575 2.63 -7.1575 2.63 -10.1875 2.125 C-6.4507157 -0.36618953 -4.44298181 -0.0815226 0 0 Z " fill="#1D2932" transform="translate(75.1875,112.875)"/>
<path d="M0 0 C1.76243653 3.52487306 0.11041286 7.36533465 -1 11 C-2.5 13.5625 -2.5 13.5625 -4 15 C-4.66 15 -5.32 15 -6 15 C-4.99667352 9.05925113 -3.69087294 4.79813482 0 0 Z " fill="#F5E7B3" transform="translate(32,18)"/>
<path d="M0 0 C1.49080078 0.16628906 1.49080078 0.16628906 3.01171875 0.3359375 C3.77097656 0.43132812 4.53023437 0.52671875 5.3125 0.625 C5.3125 0.955 5.3125 1.285 5.3125 1.625 C-0.40691611 2.62178487 -6.08911628 3.61173612 -11.875 4.125 C-13.133125 4.29 -14.39125 4.455 -15.6875 4.625 C-16.0175 5.285 -16.3475 5.945 -16.6875 6.625 C-17.6775 5.965 -18.6675 5.305 -19.6875 4.625 C-18.92824219 4.43164062 -18.16898438 4.23828125 -17.38671875 4.0390625 C-16.39285156 3.77867188 -15.39898437 3.51828125 -14.375 3.25 C-13.38886719 2.99476562 -12.40273438 2.73953125 -11.38671875 2.4765625 C-2.57606132 -0.30306604 -2.57606132 -0.30306604 0 0 Z " fill="#394755" transform="translate(71.6875,111.375)"/>
<path d="M0 0 C0.99 0.495 0.99 0.495 2 1 C2 2.32 2 3.64 2 5 C3.134375 5.391875 4.26875 5.78375 5.4375 6.1875 C6.613125 6.785625 7.78875 7.38375 9 8 C9.72265625 10.61328125 9.72265625 10.61328125 10 13 C8.51990357 12.02223933 7.04094856 11.0427506 5.5625 10.0625 C4.73878906 9.51722656 3.91507813 8.97195312 3.06640625 8.41015625 C1 7 1 7 0 6 C-0.04080783 4.00041636 -0.04254356 1.99954746 0 0 Z " fill="#8BA6B9" transform="translate(28,70)"/>
<path d="M0 0 C0.66 0.66 1.32 1.32 2 2 C1.8125 4.5 1.8125 4.5 1 7 C0.01 7.66 -0.98 8.32 -2 9 C-4 6 -4 6 -3.8125 3.9375 C-3 2 -3 2 0 0 Z " fill="#C7C8CA" transform="translate(90,43)"/>
<path d="M0 0 C5.18209744 2.16925009 7.86984074 4.44704107 11 9 C10.67 9.99 10.34 10.98 10 12 C9.2265625 10.9171875 9.2265625 10.9171875 8.4375 9.8125 C5.56617403 6.49943158 2.6293662 4.44284263 -1 2 C-0.67 1.34 -0.34 0.68 0 0 Z " fill="#83888C" transform="translate(78,21)"/>
<path d="M0 0 C0.66 0.66 1.32 1.32 2 2 C-2.62 2.33 -7.24 2.66 -12 3 C-12 2.01 -12 1.02 -12 0 C-7.88779344 -1.54207746 -4.22170714 -0.74901256 0 0 Z " fill="#292724" transform="translate(57,3)"/>
<path d="M0 0 C1.8871875 0.0309375 1.8871875 0.0309375 3.8125 0.0625 C0.8125 2.0625 0.8125 2.0625 -1.1875 2.0625 C-1.5175 2.7225 -1.8475 3.3825 -2.1875 4.0625 C-2.1875 3.4025 -2.1875 2.7425 -2.1875 2.0625 C-3.1775 2.0625 -4.1675 2.0625 -5.1875 2.0625 C-5.8475 3.3825 -6.5075 4.7025 -7.1875 6.0625 C-8.5075 5.7325 -9.8275 5.4025 -11.1875 5.0625 C-7.60998157 1.23825617 -5.24114904 -0.08592048 0 0 Z " fill="#495A66" transform="translate(98.1875,90.9375)"/>
<path d="M0 0 C2.31 0.33 4.62 0.66 7 1 C7 1.66 7 2.32 7 3 C7.66 3 8.32 3 9 3 C8.67 3.66 8.34 4.32 8 5 C4.37 5 0.74 5 -3 5 C-2.67 4.34 -2.34 3.68 -2 3 C-1.34 3 -0.68 3 0 3 C0 2.01 0 1.02 0 0 Z " fill="#E3B345" transform="translate(69,63)"/>
<path d="M0 0 C1.2684375 0.12375 1.2684375 0.12375 2.5625 0.25 C4.5625 3.25 4.5625 3.25 4.5625 6.25 C1.125 5.4375 1.125 5.4375 -2.4375 4.25 C-2.7675 3.26 -3.0975 2.27 -3.4375 1.25 C-2.4375 0.25 -2.4375 0.25 0 0 Z " fill="#DDAD41" transform="translate(79.4375,30.75)"/>
<path d="M0 0 C-2.96348429 1.9756562 -3.68020373 2.26376859 -7.01171875 2.4140625 C-8.14770508 2.47207031 -8.14770508 2.47207031 -9.30664062 2.53125 C-10.09232422 2.5621875 -10.87800781 2.593125 -11.6875 2.625 C-12.48478516 2.66367188 -13.28207031 2.70234375 -14.10351562 2.7421875 C-16.06863475 2.83632494 -18.0342854 2.91924632 -20 3 C-16.55837185 0.07193329 -14.51216315 -0.22972538 -9.9609375 -0.03515625 C-6.10026698 0.03405896 -3.78764818 -1.26254939 0 0 Z " fill="#31414F" transform="translate(98,109)"/>
<path d="M0 0 C0.66 0.33 1.32 0.66 2 1 C1.51917969 1.39832031 1.03835937 1.79664062 0.54296875 2.20703125 C-1.37391825 4.43450247 -1.47741643 5.78834669 -1.6875 8.6875 C-1.78611328 9.89986328 -1.78611328 9.89986328 -1.88671875 11.13671875 C-1.92410156 11.75160156 -1.96148437 12.36648437 -2 13 C-2.66 13 -3.32 13 -4 13 C-5.56659619 6.97463002 -5.56659619 6.97463002 -3.953125 4.19921875 C-2.70838944 2.73420696 -1.35934288 1.35934288 0 0 Z " fill="#AC8545" transform="translate(63,26)"/>
<path d="M0 0 C2.97 0 5.94 0 9 0 C9 1.65 9 3.3 9 5 C10.32 5.33 11.64 5.66 13 6 C13 6.99 13 7.98 13 9 C11.35 8.67 9.7 8.34 8 8 C8 5.69 8 3.38 8 1 C5.36 1 2.72 1 0 1 C0 0.67 0 0.34 0 0 Z " fill="#526D83" transform="translate(39,102)"/>
<path d="M0 0 C0.33 0 0.66 0 1 0 C1.875 3.0625 1.875 3.0625 2 7 C-0.17978484 10.89247292 -2.90370276 13.45185138 -6.875 15.4375 C-7.926875 15.7159375 -7.926875 15.7159375 -9 16 C-9 15.34 -9 14.68 -9 14 C-7.8553125 13.319375 -7.8553125 13.319375 -6.6875 12.625 C-3.86243018 10.91681825 -2.59241045 9.86633881 -1 7 C-0.27518916 3.34725531 -0.27518916 3.34725531 0 0 Z " fill="#907643" transform="translate(86,38)"/>
<path d="M0 0 C0.99 0.33 1.98 0.66 3 1 C3 6.28 3 11.56 3 17 C2.67 17 2.34 17 2 17 C2 12.71 2 8.42 2 4 C0.68 4.33 -0.64 4.66 -2 5 C-2 3.68 -2 2.36 -2 1 C-1.34 0.67 -0.68 0.34 0 0 Z " fill="#F6EEE3" transform="translate(26,42)"/>
<path d="M0 0 C3.96 0.33 7.92 0.66 12 1 C11.67 2.32 11.34 3.64 11 5 C9.35 4.67 7.7 4.34 6 4 C6 3.34 6 2.68 6 2 C4.02 2 2.04 2 0 2 C0 1.34 0 0.68 0 0 Z " fill="#5A81A3" transform="translate(49,99)"/>
<path d="M0 0 C0.99 0.495 0.99 0.495 2 1 C2 1.66 2 2.32 2 3 C2.66 3 3.32 3 4 3 C5.4606285 5.64738916 6 6.89448334 6 10 C2.83884224 8.63016497 2.0072908 8.0109362 0 5 C-0.125 2.3125 -0.125 2.3125 0 0 Z " fill="#B5821E" transform="translate(103,84)"/>
<path d="M0 0 C0 0.33 0 0.66 0 1 C-2.29141286 1.05384521 -4.58318188 1.09272087 -6.875 1.125 C-8.78925781 1.15980469 -8.78925781 1.15980469 -10.7421875 1.1953125 C-14 1 -14 1 -16 -1 C-10.85708727 -3.57145636 -5.14503392 -1.68001108 0 0 Z " fill="#AB8543" transform="translate(81,26)"/>
<path d="M0 0 C3.3 0.33 6.6 0.66 10 1 C10.33 2.32 10.66 3.64 11 5 C11.99 5.33 12.98 5.66 14 6 C9.70946867 5.51243962 7.30405182 4.75337652 4 2 C2.68 1.34 1.36 0.68 0 0 Z " fill="#768089" transform="translate(34,111)"/>
<path d="M0 0 C0.66 0.33 1.32 0.66 2 1 C2.73075648 3.3140622 3.40138258 5.64828869 4 8 C3.34 8.66 2.68 9.32 2 10 C-1.07692308 5.69230769 -1.07692308 5.69230769 -0.6875 2.1875 C-0.460625 1.465625 -0.23375 0.74375 0 0 Z " fill="#9F9E9E" transform="translate(59,39)"/>
<path d="M0 0 C-0.33 0.99 -0.66 1.98 -1 3 C-1.99 3 -2.98 3 -4 3 C-4.10957031 3.63808594 -4.21914063 4.27617187 -4.33203125 4.93359375 C-4.49058594 5.75988281 -4.64914063 6.58617187 -4.8125 7.4375 C-4.96332031 8.26121094 -5.11414062 9.08492187 -5.26953125 9.93359375 C-5.51058594 10.61550781 -5.75164063 11.29742187 -6 12 C-6.99 12.33 -7.98 12.66 -9 13 C-8.3920502 8.86594138 -7.09037553 5.61795765 -5 2 C-2 0 -2 0 0 0 Z " fill="#EFD98C" transform="translate(40,12)"/>
<path d="M0 0 C0.825 0.165 1.65 0.33 2.5 0.5 C6.41272317 1.05896045 10.05183173 1.06807187 14 1 C14 1.99 14 2.98 14 4 C3.44191344 3.03644647 3.44191344 3.03644647 -1 2 C-0.67 1.34 -0.34 0.68 0 0 Z " fill="#232221" transform="translate(64,3)"/>
<path d="M0 0 C2.67901932 2.31881505 3.66204403 4.31814468 4.6875 7.6875 C4.93886719 8.49574219 5.19023438 9.30398437 5.44921875 10.13671875 C5.63097656 10.75160156 5.81273438 11.36648437 6 12 C5.34 12 4.68 12 4 12 C-0.57142857 4.71428571 -0.57142857 4.71428571 0 0 Z " fill="#F1DCB9" transform="translate(91,18)"/>
<path d="M0 0 C-3 2 -3 2 -6.125 3.5 C-9.08870808 4.68898301 -9.08870808 4.68898301 -10 7 C-11.32 6.67 -12.64 6.34 -14 6 C-12.61447798 4.98576166 -11.21605712 3.98912998 -9.8125 3 C-9.03519531 2.443125 -8.25789063 1.88625 -7.45703125 1.3125 C-4.71663363 -0.151369 -3.05899163 -0.26080213 0 0 Z " fill="#C4C3BC" transform="translate(66,17)"/>
<path d="M0 0 C0.33 0.66 0.66 1.32 1 2 C3.31 2 5.62 2 8 2 C8 2.99 8 3.98 8 5 C5.36 5 2.72 5 0 5 C0 3.35 0 1.7 0 0 Z " fill="#353534" transform="translate(76,121)"/>
<path d="M0 0 C0.66 0 1.32 0 2 0 C2 1.32 2 2.64 2 4 C2.66 4 3.32 4 4 4 C4.33 6.31 4.66 8.62 5 11 C3.68 10.34 2.36 9.68 1 9 C1 6.69 1 4.38 1 2 C0.34 1.67 -0.32 1.34 -1 1 C-0.67 0.67 -0.34 0.34 0 0 Z " fill="#AFAFAE" transform="translate(61,39)"/>
<path d="M0 0 C1.91015625 0.23046875 1.91015625 0.23046875 3.91015625 2.23046875 C2.91015625 3.23046875 2.91015625 3.23046875 -0.46484375 3.41796875 C-4.08984375 3.23046875 -4.08984375 3.23046875 -7.08984375 1.23046875 C-5.19495423 -0.66442077 -2.51845229 0.05027763 0 0 Z " fill="#797B78" transform="translate(74.08984375,19.76953125)"/>
<path d="M0 0 C0.66 0 1.32 0 2 0 C2 0.66 2 1.32 2 2 C3.98 2 5.96 2 8 2 C4.25 4 4.25 4 2 4 C1.67 5.32 1.34 6.64 1 8 C-1 5 -1 5 -0.625 2.3125 C-0.41875 1.549375 -0.2125 0.78625 0 0 Z " fill="#0F1519" transform="translate(72,114)"/>
<path d="M0 0 C0.66 0 1.32 0 2 0 C2.0825 0.78375 2.165 1.5675 2.25 2.375 C2.72806339 5.14749104 2.72806339 5.14749104 5.0625 6.3125 C5.701875 6.539375 6.34125 6.76625 7 7 C6.34 7 5.68 7 5 7 C4.67 7.66 4.34 8.32 4 9 C4 8.34 4 7.68 4 7 C2.68 6.67 1.36 6.34 0 6 C0 4.02 0 2.04 0 0 Z " fill="#615A4B" transform="translate(31,95)"/>
<path d="M0 0 C1.70884005 1.62339805 3.37446717 3.29319053 5 5 C5 5.66 5 6.32 5 7 C3.35 7.33 1.7 7.66 0 8 C0 5.36 0 2.72 0 0 Z " fill="#627A8C" transform="translate(96,95)"/>
<path d="M0 0 C3.93846154 3.32307692 3.93846154 3.32307692 4.25 6.75 C4.1675 7.4925 4.085 8.235 4 9 C3.34 9 2.68 9 2 9 C1.71125 8.195625 1.4225 7.39125 1.125 6.5625 C0.26737432 3.8673532 0.26737432 3.8673532 -2 3 C-2 2.34 -2 1.68 -2 1 C-1.34 0.67 -0.68 0.34 0 0 Z " fill="#BA8A38" transform="translate(82,28)"/>
<path d="M0 0 C1.79133978 -0.05391993 3.58313899 -0.09275571 5.375 -0.125 C6.37273437 -0.14820312 7.37046875 -0.17140625 8.3984375 -0.1953125 C11 0 11 0 13 2 C11.39679026 2.19551338 9.79237014 2.38111983 8.1875 2.5625 C7.29417969 2.66691406 6.40085937 2.77132813 5.48046875 2.87890625 C3 3 3 3 0 2 C0 1.34 0 0.68 0 0 Z " fill="#383836" transform="translate(66,2)"/>
<path d="M0 0 C0 3 0 3 -2.1875 5.25 C-5 7 -5 7 -7.8125 6.75 C-8.534375 6.5025 -9.25625 6.255 -10 6 C-6.74147635 3.8276509 -3.40755272 1.92880342 0 0 Z " fill="#CAA459" transform="translate(87,54)"/>
<path d="M0 0 C0.66 0 1.32 0 2 0 C2.19573608 1.43640171 2.38127816 2.87419504 2.5625 4.3125 C2.66691406 5.11300781 2.77132812 5.91351563 2.87890625 6.73828125 C3 9 3 9 2 12 C1.34 12 0.68 12 0 12 C0 8.04 0 4.08 0 0 Z " fill="#B0B3B5" transform="translate(88,32)"/>
<path d="M0 0 C0.66 0 1.32 0 2 0 C1.34 3.63 0.68 7.26 0 11 C-0.66 11 -1.32 11 -2 11 C-2.25 3.375 -2.25 3.375 0 0 Z " fill="#F5DE6C" transform="translate(27,91)"/>
<path d="M0 0 C0.99 0 1.98 0 3 0 C2.67 2.97 2.34 5.94 2 9 C0.68 9.33 -0.64 9.66 -2 10 C-1.01 7.69 -0.02 5.38 1 3 C0.34 3 -0.32 3 -1 3 C-0.67 2.01 -0.34 1.02 0 0 Z " fill="#3C4A56" transform="translate(92,78)"/>
<path d="M0 0 C-5.75 2 -5.75 2 -8 2 C-8 2.66 -8 3.32 -8 4 C-9.32 3.67 -10.64 3.34 -12 3 C-8.66305069 -1.03946495 -4.8800129 -1.62667097 0 0 Z " fill="#4D6778" transform="translate(84,79)"/>
<path d="M0 0 C0.66 0.66 1.32 1.32 2 2 C-0.95664519 3.4783226 -3.74229737 3.06032783 -7 3 C-6.67 2.01 -6.34 1.02 -6 0 C-3 -1 -3 -1 0 0 Z " fill="#CCCED1" transform="translate(77,57)"/>
<path d="M0 0 C0.33 0.99 0.66 1.98 1 3 C1.99 3 2.98 3 4 3 C4 5.31 4 7.62 4 10 C3.01 10 2.02 10 1 10 C0.67 6.7 0.34 3.4 0 0 Z " fill="#8D8A84" transform="translate(55,36)"/>
<path d="M0 0 C0.99 0.33 1.98 0.66 3 1 C-0.11016455 4.28788824 -3.01618925 6.83735988 -7 9 C-5.79618552 6.50638429 -4.54571278 4.31856917 -3 2 C-2.01 2 -1.02 2 0 2 C0 1.34 0 0.68 0 0 Z " fill="#BABCBB" transform="translate(60,22)"/>
<path d="M0 0 C2.31 0.33 4.62 0.66 7 1 C7 1.66 7 2.32 7 3 C7.66 3.33 8.32 3.66 9 4 C6.36 3.67 3.72 3.34 1 3 C0.67 3.99 0.34 4.98 0 6 C0 4.02 0 2.04 0 0 Z " fill="#7D9DB6" transform="translate(48,100)"/>
<path d="M0 0 C5.875 3.625 5.875 3.625 7 7 C6.01 7.495 6.01 7.495 5 8 C2.21611025 6.29374499 1.14615794 5.52373261 0.25 2.3125 C0.1675 1.549375 0.085 0.78625 0 0 Z " fill="#E3B549" transform="translate(51,51)"/>
<path d="M0 0 C0.66 0.33 1.32 0.66 2 1 C2 1.66 2 2.32 2 3 C2.66 3.66 3.32 4.32 4 5 C1.69 5.66 -0.62 6.32 -3 7 C-2.25 2.25 -2.25 2.25 0 0 Z " fill="#3D3D3B" transform="translate(53,118)"/>
<path d="M0 0 C0.33 1.32 0.66 2.64 1 4 C0.34 4 -0.32 4 -1 4 C-1 5.98 -1 7.96 -1 10 C-1.66 10 -2.32 10 -3 10 C-3.36923077 4.58461538 -3.36923077 4.58461538 -1.5 1.625 C-1.005 1.08875 -0.51 0.5525 0 0 Z " fill="#BC872B" transform="translate(32,91)"/>
<path d="M0 0 C1.68496298 0.96885372 3.35178756 1.96986723 5 3 C5 3.33 5 3.66 5 4 C3.54176788 4.0270043 2.08339325 4.04639787 0.625 4.0625 C-0.18710937 4.07410156 -0.99921875 4.08570312 -1.8359375 4.09765625 C-4 4 -4 4 -6 3 C-5.67 2.34 -5.34 1.68 -5 1 C-3.35 1.33 -1.7 1.66 0 2 C0 1.34 0 0.68 0 0 Z " fill="#7E9EBB" transform="translate(53,95)"/>
<path d="M0 0 C1.32 0.66 2.64 1.32 4 2 C3.01 2.66 2.02 3.32 1 4 C0.67 4.99 0.34 5.98 0 7 C-1.65 5.68 -3.3 4.36 -5 3 C-3.68 3 -2.36 3 -1 3 C-0.67 2.01 -0.34 1.02 0 0 Z " fill="#758E9D" transform="translate(45,81)"/>
<path d="M0 0 C0.33 0 0.66 0 1 0 C1 2.64 1 5.28 1 8 C-0.65 8.33 -2.3 8.66 -4 9 C-4.33 7.35 -4.66 5.7 -5 4 C-4.67 4.66 -4.34 5.32 -4 6 C-1.97536745 6.65213292 -1.97536745 6.65213292 0 7 C0 4.69 0 2.38 0 0 Z " fill="#74716C" transform="translate(98,30)"/>
<path d="M0 0 C0.33 0.66 0.66 1.32 1 2 C-1.31 4.64 -3.62 7.28 -6 10 C-6.33 9.34 -6.66 8.68 -7 8 C-5.72015534 4.16046601 -3.18498704 2.34683256 0 0 Z " fill="#5A7289" transform="translate(93,94)"/>
<path d="M0 0 C1.485 0.99 1.485 0.99 3 2 C3.1875 4.625 3.1875 4.625 3 7 C3.66 7.33 4.32 7.66 5 8 C4.01 8.33 3.02 8.66 2 9 C1.67 7.68 1.34 6.36 1 5 C0.34 5 -0.32 5 -1 5 C-0.67 3.35 -0.34 1.7 0 0 Z " fill="#5B5549" transform="translate(105,92)"/>
<path d="M0 0 C0.66 0.33 1.32 0.66 2 1 C1.01 2.98 0.02 4.96 -1 7 C-2.32 6.67 -3.64 6.34 -5 6 C-4.75 4.125 -4.75 4.125 -4 2 C-2.0625 0.6875 -2.0625 0.6875 0 0 Z " fill="#344C60" transform="translate(76,92)"/>
<path d="M0 0 C2 1 2 1 2.8125 2.6875 C3.08515672 6.05026621 1.63253939 8.12673067 0 11 C-0.33 11 -0.66 11 -1 11 C-1.14285714 3.57142857 -1.14285714 3.57142857 0 0 Z " fill="#F4DB6E" transform="translate(31,78)"/>
<path d="M0 0 C0.86625 0.2784375 0.86625 0.2784375 1.75 0.5625 C4.20692525 1.04023546 5.64397534 0.75729364 8 0 C8.33 0.99 8.66 1.98 9 3 C6.08517222 3.80967438 4.53886783 4.21845993 1.6875 3.0625 C1.130625 2.711875 0.57375 2.36125 0 2 C0 1.34 0 0.68 0 0 Z " fill="#BDBBB6" transform="translate(57,55)"/>
<path d="M0 0 C3.37462715 0.54723683 5.08235 1.0549 8 3 C5.6875 3.625 5.6875 3.625 3 4 C2.01 3.34 1.02 2.68 0 2 C0 1.34 0 0.68 0 0 Z " fill="#2A251E" transform="translate(36,102)"/>
<path d="M0 0 C0.33 0 0.66 0 1 0 C1 2.97 1 5.94 1 9 C-0.65 9.33 -2.3 9.66 -4 10 C-3.34 8.68 -2.68 7.36 -2 6 C-1.34 6 -0.68 6 0 6 C0 4.02 0 2.04 0 0 Z " fill="#5C6A71" transform="translate(94,81)"/>
<path d="M0 0 C0 1.98 0 3.96 0 6 C-0.66 5.01 -1.32 4.02 -2 3 C-5.08365871 2.7497843 -5.08365871 2.7497843 -8 3 C-8 2.34 -8 1.68 -8 1 C-2.25 0 -2.25 0 0 0 Z " fill="#485D6E" transform="translate(81,84)"/>
<path d="M0 0 C0.66 0.33 1.32 0.66 2 1 C1.38125 1.5775 0.7625 2.155 0.125 2.75 C-1.81347053 4.80249821 -2.90014249 6.43366582 -4 9 C-4.125 3.25 -4.125 3.25 -3 1 C-2.01 0.67 -1.02 0.34 0 0 Z " fill="#435C72" transform="translate(86,81)"/>
<path d="M0 0 C0.33 0.66 0.66 1.32 1 2 C0.67 2.99 0.34 3.98 0 5 C-0.66 5 -1.32 5 -2 5 C-2.33 5.99 -2.66 6.98 -3 8 C-4 5 -4 5 -3.1875 2.875 C-2 1 -2 1 0 0 Z " fill="#E6C873" transform="translate(48,27)"/>
<path d="M0 0 C2.97 0.495 2.97 0.495 6 1 C5.34 2.32 4.68 3.64 4 5 C3.01 5 2.02 5 1 5 C0.67 3.35 0.34 1.7 0 0 Z " fill="#C49640" transform="translate(69,26)"/>
<path d="M0 0 C3.3 0.99 6.6 1.98 10 3 C5.99998285 4.00000429 3.94476647 3.80688405 0 3 C0 2.01 0 1.02 0 0 Z " fill="#D0AB67" transform="translate(74,7)"/>
<path d="M0 0 C0.66 0 1.32 0 2 0 C2.1875 2.875 2.1875 2.875 2 6 C1.01 6.66 0.02 7.32 -1 8 C-0.67 5.36 -0.34 2.72 0 0 Z " fill="#576875" transform="translate(73,103)"/>
<path d="M0 0 C4.75 0.875 4.75 0.875 7 2 C7 2.66 7 3.32 7 4 C5.35 4 3.7 4 2 4 C1.34 2.68 0.68 1.36 0 0 Z " fill="#6E95B6" transform="translate(37,80)"/>
<path d="M0 0 C0.99 0.33 1.98 0.66 3 1 C-1.75 5.875 -1.75 5.875 -4 7 C-4 6.01 -4 5.02 -4 4 C-3.34 4 -2.68 4 -2 4 C-1.34 2.68 -0.68 1.36 0 0 Z " fill="#DFAF55" transform="translate(96,67)"/>
<path d="M0 0 C0.99 0.33 1.98 0.66 3 1 C2.67 3.31 2.34 5.62 2 8 C1.34 7.67 0.68 7.34 0 7 C0 4.69 0 2.38 0 0 Z " fill="#7E7B76" transform="translate(25,34)"/>
<path d="M0 0 C0.99 0.33 1.98 0.66 3 1 C3 3.31 3 5.62 3 8 C2.01 7.34 1.02 6.68 0 6 C-0.1875 2.875 -0.1875 2.875 0 0 Z " fill="#E7C98F" transform="translate(93,38)"/>
</svg>
